%TF.GenerationSoftware,KiCad,Pcbnew,(5.1.7)-1*%
%TF.CreationDate,2020-10-27T19:53:13+01:00*%
%TF.ProjectId,Spytag,53707974-6167-42e6-9b69-6361645f7063,rev?*%
%TF.SameCoordinates,Original*%
%TF.FileFunction,Legend,Bot*%
%TF.FilePolarity,Positive*%
%FSLAX46Y46*%
G04 Gerber Fmt 4.6, Leading zero omitted, Abs format (unit mm)*
G04 Created by KiCad (PCBNEW (5.1.7)-1) date 2020-10-27 19:53:13*
%MOMM*%
%LPD*%
G01*
G04 APERTURE LIST*
%ADD10C,0.120000*%
%ADD11C,0.150000*%
G04 APERTURE END LIST*
D10*
X104000000Y-139500000D02*
X154000000Y-139500000D01*
D11*
X157166666Y-78928571D02*
X157023809Y-78976190D01*
X156976190Y-79023809D01*
X156928571Y-79119047D01*
X156928571Y-79261904D01*
X156976190Y-79357142D01*
X157023809Y-79404761D01*
X157119047Y-79452380D01*
X157500000Y-79452380D01*
X157500000Y-78452380D01*
X157166666Y-78452380D01*
X157071428Y-78500000D01*
X157023809Y-78547619D01*
X156976190Y-78642857D01*
X156976190Y-78738095D01*
X157023809Y-78833333D01*
X157071428Y-78880952D01*
X157166666Y-78928571D01*
X157500000Y-78928571D01*
X156071428Y-79452380D02*
X156071428Y-78928571D01*
X156119047Y-78833333D01*
X156214285Y-78785714D01*
X156404761Y-78785714D01*
X156500000Y-78833333D01*
X156071428Y-79404761D02*
X156166666Y-79452380D01*
X156404761Y-79452380D01*
X156500000Y-79404761D01*
X156547619Y-79309523D01*
X156547619Y-79214285D01*
X156500000Y-79119047D01*
X156404761Y-79071428D01*
X156166666Y-79071428D01*
X156071428Y-79023809D01*
X155738095Y-78785714D02*
X155357142Y-78785714D01*
X155595238Y-78452380D02*
X155595238Y-79309523D01*
X155547619Y-79404761D01*
X155452380Y-79452380D01*
X155357142Y-79452380D01*
X155166666Y-78785714D02*
X154785714Y-78785714D01*
X155023809Y-78452380D02*
X155023809Y-79309523D01*
X154976190Y-79404761D01*
X154880952Y-79452380D01*
X154785714Y-79452380D01*
X154071428Y-79404761D02*
X154166666Y-79452380D01*
X154357142Y-79452380D01*
X154452380Y-79404761D01*
X154500000Y-79309523D01*
X154500000Y-78928571D01*
X154452380Y-78833333D01*
X154357142Y-78785714D01*
X154166666Y-78785714D01*
X154071428Y-78833333D01*
X154023809Y-78928571D01*
X154023809Y-79023809D01*
X154500000Y-79119047D01*
X153595238Y-79452380D02*
X153595238Y-78785714D01*
X153595238Y-78976190D02*
X153547619Y-78880952D01*
X153500000Y-78833333D01*
X153404761Y-78785714D01*
X153309523Y-78785714D01*
X152976190Y-79452380D02*
X152976190Y-78785714D01*
X152976190Y-78452380D02*
X153023809Y-78500000D01*
X152976190Y-78547619D01*
X152928571Y-78500000D01*
X152976190Y-78452380D01*
X152976190Y-78547619D01*
X152500000Y-78785714D02*
X152500000Y-79642857D01*
X152547619Y-79738095D01*
X152642857Y-79785714D01*
X152690476Y-79785714D01*
X152500000Y-78452380D02*
X152547619Y-78500000D01*
X152500000Y-78547619D01*
X152452380Y-78500000D01*
X152500000Y-78452380D01*
X152500000Y-78547619D01*
D10*
X104000000Y-139500000D02*
X104000000Y-79500000D01*
X154000000Y-79500000D02*
X154000000Y-139500000D01*
X104000000Y-79500000D02*
X154000000Y-79500000D01*
%TO.C,H1*%
D11*
X144761904Y-114152380D02*
X144761904Y-113152380D01*
X144761904Y-113628571D02*
X144190476Y-113628571D01*
X144190476Y-114152380D02*
X144190476Y-113152380D01*
X143190476Y-114152380D02*
X143761904Y-114152380D01*
X143476190Y-114152380D02*
X143476190Y-113152380D01*
X143571428Y-113295238D01*
X143666666Y-113390476D01*
X143761904Y-113438095D01*
%TO.C,H2*%
X114761904Y-114152380D02*
X114761904Y-113152380D01*
X114761904Y-113628571D02*
X114190476Y-113628571D01*
X114190476Y-114152380D02*
X114190476Y-113152380D01*
X113761904Y-113247619D02*
X113714285Y-113200000D01*
X113619047Y-113152380D01*
X113380952Y-113152380D01*
X113285714Y-113200000D01*
X113238095Y-113247619D01*
X113190476Y-113342857D01*
X113190476Y-113438095D01*
X113238095Y-113580952D01*
X113809523Y-114152380D01*
X113190476Y-114152380D01*
%TD*%
M02*
