%TF.GenerationSoftware,KiCad,Pcbnew,(5.1.7)-1*%
%TF.CreationDate,2020-10-27T19:53:13+01:00*%
%TF.ProjectId,Spytag,53707974-6167-42e6-9b69-6361645f7063,rev?*%
%TF.SameCoordinates,Original*%
%TF.FileFunction,Soldermask,Top*%
%TF.FilePolarity,Negative*%
%FSLAX46Y46*%
G04 Gerber Fmt 4.6, Leading zero omitted, Abs format (unit mm)*
G04 Created by KiCad (PCBNEW (5.1.7)-1) date 2020-10-27 19:53:13*
%MOMM*%
%LPD*%
G01*
G04 APERTURE LIST*
%ADD10C,1.600000*%
%ADD11C,2.100000*%
%ADD12C,1.700000*%
%ADD13C,3.300000*%
%ADD14O,1.800000X1.800000*%
G04 APERTURE END LIST*
%TO.C,U1*%
G36*
G01*
X138000000Y-142450000D02*
X138000000Y-143550000D01*
G75*
G02*
X137950000Y-143600000I-50000J0D01*
G01*
X135450000Y-143600000D01*
G75*
G02*
X135400000Y-143550000I0J50000D01*
G01*
X135400000Y-142450000D01*
G75*
G02*
X135450000Y-142400000I50000J0D01*
G01*
X137950000Y-142400000D01*
G75*
G02*
X138000000Y-142450000I0J-50000D01*
G01*
G37*
G36*
G01*
X138000000Y-140450000D02*
X138000000Y-141550000D01*
G75*
G02*
X137950000Y-141600000I-50000J0D01*
G01*
X135450000Y-141600000D01*
G75*
G02*
X135400000Y-141550000I0J50000D01*
G01*
X135400000Y-140450000D01*
G75*
G02*
X135450000Y-140400000I50000J0D01*
G01*
X137950000Y-140400000D01*
G75*
G02*
X138000000Y-140450000I0J-50000D01*
G01*
G37*
G36*
G01*
X138000000Y-138450000D02*
X138000000Y-139550000D01*
G75*
G02*
X137950000Y-139600000I-50000J0D01*
G01*
X135450000Y-139600000D01*
G75*
G02*
X135400000Y-139550000I0J50000D01*
G01*
X135400000Y-138450000D01*
G75*
G02*
X135450000Y-138400000I50000J0D01*
G01*
X137950000Y-138400000D01*
G75*
G02*
X138000000Y-138450000I0J-50000D01*
G01*
G37*
G36*
G01*
X138000000Y-136450000D02*
X138000000Y-137550000D01*
G75*
G02*
X137950000Y-137600000I-50000J0D01*
G01*
X135450000Y-137600000D01*
G75*
G02*
X135400000Y-137550000I0J50000D01*
G01*
X135400000Y-136450000D01*
G75*
G02*
X135450000Y-136400000I50000J0D01*
G01*
X137950000Y-136400000D01*
G75*
G02*
X138000000Y-136450000I0J-50000D01*
G01*
G37*
G36*
G01*
X138000000Y-134450000D02*
X138000000Y-135550000D01*
G75*
G02*
X137950000Y-135600000I-50000J0D01*
G01*
X135450000Y-135600000D01*
G75*
G02*
X135400000Y-135550000I0J50000D01*
G01*
X135400000Y-134450000D01*
G75*
G02*
X135450000Y-134400000I50000J0D01*
G01*
X137950000Y-134400000D01*
G75*
G02*
X138000000Y-134450000I0J-50000D01*
G01*
G37*
G36*
G01*
X138000000Y-132450000D02*
X138000000Y-133550000D01*
G75*
G02*
X137950000Y-133600000I-50000J0D01*
G01*
X135450000Y-133600000D01*
G75*
G02*
X135400000Y-133550000I0J50000D01*
G01*
X135400000Y-132450000D01*
G75*
G02*
X135450000Y-132400000I50000J0D01*
G01*
X137950000Y-132400000D01*
G75*
G02*
X138000000Y-132450000I0J-50000D01*
G01*
G37*
G36*
G01*
X138000000Y-130450000D02*
X138000000Y-131550000D01*
G75*
G02*
X137950000Y-131600000I-50000J0D01*
G01*
X135450000Y-131600000D01*
G75*
G02*
X135400000Y-131550000I0J50000D01*
G01*
X135400000Y-130450000D01*
G75*
G02*
X135450000Y-130400000I50000J0D01*
G01*
X137950000Y-130400000D01*
G75*
G02*
X138000000Y-130450000I0J-50000D01*
G01*
G37*
G36*
G01*
X138000000Y-128450000D02*
X138000000Y-129550000D01*
G75*
G02*
X137950000Y-129600000I-50000J0D01*
G01*
X135450000Y-129600000D01*
G75*
G02*
X135400000Y-129550000I0J50000D01*
G01*
X135400000Y-128450000D01*
G75*
G02*
X135450000Y-128400000I50000J0D01*
G01*
X137950000Y-128400000D01*
G75*
G02*
X138000000Y-128450000I0J-50000D01*
G01*
G37*
G36*
G01*
X122600000Y-128450000D02*
X122600000Y-129550000D01*
G75*
G02*
X122550000Y-129600000I-50000J0D01*
G01*
X120050000Y-129600000D01*
G75*
G02*
X120000000Y-129550000I0J50000D01*
G01*
X120000000Y-128450000D01*
G75*
G02*
X120050000Y-128400000I50000J0D01*
G01*
X122550000Y-128400000D01*
G75*
G02*
X122600000Y-128450000I0J-50000D01*
G01*
G37*
G36*
G01*
X122600000Y-130450000D02*
X122600000Y-131550000D01*
G75*
G02*
X122550000Y-131600000I-50000J0D01*
G01*
X120050000Y-131600000D01*
G75*
G02*
X120000000Y-131550000I0J50000D01*
G01*
X120000000Y-130450000D01*
G75*
G02*
X120050000Y-130400000I50000J0D01*
G01*
X122550000Y-130400000D01*
G75*
G02*
X122600000Y-130450000I0J-50000D01*
G01*
G37*
G36*
G01*
X122600000Y-132450000D02*
X122600000Y-133550000D01*
G75*
G02*
X122550000Y-133600000I-50000J0D01*
G01*
X120050000Y-133600000D01*
G75*
G02*
X120000000Y-133550000I0J50000D01*
G01*
X120000000Y-132450000D01*
G75*
G02*
X120050000Y-132400000I50000J0D01*
G01*
X122550000Y-132400000D01*
G75*
G02*
X122600000Y-132450000I0J-50000D01*
G01*
G37*
G36*
G01*
X122600000Y-134450000D02*
X122600000Y-135550000D01*
G75*
G02*
X122550000Y-135600000I-50000J0D01*
G01*
X120050000Y-135600000D01*
G75*
G02*
X120000000Y-135550000I0J50000D01*
G01*
X120000000Y-134450000D01*
G75*
G02*
X120050000Y-134400000I50000J0D01*
G01*
X122550000Y-134400000D01*
G75*
G02*
X122600000Y-134450000I0J-50000D01*
G01*
G37*
G36*
G01*
X122600000Y-136450000D02*
X122600000Y-137550000D01*
G75*
G02*
X122550000Y-137600000I-50000J0D01*
G01*
X120050000Y-137600000D01*
G75*
G02*
X120000000Y-137550000I0J50000D01*
G01*
X120000000Y-136450000D01*
G75*
G02*
X120050000Y-136400000I50000J0D01*
G01*
X122550000Y-136400000D01*
G75*
G02*
X122600000Y-136450000I0J-50000D01*
G01*
G37*
G36*
G01*
X122600000Y-138450000D02*
X122600000Y-139550000D01*
G75*
G02*
X122550000Y-139600000I-50000J0D01*
G01*
X120050000Y-139600000D01*
G75*
G02*
X120000000Y-139550000I0J50000D01*
G01*
X120000000Y-138450000D01*
G75*
G02*
X120050000Y-138400000I50000J0D01*
G01*
X122550000Y-138400000D01*
G75*
G02*
X122600000Y-138450000I0J-50000D01*
G01*
G37*
G36*
G01*
X122600000Y-140450000D02*
X122600000Y-141550000D01*
G75*
G02*
X122550000Y-141600000I-50000J0D01*
G01*
X120050000Y-141600000D01*
G75*
G02*
X120000000Y-141550000I0J50000D01*
G01*
X120000000Y-140450000D01*
G75*
G02*
X120050000Y-140400000I50000J0D01*
G01*
X122550000Y-140400000D01*
G75*
G02*
X122600000Y-140450000I0J-50000D01*
G01*
G37*
G36*
G01*
X122600000Y-142450000D02*
X122600000Y-143550000D01*
G75*
G02*
X122550000Y-143600000I-50000J0D01*
G01*
X120050000Y-143600000D01*
G75*
G02*
X120000000Y-143550000I0J50000D01*
G01*
X120000000Y-142450000D01*
G75*
G02*
X120050000Y-142400000I50000J0D01*
G01*
X122550000Y-142400000D01*
G75*
G02*
X122600000Y-142450000I0J-50000D01*
G01*
G37*
G36*
G01*
X133460000Y-126000000D02*
X134560000Y-126000000D01*
G75*
G02*
X134610000Y-126050000I0J-50000D01*
G01*
X134610000Y-128550000D01*
G75*
G02*
X134560000Y-128600000I-50000J0D01*
G01*
X133460000Y-128600000D01*
G75*
G02*
X133410000Y-128550000I0J50000D01*
G01*
X133410000Y-126050000D01*
G75*
G02*
X133460000Y-126000000I50000J0D01*
G01*
G37*
G36*
G01*
X131460000Y-126000000D02*
X132560000Y-126000000D01*
G75*
G02*
X132610000Y-126050000I0J-50000D01*
G01*
X132610000Y-128550000D01*
G75*
G02*
X132560000Y-128600000I-50000J0D01*
G01*
X131460000Y-128600000D01*
G75*
G02*
X131410000Y-128550000I0J50000D01*
G01*
X131410000Y-126050000D01*
G75*
G02*
X131460000Y-126000000I50000J0D01*
G01*
G37*
G36*
G01*
X129460000Y-126000000D02*
X130560000Y-126000000D01*
G75*
G02*
X130610000Y-126050000I0J-50000D01*
G01*
X130610000Y-128550000D01*
G75*
G02*
X130560000Y-128600000I-50000J0D01*
G01*
X129460000Y-128600000D01*
G75*
G02*
X129410000Y-128550000I0J50000D01*
G01*
X129410000Y-126050000D01*
G75*
G02*
X129460000Y-126000000I50000J0D01*
G01*
G37*
G36*
G01*
X127460000Y-126000000D02*
X128560000Y-126000000D01*
G75*
G02*
X128610000Y-126050000I0J-50000D01*
G01*
X128610000Y-128550000D01*
G75*
G02*
X128560000Y-128600000I-50000J0D01*
G01*
X127460000Y-128600000D01*
G75*
G02*
X127410000Y-128550000I0J50000D01*
G01*
X127410000Y-126050000D01*
G75*
G02*
X127460000Y-126000000I50000J0D01*
G01*
G37*
G36*
G01*
X125460000Y-126000000D02*
X126560000Y-126000000D01*
G75*
G02*
X126610000Y-126050000I0J-50000D01*
G01*
X126610000Y-128550000D01*
G75*
G02*
X126560000Y-128600000I-50000J0D01*
G01*
X125460000Y-128600000D01*
G75*
G02*
X125410000Y-128550000I0J50000D01*
G01*
X125410000Y-126050000D01*
G75*
G02*
X125460000Y-126000000I50000J0D01*
G01*
G37*
G36*
G01*
X123460000Y-126000000D02*
X124560000Y-126000000D01*
G75*
G02*
X124610000Y-126050000I0J-50000D01*
G01*
X124610000Y-128550000D01*
G75*
G02*
X124560000Y-128600000I-50000J0D01*
G01*
X123460000Y-128600000D01*
G75*
G02*
X123410000Y-128550000I0J50000D01*
G01*
X123410000Y-126050000D01*
G75*
G02*
X123460000Y-126000000I50000J0D01*
G01*
G37*
%TD*%
D10*
%TO.C,TP1*%
X139500000Y-131000000D03*
%TD*%
%TO.C,TP2*%
X139500000Y-137000000D03*
%TD*%
%TO.C,TP3*%
X139500000Y-141000000D03*
%TD*%
D11*
%TO.C,BT1*%
X152190000Y-75460000D03*
X158540000Y-75460000D03*
X158540000Y-70380000D03*
X152190000Y-70380000D03*
%TD*%
%TO.C,C1*%
G36*
G01*
X126899000Y-105461000D02*
X126899000Y-106011000D01*
G75*
G02*
X126649000Y-106261000I-250000J0D01*
G01*
X126149000Y-106261000D01*
G75*
G02*
X125899000Y-106011000I0J250000D01*
G01*
X125899000Y-105461000D01*
G75*
G02*
X126149000Y-105211000I250000J0D01*
G01*
X126649000Y-105211000D01*
G75*
G02*
X126899000Y-105461000I0J-250000D01*
G01*
G37*
G36*
G01*
X125349000Y-105461000D02*
X125349000Y-106011000D01*
G75*
G02*
X125099000Y-106261000I-250000J0D01*
G01*
X124599000Y-106261000D01*
G75*
G02*
X124349000Y-106011000I0J250000D01*
G01*
X124349000Y-105461000D01*
G75*
G02*
X124599000Y-105211000I250000J0D01*
G01*
X125099000Y-105211000D01*
G75*
G02*
X125349000Y-105461000I0J-250000D01*
G01*
G37*
%TD*%
%TO.C,C2*%
G36*
G01*
X131953000Y-105461000D02*
X131953000Y-106011000D01*
G75*
G02*
X131703000Y-106261000I-250000J0D01*
G01*
X131203000Y-106261000D01*
G75*
G02*
X130953000Y-106011000I0J250000D01*
G01*
X130953000Y-105461000D01*
G75*
G02*
X131203000Y-105211000I250000J0D01*
G01*
X131703000Y-105211000D01*
G75*
G02*
X131953000Y-105461000I0J-250000D01*
G01*
G37*
G36*
G01*
X133503000Y-105461000D02*
X133503000Y-106011000D01*
G75*
G02*
X133253000Y-106261000I-250000J0D01*
G01*
X132753000Y-106261000D01*
G75*
G02*
X132503000Y-106011000I0J250000D01*
G01*
X132503000Y-105461000D01*
G75*
G02*
X132753000Y-105211000I250000J0D01*
G01*
X133253000Y-105211000D01*
G75*
G02*
X133503000Y-105461000I0J-250000D01*
G01*
G37*
%TD*%
%TO.C,C3*%
G36*
G01*
X158725000Y-137975000D02*
X159275000Y-137975000D01*
G75*
G02*
X159525000Y-138225000I0J-250000D01*
G01*
X159525000Y-138725000D01*
G75*
G02*
X159275000Y-138975000I-250000J0D01*
G01*
X158725000Y-138975000D01*
G75*
G02*
X158475000Y-138725000I0J250000D01*
G01*
X158475000Y-138225000D01*
G75*
G02*
X158725000Y-137975000I250000J0D01*
G01*
G37*
G36*
G01*
X158725000Y-139525000D02*
X159275000Y-139525000D01*
G75*
G02*
X159525000Y-139775000I0J-250000D01*
G01*
X159525000Y-140275000D01*
G75*
G02*
X159275000Y-140525000I-250000J0D01*
G01*
X158725000Y-140525000D01*
G75*
G02*
X158475000Y-140275000I0J250000D01*
G01*
X158475000Y-139775000D01*
G75*
G02*
X158725000Y-139525000I250000J0D01*
G01*
G37*
%TD*%
%TO.C,C4*%
G36*
G01*
X158725000Y-131525000D02*
X159275000Y-131525000D01*
G75*
G02*
X159525000Y-131775000I0J-250000D01*
G01*
X159525000Y-132275000D01*
G75*
G02*
X159275000Y-132525000I-250000J0D01*
G01*
X158725000Y-132525000D01*
G75*
G02*
X158475000Y-132275000I0J250000D01*
G01*
X158475000Y-131775000D01*
G75*
G02*
X158725000Y-131525000I250000J0D01*
G01*
G37*
G36*
G01*
X158725000Y-129975000D02*
X159275000Y-129975000D01*
G75*
G02*
X159525000Y-130225000I0J-250000D01*
G01*
X159525000Y-130725000D01*
G75*
G02*
X159275000Y-130975000I-250000J0D01*
G01*
X158725000Y-130975000D01*
G75*
G02*
X158475000Y-130725000I0J250000D01*
G01*
X158475000Y-130225000D01*
G75*
G02*
X158725000Y-129975000I250000J0D01*
G01*
G37*
%TD*%
%TO.C,C5*%
G36*
G01*
X158725000Y-123525000D02*
X159275000Y-123525000D01*
G75*
G02*
X159525000Y-123775000I0J-250000D01*
G01*
X159525000Y-124275000D01*
G75*
G02*
X159275000Y-124525000I-250000J0D01*
G01*
X158725000Y-124525000D01*
G75*
G02*
X158475000Y-124275000I0J250000D01*
G01*
X158475000Y-123775000D01*
G75*
G02*
X158725000Y-123525000I250000J0D01*
G01*
G37*
G36*
G01*
X158725000Y-121975000D02*
X159275000Y-121975000D01*
G75*
G02*
X159525000Y-122225000I0J-250000D01*
G01*
X159525000Y-122725000D01*
G75*
G02*
X159275000Y-122975000I-250000J0D01*
G01*
X158725000Y-122975000D01*
G75*
G02*
X158475000Y-122725000I0J250000D01*
G01*
X158475000Y-122225000D01*
G75*
G02*
X158725000Y-121975000I250000J0D01*
G01*
G37*
%TD*%
%TO.C,C6*%
G36*
G01*
X158725000Y-113975000D02*
X159275000Y-113975000D01*
G75*
G02*
X159525000Y-114225000I0J-250000D01*
G01*
X159525000Y-114725000D01*
G75*
G02*
X159275000Y-114975000I-250000J0D01*
G01*
X158725000Y-114975000D01*
G75*
G02*
X158475000Y-114725000I0J250000D01*
G01*
X158475000Y-114225000D01*
G75*
G02*
X158725000Y-113975000I250000J0D01*
G01*
G37*
G36*
G01*
X158725000Y-115525000D02*
X159275000Y-115525000D01*
G75*
G02*
X159525000Y-115775000I0J-250000D01*
G01*
X159525000Y-116275000D01*
G75*
G02*
X159275000Y-116525000I-250000J0D01*
G01*
X158725000Y-116525000D01*
G75*
G02*
X158475000Y-116275000I0J250000D01*
G01*
X158475000Y-115775000D01*
G75*
G02*
X158725000Y-115525000I250000J0D01*
G01*
G37*
%TD*%
%TO.C,C7*%
G36*
G01*
X158725000Y-107525000D02*
X159275000Y-107525000D01*
G75*
G02*
X159525000Y-107775000I0J-250000D01*
G01*
X159525000Y-108275000D01*
G75*
G02*
X159275000Y-108525000I-250000J0D01*
G01*
X158725000Y-108525000D01*
G75*
G02*
X158475000Y-108275000I0J250000D01*
G01*
X158475000Y-107775000D01*
G75*
G02*
X158725000Y-107525000I250000J0D01*
G01*
G37*
G36*
G01*
X158725000Y-105975000D02*
X159275000Y-105975000D01*
G75*
G02*
X159525000Y-106225000I0J-250000D01*
G01*
X159525000Y-106725000D01*
G75*
G02*
X159275000Y-106975000I-250000J0D01*
G01*
X158725000Y-106975000D01*
G75*
G02*
X158475000Y-106725000I0J250000D01*
G01*
X158475000Y-106225000D01*
G75*
G02*
X158725000Y-105975000I250000J0D01*
G01*
G37*
%TD*%
%TO.C,C8*%
G36*
G01*
X158725000Y-99525000D02*
X159275000Y-99525000D01*
G75*
G02*
X159525000Y-99775000I0J-250000D01*
G01*
X159525000Y-100275000D01*
G75*
G02*
X159275000Y-100525000I-250000J0D01*
G01*
X158725000Y-100525000D01*
G75*
G02*
X158475000Y-100275000I0J250000D01*
G01*
X158475000Y-99775000D01*
G75*
G02*
X158725000Y-99525000I250000J0D01*
G01*
G37*
G36*
G01*
X158725000Y-97975000D02*
X159275000Y-97975000D01*
G75*
G02*
X159525000Y-98225000I0J-250000D01*
G01*
X159525000Y-98725000D01*
G75*
G02*
X159275000Y-98975000I-250000J0D01*
G01*
X158725000Y-98975000D01*
G75*
G02*
X158475000Y-98725000I0J250000D01*
G01*
X158475000Y-98225000D01*
G75*
G02*
X158725000Y-97975000I250000J0D01*
G01*
G37*
%TD*%
%TO.C,C9*%
G36*
G01*
X158725000Y-89975000D02*
X159275000Y-89975000D01*
G75*
G02*
X159525000Y-90225000I0J-250000D01*
G01*
X159525000Y-90725000D01*
G75*
G02*
X159275000Y-90975000I-250000J0D01*
G01*
X158725000Y-90975000D01*
G75*
G02*
X158475000Y-90725000I0J250000D01*
G01*
X158475000Y-90225000D01*
G75*
G02*
X158725000Y-89975000I250000J0D01*
G01*
G37*
G36*
G01*
X158725000Y-91525000D02*
X159275000Y-91525000D01*
G75*
G02*
X159525000Y-91775000I0J-250000D01*
G01*
X159525000Y-92275000D01*
G75*
G02*
X159275000Y-92525000I-250000J0D01*
G01*
X158725000Y-92525000D01*
G75*
G02*
X158475000Y-92275000I0J250000D01*
G01*
X158475000Y-91775000D01*
G75*
G02*
X158725000Y-91525000I250000J0D01*
G01*
G37*
%TD*%
%TO.C,C10*%
G36*
G01*
X158725000Y-83525000D02*
X159275000Y-83525000D01*
G75*
G02*
X159525000Y-83775000I0J-250000D01*
G01*
X159525000Y-84275000D01*
G75*
G02*
X159275000Y-84525000I-250000J0D01*
G01*
X158725000Y-84525000D01*
G75*
G02*
X158475000Y-84275000I0J250000D01*
G01*
X158475000Y-83775000D01*
G75*
G02*
X158725000Y-83525000I250000J0D01*
G01*
G37*
G36*
G01*
X158725000Y-81975000D02*
X159275000Y-81975000D01*
G75*
G02*
X159525000Y-82225000I0J-250000D01*
G01*
X159525000Y-82725000D01*
G75*
G02*
X159275000Y-82975000I-250000J0D01*
G01*
X158725000Y-82975000D01*
G75*
G02*
X158475000Y-82725000I0J250000D01*
G01*
X158475000Y-82225000D01*
G75*
G02*
X158725000Y-81975000I250000J0D01*
G01*
G37*
%TD*%
%TO.C,C11*%
G36*
G01*
X98725000Y-138725000D02*
X99275000Y-138725000D01*
G75*
G02*
X99525000Y-138975000I0J-250000D01*
G01*
X99525000Y-139475000D01*
G75*
G02*
X99275000Y-139725000I-250000J0D01*
G01*
X98725000Y-139725000D01*
G75*
G02*
X98475000Y-139475000I0J250000D01*
G01*
X98475000Y-138975000D01*
G75*
G02*
X98725000Y-138725000I250000J0D01*
G01*
G37*
G36*
G01*
X98725000Y-140275000D02*
X99275000Y-140275000D01*
G75*
G02*
X99525000Y-140525000I0J-250000D01*
G01*
X99525000Y-141025000D01*
G75*
G02*
X99275000Y-141275000I-250000J0D01*
G01*
X98725000Y-141275000D01*
G75*
G02*
X98475000Y-141025000I0J250000D01*
G01*
X98475000Y-140525000D01*
G75*
G02*
X98725000Y-140275000I250000J0D01*
G01*
G37*
%TD*%
%TO.C,C12*%
G36*
G01*
X98725000Y-130725000D02*
X99275000Y-130725000D01*
G75*
G02*
X99525000Y-130975000I0J-250000D01*
G01*
X99525000Y-131475000D01*
G75*
G02*
X99275000Y-131725000I-250000J0D01*
G01*
X98725000Y-131725000D01*
G75*
G02*
X98475000Y-131475000I0J250000D01*
G01*
X98475000Y-130975000D01*
G75*
G02*
X98725000Y-130725000I250000J0D01*
G01*
G37*
G36*
G01*
X98725000Y-132275000D02*
X99275000Y-132275000D01*
G75*
G02*
X99525000Y-132525000I0J-250000D01*
G01*
X99525000Y-133025000D01*
G75*
G02*
X99275000Y-133275000I-250000J0D01*
G01*
X98725000Y-133275000D01*
G75*
G02*
X98475000Y-133025000I0J250000D01*
G01*
X98475000Y-132525000D01*
G75*
G02*
X98725000Y-132275000I250000J0D01*
G01*
G37*
%TD*%
%TO.C,C13*%
G36*
G01*
X98725000Y-122725000D02*
X99275000Y-122725000D01*
G75*
G02*
X99525000Y-122975000I0J-250000D01*
G01*
X99525000Y-123475000D01*
G75*
G02*
X99275000Y-123725000I-250000J0D01*
G01*
X98725000Y-123725000D01*
G75*
G02*
X98475000Y-123475000I0J250000D01*
G01*
X98475000Y-122975000D01*
G75*
G02*
X98725000Y-122725000I250000J0D01*
G01*
G37*
G36*
G01*
X98725000Y-124275000D02*
X99275000Y-124275000D01*
G75*
G02*
X99525000Y-124525000I0J-250000D01*
G01*
X99525000Y-125025000D01*
G75*
G02*
X99275000Y-125275000I-250000J0D01*
G01*
X98725000Y-125275000D01*
G75*
G02*
X98475000Y-125025000I0J250000D01*
G01*
X98475000Y-124525000D01*
G75*
G02*
X98725000Y-124275000I250000J0D01*
G01*
G37*
%TD*%
%TO.C,C14*%
G36*
G01*
X98725000Y-116275000D02*
X99275000Y-116275000D01*
G75*
G02*
X99525000Y-116525000I0J-250000D01*
G01*
X99525000Y-117025000D01*
G75*
G02*
X99275000Y-117275000I-250000J0D01*
G01*
X98725000Y-117275000D01*
G75*
G02*
X98475000Y-117025000I0J250000D01*
G01*
X98475000Y-116525000D01*
G75*
G02*
X98725000Y-116275000I250000J0D01*
G01*
G37*
G36*
G01*
X98725000Y-114725000D02*
X99275000Y-114725000D01*
G75*
G02*
X99525000Y-114975000I0J-250000D01*
G01*
X99525000Y-115475000D01*
G75*
G02*
X99275000Y-115725000I-250000J0D01*
G01*
X98725000Y-115725000D01*
G75*
G02*
X98475000Y-115475000I0J250000D01*
G01*
X98475000Y-114975000D01*
G75*
G02*
X98725000Y-114725000I250000J0D01*
G01*
G37*
%TD*%
%TO.C,C15*%
G36*
G01*
X98475000Y-106700000D02*
X99025000Y-106700000D01*
G75*
G02*
X99275000Y-106950000I0J-250000D01*
G01*
X99275000Y-107450000D01*
G75*
G02*
X99025000Y-107700000I-250000J0D01*
G01*
X98475000Y-107700000D01*
G75*
G02*
X98225000Y-107450000I0J250000D01*
G01*
X98225000Y-106950000D01*
G75*
G02*
X98475000Y-106700000I250000J0D01*
G01*
G37*
G36*
G01*
X98475000Y-108250000D02*
X99025000Y-108250000D01*
G75*
G02*
X99275000Y-108500000I0J-250000D01*
G01*
X99275000Y-109000000D01*
G75*
G02*
X99025000Y-109250000I-250000J0D01*
G01*
X98475000Y-109250000D01*
G75*
G02*
X98225000Y-109000000I0J250000D01*
G01*
X98225000Y-108500000D01*
G75*
G02*
X98475000Y-108250000I250000J0D01*
G01*
G37*
%TD*%
%TO.C,C16*%
G36*
G01*
X98475000Y-96250000D02*
X99025000Y-96250000D01*
G75*
G02*
X99275000Y-96500000I0J-250000D01*
G01*
X99275000Y-97000000D01*
G75*
G02*
X99025000Y-97250000I-250000J0D01*
G01*
X98475000Y-97250000D01*
G75*
G02*
X98225000Y-97000000I0J250000D01*
G01*
X98225000Y-96500000D01*
G75*
G02*
X98475000Y-96250000I250000J0D01*
G01*
G37*
G36*
G01*
X98475000Y-94700000D02*
X99025000Y-94700000D01*
G75*
G02*
X99275000Y-94950000I0J-250000D01*
G01*
X99275000Y-95450000D01*
G75*
G02*
X99025000Y-95700000I-250000J0D01*
G01*
X98475000Y-95700000D01*
G75*
G02*
X98225000Y-95450000I0J250000D01*
G01*
X98225000Y-94950000D01*
G75*
G02*
X98475000Y-94700000I250000J0D01*
G01*
G37*
%TD*%
%TO.C,C17*%
G36*
G01*
X120725000Y-124775000D02*
X121275000Y-124775000D01*
G75*
G02*
X121525000Y-125025000I0J-250000D01*
G01*
X121525000Y-125525000D01*
G75*
G02*
X121275000Y-125775000I-250000J0D01*
G01*
X120725000Y-125775000D01*
G75*
G02*
X120475000Y-125525000I0J250000D01*
G01*
X120475000Y-125025000D01*
G75*
G02*
X120725000Y-124775000I250000J0D01*
G01*
G37*
G36*
G01*
X120725000Y-123225000D02*
X121275000Y-123225000D01*
G75*
G02*
X121525000Y-123475000I0J-250000D01*
G01*
X121525000Y-123975000D01*
G75*
G02*
X121275000Y-124225000I-250000J0D01*
G01*
X120725000Y-124225000D01*
G75*
G02*
X120475000Y-123975000I0J250000D01*
G01*
X120475000Y-123475000D01*
G75*
G02*
X120725000Y-123225000I250000J0D01*
G01*
G37*
%TD*%
%TO.C,C18*%
G36*
G01*
X147675000Y-91925000D02*
X147675000Y-92475000D01*
G75*
G02*
X147425000Y-92725000I-250000J0D01*
G01*
X146925000Y-92725000D01*
G75*
G02*
X146675000Y-92475000I0J250000D01*
G01*
X146675000Y-91925000D01*
G75*
G02*
X146925000Y-91675000I250000J0D01*
G01*
X147425000Y-91675000D01*
G75*
G02*
X147675000Y-91925000I0J-250000D01*
G01*
G37*
G36*
G01*
X146125000Y-91925000D02*
X146125000Y-92475000D01*
G75*
G02*
X145875000Y-92725000I-250000J0D01*
G01*
X145375000Y-92725000D01*
G75*
G02*
X145125000Y-92475000I0J250000D01*
G01*
X145125000Y-91925000D01*
G75*
G02*
X145375000Y-91675000I250000J0D01*
G01*
X145875000Y-91675000D01*
G75*
G02*
X146125000Y-91925000I0J-250000D01*
G01*
G37*
%TD*%
%TO.C,C19*%
G36*
G01*
X141100000Y-92475000D02*
X141100000Y-91925000D01*
G75*
G02*
X141350000Y-91675000I250000J0D01*
G01*
X141850000Y-91675000D01*
G75*
G02*
X142100000Y-91925000I0J-250000D01*
G01*
X142100000Y-92475000D01*
G75*
G02*
X141850000Y-92725000I-250000J0D01*
G01*
X141350000Y-92725000D01*
G75*
G02*
X141100000Y-92475000I0J250000D01*
G01*
G37*
G36*
G01*
X142650000Y-92475000D02*
X142650000Y-91925000D01*
G75*
G02*
X142900000Y-91675000I250000J0D01*
G01*
X143400000Y-91675000D01*
G75*
G02*
X143650000Y-91925000I0J-250000D01*
G01*
X143650000Y-92475000D01*
G75*
G02*
X143400000Y-92725000I-250000J0D01*
G01*
X142900000Y-92725000D01*
G75*
G02*
X142650000Y-92475000I0J250000D01*
G01*
G37*
%TD*%
%TO.C,D1*%
G36*
G01*
X126672000Y-108542000D02*
X127672000Y-108542000D01*
G75*
G02*
X127722000Y-108592000I0J-50000D01*
G01*
X127722000Y-110092000D01*
G75*
G02*
X127672000Y-110142000I-50000J0D01*
G01*
X126672000Y-110142000D01*
G75*
G02*
X126622000Y-110092000I0J50000D01*
G01*
X126622000Y-108592000D01*
G75*
G02*
X126672000Y-108542000I50000J0D01*
G01*
G37*
G36*
G01*
X123472000Y-108542000D02*
X124472000Y-108542000D01*
G75*
G02*
X124522000Y-108592000I0J-50000D01*
G01*
X124522000Y-110092000D01*
G75*
G02*
X124472000Y-110142000I-50000J0D01*
G01*
X123472000Y-110142000D01*
G75*
G02*
X123422000Y-110092000I0J50000D01*
G01*
X123422000Y-108592000D01*
G75*
G02*
X123472000Y-108542000I50000J0D01*
G01*
G37*
G36*
G01*
X126672000Y-113442000D02*
X127672000Y-113442000D01*
G75*
G02*
X127722000Y-113492000I0J-50000D01*
G01*
X127722000Y-114992000D01*
G75*
G02*
X127672000Y-115042000I-50000J0D01*
G01*
X126672000Y-115042000D01*
G75*
G02*
X126622000Y-114992000I0J50000D01*
G01*
X126622000Y-113492000D01*
G75*
G02*
X126672000Y-113442000I50000J0D01*
G01*
G37*
G36*
G01*
X123472000Y-113442000D02*
X124472000Y-113442000D01*
G75*
G02*
X124522000Y-113492000I0J-50000D01*
G01*
X124522000Y-114992000D01*
G75*
G02*
X124472000Y-115042000I-50000J0D01*
G01*
X123472000Y-115042000D01*
G75*
G02*
X123422000Y-114992000I0J50000D01*
G01*
X123422000Y-113492000D01*
G75*
G02*
X123472000Y-113442000I50000J0D01*
G01*
G37*
%TD*%
%TO.C,D2*%
G36*
G01*
X130228000Y-113442000D02*
X131228000Y-113442000D01*
G75*
G02*
X131278000Y-113492000I0J-50000D01*
G01*
X131278000Y-114992000D01*
G75*
G02*
X131228000Y-115042000I-50000J0D01*
G01*
X130228000Y-115042000D01*
G75*
G02*
X130178000Y-114992000I0J50000D01*
G01*
X130178000Y-113492000D01*
G75*
G02*
X130228000Y-113442000I50000J0D01*
G01*
G37*
G36*
G01*
X133428000Y-113442000D02*
X134428000Y-113442000D01*
G75*
G02*
X134478000Y-113492000I0J-50000D01*
G01*
X134478000Y-114992000D01*
G75*
G02*
X134428000Y-115042000I-50000J0D01*
G01*
X133428000Y-115042000D01*
G75*
G02*
X133378000Y-114992000I0J50000D01*
G01*
X133378000Y-113492000D01*
G75*
G02*
X133428000Y-113442000I50000J0D01*
G01*
G37*
G36*
G01*
X130228000Y-108542000D02*
X131228000Y-108542000D01*
G75*
G02*
X131278000Y-108592000I0J-50000D01*
G01*
X131278000Y-110092000D01*
G75*
G02*
X131228000Y-110142000I-50000J0D01*
G01*
X130228000Y-110142000D01*
G75*
G02*
X130178000Y-110092000I0J50000D01*
G01*
X130178000Y-108592000D01*
G75*
G02*
X130228000Y-108542000I50000J0D01*
G01*
G37*
G36*
G01*
X133428000Y-108542000D02*
X134428000Y-108542000D01*
G75*
G02*
X134478000Y-108592000I0J-50000D01*
G01*
X134478000Y-110092000D01*
G75*
G02*
X134428000Y-110142000I-50000J0D01*
G01*
X133428000Y-110142000D01*
G75*
G02*
X133378000Y-110092000I0J50000D01*
G01*
X133378000Y-108592000D01*
G75*
G02*
X133428000Y-108542000I50000J0D01*
G01*
G37*
%TD*%
%TO.C,D3*%
G36*
G01*
X155934000Y-136966000D02*
X156934000Y-136966000D01*
G75*
G02*
X156984000Y-137016000I0J-50000D01*
G01*
X156984000Y-138516000D01*
G75*
G02*
X156934000Y-138566000I-50000J0D01*
G01*
X155934000Y-138566000D01*
G75*
G02*
X155884000Y-138516000I0J50000D01*
G01*
X155884000Y-137016000D01*
G75*
G02*
X155934000Y-136966000I50000J0D01*
G01*
G37*
G36*
G01*
X152734000Y-136966000D02*
X153734000Y-136966000D01*
G75*
G02*
X153784000Y-137016000I0J-50000D01*
G01*
X153784000Y-138516000D01*
G75*
G02*
X153734000Y-138566000I-50000J0D01*
G01*
X152734000Y-138566000D01*
G75*
G02*
X152684000Y-138516000I0J50000D01*
G01*
X152684000Y-137016000D01*
G75*
G02*
X152734000Y-136966000I50000J0D01*
G01*
G37*
G36*
G01*
X155934000Y-141866000D02*
X156934000Y-141866000D01*
G75*
G02*
X156984000Y-141916000I0J-50000D01*
G01*
X156984000Y-143416000D01*
G75*
G02*
X156934000Y-143466000I-50000J0D01*
G01*
X155934000Y-143466000D01*
G75*
G02*
X155884000Y-143416000I0J50000D01*
G01*
X155884000Y-141916000D01*
G75*
G02*
X155934000Y-141866000I50000J0D01*
G01*
G37*
G36*
G01*
X152734000Y-141866000D02*
X153734000Y-141866000D01*
G75*
G02*
X153784000Y-141916000I0J-50000D01*
G01*
X153784000Y-143416000D01*
G75*
G02*
X153734000Y-143466000I-50000J0D01*
G01*
X152734000Y-143466000D01*
G75*
G02*
X152684000Y-143416000I0J50000D01*
G01*
X152684000Y-141916000D01*
G75*
G02*
X152734000Y-141866000I50000J0D01*
G01*
G37*
%TD*%
%TO.C,D4*%
G36*
G01*
X152734000Y-133738000D02*
X153734000Y-133738000D01*
G75*
G02*
X153784000Y-133788000I0J-50000D01*
G01*
X153784000Y-135288000D01*
G75*
G02*
X153734000Y-135338000I-50000J0D01*
G01*
X152734000Y-135338000D01*
G75*
G02*
X152684000Y-135288000I0J50000D01*
G01*
X152684000Y-133788000D01*
G75*
G02*
X152734000Y-133738000I50000J0D01*
G01*
G37*
G36*
G01*
X155934000Y-133738000D02*
X156934000Y-133738000D01*
G75*
G02*
X156984000Y-133788000I0J-50000D01*
G01*
X156984000Y-135288000D01*
G75*
G02*
X156934000Y-135338000I-50000J0D01*
G01*
X155934000Y-135338000D01*
G75*
G02*
X155884000Y-135288000I0J50000D01*
G01*
X155884000Y-133788000D01*
G75*
G02*
X155934000Y-133738000I50000J0D01*
G01*
G37*
G36*
G01*
X152734000Y-128838000D02*
X153734000Y-128838000D01*
G75*
G02*
X153784000Y-128888000I0J-50000D01*
G01*
X153784000Y-130388000D01*
G75*
G02*
X153734000Y-130438000I-50000J0D01*
G01*
X152734000Y-130438000D01*
G75*
G02*
X152684000Y-130388000I0J50000D01*
G01*
X152684000Y-128888000D01*
G75*
G02*
X152734000Y-128838000I50000J0D01*
G01*
G37*
G36*
G01*
X155934000Y-128838000D02*
X156934000Y-128838000D01*
G75*
G02*
X156984000Y-128888000I0J-50000D01*
G01*
X156984000Y-130388000D01*
G75*
G02*
X156934000Y-130438000I-50000J0D01*
G01*
X155934000Y-130438000D01*
G75*
G02*
X155884000Y-130388000I0J50000D01*
G01*
X155884000Y-128888000D01*
G75*
G02*
X155934000Y-128838000I50000J0D01*
G01*
G37*
%TD*%
%TO.C,D5*%
G36*
G01*
X152734000Y-125610000D02*
X153734000Y-125610000D01*
G75*
G02*
X153784000Y-125660000I0J-50000D01*
G01*
X153784000Y-127160000D01*
G75*
G02*
X153734000Y-127210000I-50000J0D01*
G01*
X152734000Y-127210000D01*
G75*
G02*
X152684000Y-127160000I0J50000D01*
G01*
X152684000Y-125660000D01*
G75*
G02*
X152734000Y-125610000I50000J0D01*
G01*
G37*
G36*
G01*
X155934000Y-125610000D02*
X156934000Y-125610000D01*
G75*
G02*
X156984000Y-125660000I0J-50000D01*
G01*
X156984000Y-127160000D01*
G75*
G02*
X156934000Y-127210000I-50000J0D01*
G01*
X155934000Y-127210000D01*
G75*
G02*
X155884000Y-127160000I0J50000D01*
G01*
X155884000Y-125660000D01*
G75*
G02*
X155934000Y-125610000I50000J0D01*
G01*
G37*
G36*
G01*
X152734000Y-120710000D02*
X153734000Y-120710000D01*
G75*
G02*
X153784000Y-120760000I0J-50000D01*
G01*
X153784000Y-122260000D01*
G75*
G02*
X153734000Y-122310000I-50000J0D01*
G01*
X152734000Y-122310000D01*
G75*
G02*
X152684000Y-122260000I0J50000D01*
G01*
X152684000Y-120760000D01*
G75*
G02*
X152734000Y-120710000I50000J0D01*
G01*
G37*
G36*
G01*
X155934000Y-120710000D02*
X156934000Y-120710000D01*
G75*
G02*
X156984000Y-120760000I0J-50000D01*
G01*
X156984000Y-122260000D01*
G75*
G02*
X156934000Y-122310000I-50000J0D01*
G01*
X155934000Y-122310000D01*
G75*
G02*
X155884000Y-122260000I0J50000D01*
G01*
X155884000Y-120760000D01*
G75*
G02*
X155934000Y-120710000I50000J0D01*
G01*
G37*
%TD*%
%TO.C,D6*%
G36*
G01*
X155934000Y-112582000D02*
X156934000Y-112582000D01*
G75*
G02*
X156984000Y-112632000I0J-50000D01*
G01*
X156984000Y-114132000D01*
G75*
G02*
X156934000Y-114182000I-50000J0D01*
G01*
X155934000Y-114182000D01*
G75*
G02*
X155884000Y-114132000I0J50000D01*
G01*
X155884000Y-112632000D01*
G75*
G02*
X155934000Y-112582000I50000J0D01*
G01*
G37*
G36*
G01*
X152734000Y-112582000D02*
X153734000Y-112582000D01*
G75*
G02*
X153784000Y-112632000I0J-50000D01*
G01*
X153784000Y-114132000D01*
G75*
G02*
X153734000Y-114182000I-50000J0D01*
G01*
X152734000Y-114182000D01*
G75*
G02*
X152684000Y-114132000I0J50000D01*
G01*
X152684000Y-112632000D01*
G75*
G02*
X152734000Y-112582000I50000J0D01*
G01*
G37*
G36*
G01*
X155934000Y-117482000D02*
X156934000Y-117482000D01*
G75*
G02*
X156984000Y-117532000I0J-50000D01*
G01*
X156984000Y-119032000D01*
G75*
G02*
X156934000Y-119082000I-50000J0D01*
G01*
X155934000Y-119082000D01*
G75*
G02*
X155884000Y-119032000I0J50000D01*
G01*
X155884000Y-117532000D01*
G75*
G02*
X155934000Y-117482000I50000J0D01*
G01*
G37*
G36*
G01*
X152734000Y-117482000D02*
X153734000Y-117482000D01*
G75*
G02*
X153784000Y-117532000I0J-50000D01*
G01*
X153784000Y-119032000D01*
G75*
G02*
X153734000Y-119082000I-50000J0D01*
G01*
X152734000Y-119082000D01*
G75*
G02*
X152684000Y-119032000I0J50000D01*
G01*
X152684000Y-117532000D01*
G75*
G02*
X152734000Y-117482000I50000J0D01*
G01*
G37*
%TD*%
%TO.C,D7*%
G36*
G01*
X152734000Y-109354000D02*
X153734000Y-109354000D01*
G75*
G02*
X153784000Y-109404000I0J-50000D01*
G01*
X153784000Y-110904000D01*
G75*
G02*
X153734000Y-110954000I-50000J0D01*
G01*
X152734000Y-110954000D01*
G75*
G02*
X152684000Y-110904000I0J50000D01*
G01*
X152684000Y-109404000D01*
G75*
G02*
X152734000Y-109354000I50000J0D01*
G01*
G37*
G36*
G01*
X155934000Y-109354000D02*
X156934000Y-109354000D01*
G75*
G02*
X156984000Y-109404000I0J-50000D01*
G01*
X156984000Y-110904000D01*
G75*
G02*
X156934000Y-110954000I-50000J0D01*
G01*
X155934000Y-110954000D01*
G75*
G02*
X155884000Y-110904000I0J50000D01*
G01*
X155884000Y-109404000D01*
G75*
G02*
X155934000Y-109354000I50000J0D01*
G01*
G37*
G36*
G01*
X152734000Y-104454000D02*
X153734000Y-104454000D01*
G75*
G02*
X153784000Y-104504000I0J-50000D01*
G01*
X153784000Y-106004000D01*
G75*
G02*
X153734000Y-106054000I-50000J0D01*
G01*
X152734000Y-106054000D01*
G75*
G02*
X152684000Y-106004000I0J50000D01*
G01*
X152684000Y-104504000D01*
G75*
G02*
X152734000Y-104454000I50000J0D01*
G01*
G37*
G36*
G01*
X155934000Y-104454000D02*
X156934000Y-104454000D01*
G75*
G02*
X156984000Y-104504000I0J-50000D01*
G01*
X156984000Y-106004000D01*
G75*
G02*
X156934000Y-106054000I-50000J0D01*
G01*
X155934000Y-106054000D01*
G75*
G02*
X155884000Y-106004000I0J50000D01*
G01*
X155884000Y-104504000D01*
G75*
G02*
X155934000Y-104454000I50000J0D01*
G01*
G37*
%TD*%
%TO.C,D8*%
G36*
G01*
X155934000Y-96326000D02*
X156934000Y-96326000D01*
G75*
G02*
X156984000Y-96376000I0J-50000D01*
G01*
X156984000Y-97876000D01*
G75*
G02*
X156934000Y-97926000I-50000J0D01*
G01*
X155934000Y-97926000D01*
G75*
G02*
X155884000Y-97876000I0J50000D01*
G01*
X155884000Y-96376000D01*
G75*
G02*
X155934000Y-96326000I50000J0D01*
G01*
G37*
G36*
G01*
X152734000Y-96326000D02*
X153734000Y-96326000D01*
G75*
G02*
X153784000Y-96376000I0J-50000D01*
G01*
X153784000Y-97876000D01*
G75*
G02*
X153734000Y-97926000I-50000J0D01*
G01*
X152734000Y-97926000D01*
G75*
G02*
X152684000Y-97876000I0J50000D01*
G01*
X152684000Y-96376000D01*
G75*
G02*
X152734000Y-96326000I50000J0D01*
G01*
G37*
G36*
G01*
X155934000Y-101226000D02*
X156934000Y-101226000D01*
G75*
G02*
X156984000Y-101276000I0J-50000D01*
G01*
X156984000Y-102776000D01*
G75*
G02*
X156934000Y-102826000I-50000J0D01*
G01*
X155934000Y-102826000D01*
G75*
G02*
X155884000Y-102776000I0J50000D01*
G01*
X155884000Y-101276000D01*
G75*
G02*
X155934000Y-101226000I50000J0D01*
G01*
G37*
G36*
G01*
X152734000Y-101226000D02*
X153734000Y-101226000D01*
G75*
G02*
X153784000Y-101276000I0J-50000D01*
G01*
X153784000Y-102776000D01*
G75*
G02*
X153734000Y-102826000I-50000J0D01*
G01*
X152734000Y-102826000D01*
G75*
G02*
X152684000Y-102776000I0J50000D01*
G01*
X152684000Y-101276000D01*
G75*
G02*
X152734000Y-101226000I50000J0D01*
G01*
G37*
%TD*%
%TO.C,D9*%
G36*
G01*
X152734000Y-93098000D02*
X153734000Y-93098000D01*
G75*
G02*
X153784000Y-93148000I0J-50000D01*
G01*
X153784000Y-94648000D01*
G75*
G02*
X153734000Y-94698000I-50000J0D01*
G01*
X152734000Y-94698000D01*
G75*
G02*
X152684000Y-94648000I0J50000D01*
G01*
X152684000Y-93148000D01*
G75*
G02*
X152734000Y-93098000I50000J0D01*
G01*
G37*
G36*
G01*
X155934000Y-93098000D02*
X156934000Y-93098000D01*
G75*
G02*
X156984000Y-93148000I0J-50000D01*
G01*
X156984000Y-94648000D01*
G75*
G02*
X156934000Y-94698000I-50000J0D01*
G01*
X155934000Y-94698000D01*
G75*
G02*
X155884000Y-94648000I0J50000D01*
G01*
X155884000Y-93148000D01*
G75*
G02*
X155934000Y-93098000I50000J0D01*
G01*
G37*
G36*
G01*
X152734000Y-88198000D02*
X153734000Y-88198000D01*
G75*
G02*
X153784000Y-88248000I0J-50000D01*
G01*
X153784000Y-89748000D01*
G75*
G02*
X153734000Y-89798000I-50000J0D01*
G01*
X152734000Y-89798000D01*
G75*
G02*
X152684000Y-89748000I0J50000D01*
G01*
X152684000Y-88248000D01*
G75*
G02*
X152734000Y-88198000I50000J0D01*
G01*
G37*
G36*
G01*
X155934000Y-88198000D02*
X156934000Y-88198000D01*
G75*
G02*
X156984000Y-88248000I0J-50000D01*
G01*
X156984000Y-89748000D01*
G75*
G02*
X156934000Y-89798000I-50000J0D01*
G01*
X155934000Y-89798000D01*
G75*
G02*
X155884000Y-89748000I0J50000D01*
G01*
X155884000Y-88248000D01*
G75*
G02*
X155934000Y-88198000I50000J0D01*
G01*
G37*
%TD*%
%TO.C,D10*%
G36*
G01*
X155934000Y-80070000D02*
X156934000Y-80070000D01*
G75*
G02*
X156984000Y-80120000I0J-50000D01*
G01*
X156984000Y-81620000D01*
G75*
G02*
X156934000Y-81670000I-50000J0D01*
G01*
X155934000Y-81670000D01*
G75*
G02*
X155884000Y-81620000I0J50000D01*
G01*
X155884000Y-80120000D01*
G75*
G02*
X155934000Y-80070000I50000J0D01*
G01*
G37*
G36*
G01*
X152734000Y-80070000D02*
X153734000Y-80070000D01*
G75*
G02*
X153784000Y-80120000I0J-50000D01*
G01*
X153784000Y-81620000D01*
G75*
G02*
X153734000Y-81670000I-50000J0D01*
G01*
X152734000Y-81670000D01*
G75*
G02*
X152684000Y-81620000I0J50000D01*
G01*
X152684000Y-80120000D01*
G75*
G02*
X152734000Y-80070000I50000J0D01*
G01*
G37*
G36*
G01*
X155934000Y-84970000D02*
X156934000Y-84970000D01*
G75*
G02*
X156984000Y-85020000I0J-50000D01*
G01*
X156984000Y-86520000D01*
G75*
G02*
X156934000Y-86570000I-50000J0D01*
G01*
X155934000Y-86570000D01*
G75*
G02*
X155884000Y-86520000I0J50000D01*
G01*
X155884000Y-85020000D01*
G75*
G02*
X155934000Y-84970000I50000J0D01*
G01*
G37*
G36*
G01*
X152734000Y-84970000D02*
X153734000Y-84970000D01*
G75*
G02*
X153784000Y-85020000I0J-50000D01*
G01*
X153784000Y-86520000D01*
G75*
G02*
X153734000Y-86570000I-50000J0D01*
G01*
X152734000Y-86570000D01*
G75*
G02*
X152684000Y-86520000I0J50000D01*
G01*
X152684000Y-85020000D01*
G75*
G02*
X152734000Y-84970000I50000J0D01*
G01*
G37*
%TD*%
%TO.C,D11*%
G36*
G01*
X101212000Y-141866000D02*
X102212000Y-141866000D01*
G75*
G02*
X102262000Y-141916000I0J-50000D01*
G01*
X102262000Y-143416000D01*
G75*
G02*
X102212000Y-143466000I-50000J0D01*
G01*
X101212000Y-143466000D01*
G75*
G02*
X101162000Y-143416000I0J50000D01*
G01*
X101162000Y-141916000D01*
G75*
G02*
X101212000Y-141866000I50000J0D01*
G01*
G37*
G36*
G01*
X104412000Y-141866000D02*
X105412000Y-141866000D01*
G75*
G02*
X105462000Y-141916000I0J-50000D01*
G01*
X105462000Y-143416000D01*
G75*
G02*
X105412000Y-143466000I-50000J0D01*
G01*
X104412000Y-143466000D01*
G75*
G02*
X104362000Y-143416000I0J50000D01*
G01*
X104362000Y-141916000D01*
G75*
G02*
X104412000Y-141866000I50000J0D01*
G01*
G37*
G36*
G01*
X101212000Y-136966000D02*
X102212000Y-136966000D01*
G75*
G02*
X102262000Y-137016000I0J-50000D01*
G01*
X102262000Y-138516000D01*
G75*
G02*
X102212000Y-138566000I-50000J0D01*
G01*
X101212000Y-138566000D01*
G75*
G02*
X101162000Y-138516000I0J50000D01*
G01*
X101162000Y-137016000D01*
G75*
G02*
X101212000Y-136966000I50000J0D01*
G01*
G37*
G36*
G01*
X104412000Y-136966000D02*
X105412000Y-136966000D01*
G75*
G02*
X105462000Y-137016000I0J-50000D01*
G01*
X105462000Y-138516000D01*
G75*
G02*
X105412000Y-138566000I-50000J0D01*
G01*
X104412000Y-138566000D01*
G75*
G02*
X104362000Y-138516000I0J50000D01*
G01*
X104362000Y-137016000D01*
G75*
G02*
X104412000Y-136966000I50000J0D01*
G01*
G37*
%TD*%
%TO.C,D12*%
G36*
G01*
X104412000Y-128848000D02*
X105412000Y-128848000D01*
G75*
G02*
X105462000Y-128898000I0J-50000D01*
G01*
X105462000Y-130398000D01*
G75*
G02*
X105412000Y-130448000I-50000J0D01*
G01*
X104412000Y-130448000D01*
G75*
G02*
X104362000Y-130398000I0J50000D01*
G01*
X104362000Y-128898000D01*
G75*
G02*
X104412000Y-128848000I50000J0D01*
G01*
G37*
G36*
G01*
X101212000Y-128848000D02*
X102212000Y-128848000D01*
G75*
G02*
X102262000Y-128898000I0J-50000D01*
G01*
X102262000Y-130398000D01*
G75*
G02*
X102212000Y-130448000I-50000J0D01*
G01*
X101212000Y-130448000D01*
G75*
G02*
X101162000Y-130398000I0J50000D01*
G01*
X101162000Y-128898000D01*
G75*
G02*
X101212000Y-128848000I50000J0D01*
G01*
G37*
G36*
G01*
X104412000Y-133748000D02*
X105412000Y-133748000D01*
G75*
G02*
X105462000Y-133798000I0J-50000D01*
G01*
X105462000Y-135298000D01*
G75*
G02*
X105412000Y-135348000I-50000J0D01*
G01*
X104412000Y-135348000D01*
G75*
G02*
X104362000Y-135298000I0J50000D01*
G01*
X104362000Y-133798000D01*
G75*
G02*
X104412000Y-133748000I50000J0D01*
G01*
G37*
G36*
G01*
X101212000Y-133748000D02*
X102212000Y-133748000D01*
G75*
G02*
X102262000Y-133798000I0J-50000D01*
G01*
X102262000Y-135298000D01*
G75*
G02*
X102212000Y-135348000I-50000J0D01*
G01*
X101212000Y-135348000D01*
G75*
G02*
X101162000Y-135298000I0J50000D01*
G01*
X101162000Y-133798000D01*
G75*
G02*
X101212000Y-133748000I50000J0D01*
G01*
G37*
%TD*%
%TO.C,D13*%
G36*
G01*
X101212000Y-125630000D02*
X102212000Y-125630000D01*
G75*
G02*
X102262000Y-125680000I0J-50000D01*
G01*
X102262000Y-127180000D01*
G75*
G02*
X102212000Y-127230000I-50000J0D01*
G01*
X101212000Y-127230000D01*
G75*
G02*
X101162000Y-127180000I0J50000D01*
G01*
X101162000Y-125680000D01*
G75*
G02*
X101212000Y-125630000I50000J0D01*
G01*
G37*
G36*
G01*
X104412000Y-125630000D02*
X105412000Y-125630000D01*
G75*
G02*
X105462000Y-125680000I0J-50000D01*
G01*
X105462000Y-127180000D01*
G75*
G02*
X105412000Y-127230000I-50000J0D01*
G01*
X104412000Y-127230000D01*
G75*
G02*
X104362000Y-127180000I0J50000D01*
G01*
X104362000Y-125680000D01*
G75*
G02*
X104412000Y-125630000I50000J0D01*
G01*
G37*
G36*
G01*
X101212000Y-120730000D02*
X102212000Y-120730000D01*
G75*
G02*
X102262000Y-120780000I0J-50000D01*
G01*
X102262000Y-122280000D01*
G75*
G02*
X102212000Y-122330000I-50000J0D01*
G01*
X101212000Y-122330000D01*
G75*
G02*
X101162000Y-122280000I0J50000D01*
G01*
X101162000Y-120780000D01*
G75*
G02*
X101212000Y-120730000I50000J0D01*
G01*
G37*
G36*
G01*
X104412000Y-120730000D02*
X105412000Y-120730000D01*
G75*
G02*
X105462000Y-120780000I0J-50000D01*
G01*
X105462000Y-122280000D01*
G75*
G02*
X105412000Y-122330000I-50000J0D01*
G01*
X104412000Y-122330000D01*
G75*
G02*
X104362000Y-122280000I0J50000D01*
G01*
X104362000Y-120780000D01*
G75*
G02*
X104412000Y-120730000I50000J0D01*
G01*
G37*
%TD*%
%TO.C,D14*%
G36*
G01*
X104412000Y-112612000D02*
X105412000Y-112612000D01*
G75*
G02*
X105462000Y-112662000I0J-50000D01*
G01*
X105462000Y-114162000D01*
G75*
G02*
X105412000Y-114212000I-50000J0D01*
G01*
X104412000Y-114212000D01*
G75*
G02*
X104362000Y-114162000I0J50000D01*
G01*
X104362000Y-112662000D01*
G75*
G02*
X104412000Y-112612000I50000J0D01*
G01*
G37*
G36*
G01*
X101212000Y-112612000D02*
X102212000Y-112612000D01*
G75*
G02*
X102262000Y-112662000I0J-50000D01*
G01*
X102262000Y-114162000D01*
G75*
G02*
X102212000Y-114212000I-50000J0D01*
G01*
X101212000Y-114212000D01*
G75*
G02*
X101162000Y-114162000I0J50000D01*
G01*
X101162000Y-112662000D01*
G75*
G02*
X101212000Y-112612000I50000J0D01*
G01*
G37*
G36*
G01*
X104412000Y-117512000D02*
X105412000Y-117512000D01*
G75*
G02*
X105462000Y-117562000I0J-50000D01*
G01*
X105462000Y-119062000D01*
G75*
G02*
X105412000Y-119112000I-50000J0D01*
G01*
X104412000Y-119112000D01*
G75*
G02*
X104362000Y-119062000I0J50000D01*
G01*
X104362000Y-117562000D01*
G75*
G02*
X104412000Y-117512000I50000J0D01*
G01*
G37*
G36*
G01*
X101212000Y-117512000D02*
X102212000Y-117512000D01*
G75*
G02*
X102262000Y-117562000I0J-50000D01*
G01*
X102262000Y-119062000D01*
G75*
G02*
X102212000Y-119112000I-50000J0D01*
G01*
X101212000Y-119112000D01*
G75*
G02*
X101162000Y-119062000I0J50000D01*
G01*
X101162000Y-117562000D01*
G75*
G02*
X101212000Y-117512000I50000J0D01*
G01*
G37*
%TD*%
%TO.C,D15*%
G36*
G01*
X101212000Y-109394000D02*
X102212000Y-109394000D01*
G75*
G02*
X102262000Y-109444000I0J-50000D01*
G01*
X102262000Y-110944000D01*
G75*
G02*
X102212000Y-110994000I-50000J0D01*
G01*
X101212000Y-110994000D01*
G75*
G02*
X101162000Y-110944000I0J50000D01*
G01*
X101162000Y-109444000D01*
G75*
G02*
X101212000Y-109394000I50000J0D01*
G01*
G37*
G36*
G01*
X104412000Y-109394000D02*
X105412000Y-109394000D01*
G75*
G02*
X105462000Y-109444000I0J-50000D01*
G01*
X105462000Y-110944000D01*
G75*
G02*
X105412000Y-110994000I-50000J0D01*
G01*
X104412000Y-110994000D01*
G75*
G02*
X104362000Y-110944000I0J50000D01*
G01*
X104362000Y-109444000D01*
G75*
G02*
X104412000Y-109394000I50000J0D01*
G01*
G37*
G36*
G01*
X101212000Y-104494000D02*
X102212000Y-104494000D01*
G75*
G02*
X102262000Y-104544000I0J-50000D01*
G01*
X102262000Y-106044000D01*
G75*
G02*
X102212000Y-106094000I-50000J0D01*
G01*
X101212000Y-106094000D01*
G75*
G02*
X101162000Y-106044000I0J50000D01*
G01*
X101162000Y-104544000D01*
G75*
G02*
X101212000Y-104494000I50000J0D01*
G01*
G37*
G36*
G01*
X104412000Y-104494000D02*
X105412000Y-104494000D01*
G75*
G02*
X105462000Y-104544000I0J-50000D01*
G01*
X105462000Y-106044000D01*
G75*
G02*
X105412000Y-106094000I-50000J0D01*
G01*
X104412000Y-106094000D01*
G75*
G02*
X104362000Y-106044000I0J50000D01*
G01*
X104362000Y-104544000D01*
G75*
G02*
X104412000Y-104494000I50000J0D01*
G01*
G37*
%TD*%
%TO.C,D16*%
G36*
G01*
X104396000Y-92750000D02*
X105396000Y-92750000D01*
G75*
G02*
X105446000Y-92800000I0J-50000D01*
G01*
X105446000Y-94300000D01*
G75*
G02*
X105396000Y-94350000I-50000J0D01*
G01*
X104396000Y-94350000D01*
G75*
G02*
X104346000Y-94300000I0J50000D01*
G01*
X104346000Y-92800000D01*
G75*
G02*
X104396000Y-92750000I50000J0D01*
G01*
G37*
G36*
G01*
X101196000Y-92750000D02*
X102196000Y-92750000D01*
G75*
G02*
X102246000Y-92800000I0J-50000D01*
G01*
X102246000Y-94300000D01*
G75*
G02*
X102196000Y-94350000I-50000J0D01*
G01*
X101196000Y-94350000D01*
G75*
G02*
X101146000Y-94300000I0J50000D01*
G01*
X101146000Y-92800000D01*
G75*
G02*
X101196000Y-92750000I50000J0D01*
G01*
G37*
G36*
G01*
X104396000Y-97650000D02*
X105396000Y-97650000D01*
G75*
G02*
X105446000Y-97700000I0J-50000D01*
G01*
X105446000Y-99200000D01*
G75*
G02*
X105396000Y-99250000I-50000J0D01*
G01*
X104396000Y-99250000D01*
G75*
G02*
X104346000Y-99200000I0J50000D01*
G01*
X104346000Y-97700000D01*
G75*
G02*
X104396000Y-97650000I50000J0D01*
G01*
G37*
G36*
G01*
X101196000Y-97650000D02*
X102196000Y-97650000D01*
G75*
G02*
X102246000Y-97700000I0J-50000D01*
G01*
X102246000Y-99200000D01*
G75*
G02*
X102196000Y-99250000I-50000J0D01*
G01*
X101196000Y-99250000D01*
G75*
G02*
X101146000Y-99200000I0J50000D01*
G01*
X101146000Y-97700000D01*
G75*
G02*
X101196000Y-97650000I50000J0D01*
G01*
G37*
%TD*%
%TO.C,R1*%
G36*
G01*
X142950000Y-127725000D02*
X143550000Y-127725000D01*
G75*
G02*
X143775000Y-127950000I0J-225000D01*
G01*
X143775000Y-128400000D01*
G75*
G02*
X143550000Y-128625000I-225000J0D01*
G01*
X142950000Y-128625000D01*
G75*
G02*
X142725000Y-128400000I0J225000D01*
G01*
X142725000Y-127950000D01*
G75*
G02*
X142950000Y-127725000I225000J0D01*
G01*
G37*
G36*
G01*
X142950000Y-129375000D02*
X143550000Y-129375000D01*
G75*
G02*
X143775000Y-129600000I0J-225000D01*
G01*
X143775000Y-130050000D01*
G75*
G02*
X143550000Y-130275000I-225000J0D01*
G01*
X142950000Y-130275000D01*
G75*
G02*
X142725000Y-130050000I0J225000D01*
G01*
X142725000Y-129600000D01*
G75*
G02*
X142950000Y-129375000I225000J0D01*
G01*
G37*
%TD*%
%TO.C,R2*%
G36*
G01*
X141450000Y-127725000D02*
X142050000Y-127725000D01*
G75*
G02*
X142275000Y-127950000I0J-225000D01*
G01*
X142275000Y-128400000D01*
G75*
G02*
X142050000Y-128625000I-225000J0D01*
G01*
X141450000Y-128625000D01*
G75*
G02*
X141225000Y-128400000I0J225000D01*
G01*
X141225000Y-127950000D01*
G75*
G02*
X141450000Y-127725000I225000J0D01*
G01*
G37*
G36*
G01*
X141450000Y-129375000D02*
X142050000Y-129375000D01*
G75*
G02*
X142275000Y-129600000I0J-225000D01*
G01*
X142275000Y-130050000D01*
G75*
G02*
X142050000Y-130275000I-225000J0D01*
G01*
X141450000Y-130275000D01*
G75*
G02*
X141225000Y-130050000I0J225000D01*
G01*
X141225000Y-129600000D01*
G75*
G02*
X141450000Y-129375000I225000J0D01*
G01*
G37*
%TD*%
%TO.C,R3*%
G36*
G01*
X117700000Y-129375000D02*
X118300000Y-129375000D01*
G75*
G02*
X118525000Y-129600000I0J-225000D01*
G01*
X118525000Y-130050000D01*
G75*
G02*
X118300000Y-130275000I-225000J0D01*
G01*
X117700000Y-130275000D01*
G75*
G02*
X117475000Y-130050000I0J225000D01*
G01*
X117475000Y-129600000D01*
G75*
G02*
X117700000Y-129375000I225000J0D01*
G01*
G37*
G36*
G01*
X117700000Y-127725000D02*
X118300000Y-127725000D01*
G75*
G02*
X118525000Y-127950000I0J-225000D01*
G01*
X118525000Y-128400000D01*
G75*
G02*
X118300000Y-128625000I-225000J0D01*
G01*
X117700000Y-128625000D01*
G75*
G02*
X117475000Y-128400000I0J225000D01*
G01*
X117475000Y-127950000D01*
G75*
G02*
X117700000Y-127725000I225000J0D01*
G01*
G37*
%TD*%
%TO.C,R4*%
G36*
G01*
X116200000Y-127725000D02*
X116800000Y-127725000D01*
G75*
G02*
X117025000Y-127950000I0J-225000D01*
G01*
X117025000Y-128400000D01*
G75*
G02*
X116800000Y-128625000I-225000J0D01*
G01*
X116200000Y-128625000D01*
G75*
G02*
X115975000Y-128400000I0J225000D01*
G01*
X115975000Y-127950000D01*
G75*
G02*
X116200000Y-127725000I225000J0D01*
G01*
G37*
G36*
G01*
X116200000Y-129375000D02*
X116800000Y-129375000D01*
G75*
G02*
X117025000Y-129600000I0J-225000D01*
G01*
X117025000Y-130050000D01*
G75*
G02*
X116800000Y-130275000I-225000J0D01*
G01*
X116200000Y-130275000D01*
G75*
G02*
X115975000Y-130050000I0J225000D01*
G01*
X115975000Y-129600000D01*
G75*
G02*
X116200000Y-129375000I225000J0D01*
G01*
G37*
%TD*%
%TO.C,R5*%
G36*
G01*
X114700000Y-129375000D02*
X115300000Y-129375000D01*
G75*
G02*
X115525000Y-129600000I0J-225000D01*
G01*
X115525000Y-130050000D01*
G75*
G02*
X115300000Y-130275000I-225000J0D01*
G01*
X114700000Y-130275000D01*
G75*
G02*
X114475000Y-130050000I0J225000D01*
G01*
X114475000Y-129600000D01*
G75*
G02*
X114700000Y-129375000I225000J0D01*
G01*
G37*
G36*
G01*
X114700000Y-127725000D02*
X115300000Y-127725000D01*
G75*
G02*
X115525000Y-127950000I0J-225000D01*
G01*
X115525000Y-128400000D01*
G75*
G02*
X115300000Y-128625000I-225000J0D01*
G01*
X114700000Y-128625000D01*
G75*
G02*
X114475000Y-128400000I0J225000D01*
G01*
X114475000Y-127950000D01*
G75*
G02*
X114700000Y-127725000I225000J0D01*
G01*
G37*
%TD*%
%TO.C,SW3*%
G36*
G01*
X146400000Y-71350000D02*
X148000000Y-71350000D01*
G75*
G02*
X148050000Y-71400000I0J-50000D01*
G01*
X148050000Y-73000000D01*
G75*
G02*
X148000000Y-73050000I-50000J0D01*
G01*
X146400000Y-73050000D01*
G75*
G02*
X146350000Y-73000000I0J50000D01*
G01*
X146350000Y-71400000D01*
G75*
G02*
X146400000Y-71350000I50000J0D01*
G01*
G37*
D12*
X147200000Y-74700000D03*
X147200000Y-77200000D03*
X144000000Y-72200000D03*
X144000000Y-74700000D03*
X144000000Y-77200000D03*
%TD*%
D13*
%TO.C,H1*%
X144000000Y-109500000D03*
%TD*%
%TO.C,H2*%
X114000000Y-109500000D03*
%TD*%
%TO.C,J1*%
G36*
G01*
X102730000Y-70900000D02*
X101030000Y-70900000D01*
G75*
G02*
X100980000Y-70850000I0J50000D01*
G01*
X100980000Y-69150000D01*
G75*
G02*
X101030000Y-69100000I50000J0D01*
G01*
X102730000Y-69100000D01*
G75*
G02*
X102780000Y-69150000I0J-50000D01*
G01*
X102780000Y-70850000D01*
G75*
G02*
X102730000Y-70900000I-50000J0D01*
G01*
G37*
D14*
X104420000Y-70000000D03*
X106960000Y-70000000D03*
X109500000Y-70000000D03*
X112040000Y-70000000D03*
X114580000Y-70000000D03*
%TD*%
%TO.C,J2*%
G36*
G01*
X126310000Y-123900000D02*
X124610000Y-123900000D01*
G75*
G02*
X124560000Y-123850000I0J50000D01*
G01*
X124560000Y-122150000D01*
G75*
G02*
X124610000Y-122100000I50000J0D01*
G01*
X126310000Y-122100000D01*
G75*
G02*
X126360000Y-122150000I0J-50000D01*
G01*
X126360000Y-123850000D01*
G75*
G02*
X126310000Y-123900000I-50000J0D01*
G01*
G37*
X128000000Y-123000000D03*
X130540000Y-123000000D03*
X133080000Y-123000000D03*
%TD*%
D11*
%TO.C,SW1*%
X110750000Y-136500000D03*
X115250000Y-136500000D03*
X110750000Y-143000000D03*
X115250000Y-143000000D03*
%TD*%
%TO.C,SW2*%
X142500000Y-136500000D03*
X147000000Y-136500000D03*
X142500000Y-143000000D03*
X147000000Y-143000000D03*
%TD*%
D10*
%TO.C,TP4*%
X113250000Y-125500000D03*
%TD*%
%TO.C,TP5*%
X113250000Y-131500000D03*
%TD*%
%TO.C,J3*%
G36*
G01*
X145650000Y-94100000D02*
X147350000Y-94100000D01*
G75*
G02*
X147400000Y-94150000I0J-50000D01*
G01*
X147400000Y-95850000D01*
G75*
G02*
X147350000Y-95900000I-50000J0D01*
G01*
X145650000Y-95900000D01*
G75*
G02*
X145600000Y-95850000I0J50000D01*
G01*
X145600000Y-94150000D01*
G75*
G02*
X145650000Y-94100000I50000J0D01*
G01*
G37*
D14*
X143960000Y-95000000D03*
X141420000Y-95000000D03*
%TD*%
M02*
