%TF.GenerationSoftware,KiCad,Pcbnew,(5.1.7)-1*%
%TF.CreationDate,2020-10-27T19:53:13+01:00*%
%TF.ProjectId,Spytag,53707974-6167-42e6-9b69-6361645f7063,rev?*%
%TF.SameCoordinates,Original*%
%TF.FileFunction,Paste,Top*%
%TF.FilePolarity,Positive*%
%FSLAX46Y46*%
G04 Gerber Fmt 4.6, Leading zero omitted, Abs format (unit mm)*
G04 Created by KiCad (PCBNEW (5.1.7)-1) date 2020-10-27 19:53:13*
%MOMM*%
%LPD*%
G01*
G04 APERTURE LIST*
%ADD10R,2.500000X1.100000*%
%ADD11R,1.100000X2.500000*%
%ADD12R,1.000000X1.500000*%
G04 APERTURE END LIST*
D10*
%TO.C,U1*%
X136700000Y-143000000D03*
X136700000Y-141000000D03*
X136700000Y-139000000D03*
X136700000Y-137000000D03*
X136700000Y-135000000D03*
X136700000Y-133000000D03*
X136700000Y-131000000D03*
X136700000Y-129000000D03*
X121300000Y-129000000D03*
X121300000Y-131000000D03*
X121300000Y-133000000D03*
X121300000Y-135000000D03*
X121300000Y-137000000D03*
X121300000Y-139000000D03*
X121300000Y-141000000D03*
X121300000Y-143000000D03*
D11*
X134010000Y-127300000D03*
X132010000Y-127300000D03*
X130010000Y-127300000D03*
X128010000Y-127300000D03*
X126010000Y-127300000D03*
X124010000Y-127300000D03*
%TD*%
%TO.C,C1*%
G36*
G01*
X126849000Y-105486000D02*
X126849000Y-105986000D01*
G75*
G02*
X126624000Y-106211000I-225000J0D01*
G01*
X126174000Y-106211000D01*
G75*
G02*
X125949000Y-105986000I0J225000D01*
G01*
X125949000Y-105486000D01*
G75*
G02*
X126174000Y-105261000I225000J0D01*
G01*
X126624000Y-105261000D01*
G75*
G02*
X126849000Y-105486000I0J-225000D01*
G01*
G37*
G36*
G01*
X125299000Y-105486000D02*
X125299000Y-105986000D01*
G75*
G02*
X125074000Y-106211000I-225000J0D01*
G01*
X124624000Y-106211000D01*
G75*
G02*
X124399000Y-105986000I0J225000D01*
G01*
X124399000Y-105486000D01*
G75*
G02*
X124624000Y-105261000I225000J0D01*
G01*
X125074000Y-105261000D01*
G75*
G02*
X125299000Y-105486000I0J-225000D01*
G01*
G37*
%TD*%
%TO.C,C2*%
G36*
G01*
X131903000Y-105486000D02*
X131903000Y-105986000D01*
G75*
G02*
X131678000Y-106211000I-225000J0D01*
G01*
X131228000Y-106211000D01*
G75*
G02*
X131003000Y-105986000I0J225000D01*
G01*
X131003000Y-105486000D01*
G75*
G02*
X131228000Y-105261000I225000J0D01*
G01*
X131678000Y-105261000D01*
G75*
G02*
X131903000Y-105486000I0J-225000D01*
G01*
G37*
G36*
G01*
X133453000Y-105486000D02*
X133453000Y-105986000D01*
G75*
G02*
X133228000Y-106211000I-225000J0D01*
G01*
X132778000Y-106211000D01*
G75*
G02*
X132553000Y-105986000I0J225000D01*
G01*
X132553000Y-105486000D01*
G75*
G02*
X132778000Y-105261000I225000J0D01*
G01*
X133228000Y-105261000D01*
G75*
G02*
X133453000Y-105486000I0J-225000D01*
G01*
G37*
%TD*%
%TO.C,C3*%
G36*
G01*
X158750000Y-138025000D02*
X159250000Y-138025000D01*
G75*
G02*
X159475000Y-138250000I0J-225000D01*
G01*
X159475000Y-138700000D01*
G75*
G02*
X159250000Y-138925000I-225000J0D01*
G01*
X158750000Y-138925000D01*
G75*
G02*
X158525000Y-138700000I0J225000D01*
G01*
X158525000Y-138250000D01*
G75*
G02*
X158750000Y-138025000I225000J0D01*
G01*
G37*
G36*
G01*
X158750000Y-139575000D02*
X159250000Y-139575000D01*
G75*
G02*
X159475000Y-139800000I0J-225000D01*
G01*
X159475000Y-140250000D01*
G75*
G02*
X159250000Y-140475000I-225000J0D01*
G01*
X158750000Y-140475000D01*
G75*
G02*
X158525000Y-140250000I0J225000D01*
G01*
X158525000Y-139800000D01*
G75*
G02*
X158750000Y-139575000I225000J0D01*
G01*
G37*
%TD*%
%TO.C,C4*%
G36*
G01*
X158750000Y-131575000D02*
X159250000Y-131575000D01*
G75*
G02*
X159475000Y-131800000I0J-225000D01*
G01*
X159475000Y-132250000D01*
G75*
G02*
X159250000Y-132475000I-225000J0D01*
G01*
X158750000Y-132475000D01*
G75*
G02*
X158525000Y-132250000I0J225000D01*
G01*
X158525000Y-131800000D01*
G75*
G02*
X158750000Y-131575000I225000J0D01*
G01*
G37*
G36*
G01*
X158750000Y-130025000D02*
X159250000Y-130025000D01*
G75*
G02*
X159475000Y-130250000I0J-225000D01*
G01*
X159475000Y-130700000D01*
G75*
G02*
X159250000Y-130925000I-225000J0D01*
G01*
X158750000Y-130925000D01*
G75*
G02*
X158525000Y-130700000I0J225000D01*
G01*
X158525000Y-130250000D01*
G75*
G02*
X158750000Y-130025000I225000J0D01*
G01*
G37*
%TD*%
%TO.C,C5*%
G36*
G01*
X158750000Y-123575000D02*
X159250000Y-123575000D01*
G75*
G02*
X159475000Y-123800000I0J-225000D01*
G01*
X159475000Y-124250000D01*
G75*
G02*
X159250000Y-124475000I-225000J0D01*
G01*
X158750000Y-124475000D01*
G75*
G02*
X158525000Y-124250000I0J225000D01*
G01*
X158525000Y-123800000D01*
G75*
G02*
X158750000Y-123575000I225000J0D01*
G01*
G37*
G36*
G01*
X158750000Y-122025000D02*
X159250000Y-122025000D01*
G75*
G02*
X159475000Y-122250000I0J-225000D01*
G01*
X159475000Y-122700000D01*
G75*
G02*
X159250000Y-122925000I-225000J0D01*
G01*
X158750000Y-122925000D01*
G75*
G02*
X158525000Y-122700000I0J225000D01*
G01*
X158525000Y-122250000D01*
G75*
G02*
X158750000Y-122025000I225000J0D01*
G01*
G37*
%TD*%
%TO.C,C6*%
G36*
G01*
X158750000Y-114025000D02*
X159250000Y-114025000D01*
G75*
G02*
X159475000Y-114250000I0J-225000D01*
G01*
X159475000Y-114700000D01*
G75*
G02*
X159250000Y-114925000I-225000J0D01*
G01*
X158750000Y-114925000D01*
G75*
G02*
X158525000Y-114700000I0J225000D01*
G01*
X158525000Y-114250000D01*
G75*
G02*
X158750000Y-114025000I225000J0D01*
G01*
G37*
G36*
G01*
X158750000Y-115575000D02*
X159250000Y-115575000D01*
G75*
G02*
X159475000Y-115800000I0J-225000D01*
G01*
X159475000Y-116250000D01*
G75*
G02*
X159250000Y-116475000I-225000J0D01*
G01*
X158750000Y-116475000D01*
G75*
G02*
X158525000Y-116250000I0J225000D01*
G01*
X158525000Y-115800000D01*
G75*
G02*
X158750000Y-115575000I225000J0D01*
G01*
G37*
%TD*%
%TO.C,C7*%
G36*
G01*
X158750000Y-107575000D02*
X159250000Y-107575000D01*
G75*
G02*
X159475000Y-107800000I0J-225000D01*
G01*
X159475000Y-108250000D01*
G75*
G02*
X159250000Y-108475000I-225000J0D01*
G01*
X158750000Y-108475000D01*
G75*
G02*
X158525000Y-108250000I0J225000D01*
G01*
X158525000Y-107800000D01*
G75*
G02*
X158750000Y-107575000I225000J0D01*
G01*
G37*
G36*
G01*
X158750000Y-106025000D02*
X159250000Y-106025000D01*
G75*
G02*
X159475000Y-106250000I0J-225000D01*
G01*
X159475000Y-106700000D01*
G75*
G02*
X159250000Y-106925000I-225000J0D01*
G01*
X158750000Y-106925000D01*
G75*
G02*
X158525000Y-106700000I0J225000D01*
G01*
X158525000Y-106250000D01*
G75*
G02*
X158750000Y-106025000I225000J0D01*
G01*
G37*
%TD*%
%TO.C,C8*%
G36*
G01*
X158750000Y-99575000D02*
X159250000Y-99575000D01*
G75*
G02*
X159475000Y-99800000I0J-225000D01*
G01*
X159475000Y-100250000D01*
G75*
G02*
X159250000Y-100475000I-225000J0D01*
G01*
X158750000Y-100475000D01*
G75*
G02*
X158525000Y-100250000I0J225000D01*
G01*
X158525000Y-99800000D01*
G75*
G02*
X158750000Y-99575000I225000J0D01*
G01*
G37*
G36*
G01*
X158750000Y-98025000D02*
X159250000Y-98025000D01*
G75*
G02*
X159475000Y-98250000I0J-225000D01*
G01*
X159475000Y-98700000D01*
G75*
G02*
X159250000Y-98925000I-225000J0D01*
G01*
X158750000Y-98925000D01*
G75*
G02*
X158525000Y-98700000I0J225000D01*
G01*
X158525000Y-98250000D01*
G75*
G02*
X158750000Y-98025000I225000J0D01*
G01*
G37*
%TD*%
%TO.C,C9*%
G36*
G01*
X158750000Y-90025000D02*
X159250000Y-90025000D01*
G75*
G02*
X159475000Y-90250000I0J-225000D01*
G01*
X159475000Y-90700000D01*
G75*
G02*
X159250000Y-90925000I-225000J0D01*
G01*
X158750000Y-90925000D01*
G75*
G02*
X158525000Y-90700000I0J225000D01*
G01*
X158525000Y-90250000D01*
G75*
G02*
X158750000Y-90025000I225000J0D01*
G01*
G37*
G36*
G01*
X158750000Y-91575000D02*
X159250000Y-91575000D01*
G75*
G02*
X159475000Y-91800000I0J-225000D01*
G01*
X159475000Y-92250000D01*
G75*
G02*
X159250000Y-92475000I-225000J0D01*
G01*
X158750000Y-92475000D01*
G75*
G02*
X158525000Y-92250000I0J225000D01*
G01*
X158525000Y-91800000D01*
G75*
G02*
X158750000Y-91575000I225000J0D01*
G01*
G37*
%TD*%
%TO.C,C10*%
G36*
G01*
X158750000Y-83575000D02*
X159250000Y-83575000D01*
G75*
G02*
X159475000Y-83800000I0J-225000D01*
G01*
X159475000Y-84250000D01*
G75*
G02*
X159250000Y-84475000I-225000J0D01*
G01*
X158750000Y-84475000D01*
G75*
G02*
X158525000Y-84250000I0J225000D01*
G01*
X158525000Y-83800000D01*
G75*
G02*
X158750000Y-83575000I225000J0D01*
G01*
G37*
G36*
G01*
X158750000Y-82025000D02*
X159250000Y-82025000D01*
G75*
G02*
X159475000Y-82250000I0J-225000D01*
G01*
X159475000Y-82700000D01*
G75*
G02*
X159250000Y-82925000I-225000J0D01*
G01*
X158750000Y-82925000D01*
G75*
G02*
X158525000Y-82700000I0J225000D01*
G01*
X158525000Y-82250000D01*
G75*
G02*
X158750000Y-82025000I225000J0D01*
G01*
G37*
%TD*%
%TO.C,C11*%
G36*
G01*
X98750000Y-138775000D02*
X99250000Y-138775000D01*
G75*
G02*
X99475000Y-139000000I0J-225000D01*
G01*
X99475000Y-139450000D01*
G75*
G02*
X99250000Y-139675000I-225000J0D01*
G01*
X98750000Y-139675000D01*
G75*
G02*
X98525000Y-139450000I0J225000D01*
G01*
X98525000Y-139000000D01*
G75*
G02*
X98750000Y-138775000I225000J0D01*
G01*
G37*
G36*
G01*
X98750000Y-140325000D02*
X99250000Y-140325000D01*
G75*
G02*
X99475000Y-140550000I0J-225000D01*
G01*
X99475000Y-141000000D01*
G75*
G02*
X99250000Y-141225000I-225000J0D01*
G01*
X98750000Y-141225000D01*
G75*
G02*
X98525000Y-141000000I0J225000D01*
G01*
X98525000Y-140550000D01*
G75*
G02*
X98750000Y-140325000I225000J0D01*
G01*
G37*
%TD*%
%TO.C,C12*%
G36*
G01*
X98750000Y-130775000D02*
X99250000Y-130775000D01*
G75*
G02*
X99475000Y-131000000I0J-225000D01*
G01*
X99475000Y-131450000D01*
G75*
G02*
X99250000Y-131675000I-225000J0D01*
G01*
X98750000Y-131675000D01*
G75*
G02*
X98525000Y-131450000I0J225000D01*
G01*
X98525000Y-131000000D01*
G75*
G02*
X98750000Y-130775000I225000J0D01*
G01*
G37*
G36*
G01*
X98750000Y-132325000D02*
X99250000Y-132325000D01*
G75*
G02*
X99475000Y-132550000I0J-225000D01*
G01*
X99475000Y-133000000D01*
G75*
G02*
X99250000Y-133225000I-225000J0D01*
G01*
X98750000Y-133225000D01*
G75*
G02*
X98525000Y-133000000I0J225000D01*
G01*
X98525000Y-132550000D01*
G75*
G02*
X98750000Y-132325000I225000J0D01*
G01*
G37*
%TD*%
%TO.C,C13*%
G36*
G01*
X98750000Y-122775000D02*
X99250000Y-122775000D01*
G75*
G02*
X99475000Y-123000000I0J-225000D01*
G01*
X99475000Y-123450000D01*
G75*
G02*
X99250000Y-123675000I-225000J0D01*
G01*
X98750000Y-123675000D01*
G75*
G02*
X98525000Y-123450000I0J225000D01*
G01*
X98525000Y-123000000D01*
G75*
G02*
X98750000Y-122775000I225000J0D01*
G01*
G37*
G36*
G01*
X98750000Y-124325000D02*
X99250000Y-124325000D01*
G75*
G02*
X99475000Y-124550000I0J-225000D01*
G01*
X99475000Y-125000000D01*
G75*
G02*
X99250000Y-125225000I-225000J0D01*
G01*
X98750000Y-125225000D01*
G75*
G02*
X98525000Y-125000000I0J225000D01*
G01*
X98525000Y-124550000D01*
G75*
G02*
X98750000Y-124325000I225000J0D01*
G01*
G37*
%TD*%
%TO.C,C14*%
G36*
G01*
X98750000Y-116325000D02*
X99250000Y-116325000D01*
G75*
G02*
X99475000Y-116550000I0J-225000D01*
G01*
X99475000Y-117000000D01*
G75*
G02*
X99250000Y-117225000I-225000J0D01*
G01*
X98750000Y-117225000D01*
G75*
G02*
X98525000Y-117000000I0J225000D01*
G01*
X98525000Y-116550000D01*
G75*
G02*
X98750000Y-116325000I225000J0D01*
G01*
G37*
G36*
G01*
X98750000Y-114775000D02*
X99250000Y-114775000D01*
G75*
G02*
X99475000Y-115000000I0J-225000D01*
G01*
X99475000Y-115450000D01*
G75*
G02*
X99250000Y-115675000I-225000J0D01*
G01*
X98750000Y-115675000D01*
G75*
G02*
X98525000Y-115450000I0J225000D01*
G01*
X98525000Y-115000000D01*
G75*
G02*
X98750000Y-114775000I225000J0D01*
G01*
G37*
%TD*%
%TO.C,C15*%
G36*
G01*
X98500000Y-106750000D02*
X99000000Y-106750000D01*
G75*
G02*
X99225000Y-106975000I0J-225000D01*
G01*
X99225000Y-107425000D01*
G75*
G02*
X99000000Y-107650000I-225000J0D01*
G01*
X98500000Y-107650000D01*
G75*
G02*
X98275000Y-107425000I0J225000D01*
G01*
X98275000Y-106975000D01*
G75*
G02*
X98500000Y-106750000I225000J0D01*
G01*
G37*
G36*
G01*
X98500000Y-108300000D02*
X99000000Y-108300000D01*
G75*
G02*
X99225000Y-108525000I0J-225000D01*
G01*
X99225000Y-108975000D01*
G75*
G02*
X99000000Y-109200000I-225000J0D01*
G01*
X98500000Y-109200000D01*
G75*
G02*
X98275000Y-108975000I0J225000D01*
G01*
X98275000Y-108525000D01*
G75*
G02*
X98500000Y-108300000I225000J0D01*
G01*
G37*
%TD*%
%TO.C,C16*%
G36*
G01*
X98500000Y-96300000D02*
X99000000Y-96300000D01*
G75*
G02*
X99225000Y-96525000I0J-225000D01*
G01*
X99225000Y-96975000D01*
G75*
G02*
X99000000Y-97200000I-225000J0D01*
G01*
X98500000Y-97200000D01*
G75*
G02*
X98275000Y-96975000I0J225000D01*
G01*
X98275000Y-96525000D01*
G75*
G02*
X98500000Y-96300000I225000J0D01*
G01*
G37*
G36*
G01*
X98500000Y-94750000D02*
X99000000Y-94750000D01*
G75*
G02*
X99225000Y-94975000I0J-225000D01*
G01*
X99225000Y-95425000D01*
G75*
G02*
X99000000Y-95650000I-225000J0D01*
G01*
X98500000Y-95650000D01*
G75*
G02*
X98275000Y-95425000I0J225000D01*
G01*
X98275000Y-94975000D01*
G75*
G02*
X98500000Y-94750000I225000J0D01*
G01*
G37*
%TD*%
%TO.C,C17*%
G36*
G01*
X120750000Y-124825000D02*
X121250000Y-124825000D01*
G75*
G02*
X121475000Y-125050000I0J-225000D01*
G01*
X121475000Y-125500000D01*
G75*
G02*
X121250000Y-125725000I-225000J0D01*
G01*
X120750000Y-125725000D01*
G75*
G02*
X120525000Y-125500000I0J225000D01*
G01*
X120525000Y-125050000D01*
G75*
G02*
X120750000Y-124825000I225000J0D01*
G01*
G37*
G36*
G01*
X120750000Y-123275000D02*
X121250000Y-123275000D01*
G75*
G02*
X121475000Y-123500000I0J-225000D01*
G01*
X121475000Y-123950000D01*
G75*
G02*
X121250000Y-124175000I-225000J0D01*
G01*
X120750000Y-124175000D01*
G75*
G02*
X120525000Y-123950000I0J225000D01*
G01*
X120525000Y-123500000D01*
G75*
G02*
X120750000Y-123275000I225000J0D01*
G01*
G37*
%TD*%
%TO.C,C18*%
G36*
G01*
X147625000Y-91950000D02*
X147625000Y-92450000D01*
G75*
G02*
X147400000Y-92675000I-225000J0D01*
G01*
X146950000Y-92675000D01*
G75*
G02*
X146725000Y-92450000I0J225000D01*
G01*
X146725000Y-91950000D01*
G75*
G02*
X146950000Y-91725000I225000J0D01*
G01*
X147400000Y-91725000D01*
G75*
G02*
X147625000Y-91950000I0J-225000D01*
G01*
G37*
G36*
G01*
X146075000Y-91950000D02*
X146075000Y-92450000D01*
G75*
G02*
X145850000Y-92675000I-225000J0D01*
G01*
X145400000Y-92675000D01*
G75*
G02*
X145175000Y-92450000I0J225000D01*
G01*
X145175000Y-91950000D01*
G75*
G02*
X145400000Y-91725000I225000J0D01*
G01*
X145850000Y-91725000D01*
G75*
G02*
X146075000Y-91950000I0J-225000D01*
G01*
G37*
%TD*%
%TO.C,C19*%
G36*
G01*
X141150000Y-92450000D02*
X141150000Y-91950000D01*
G75*
G02*
X141375000Y-91725000I225000J0D01*
G01*
X141825000Y-91725000D01*
G75*
G02*
X142050000Y-91950000I0J-225000D01*
G01*
X142050000Y-92450000D01*
G75*
G02*
X141825000Y-92675000I-225000J0D01*
G01*
X141375000Y-92675000D01*
G75*
G02*
X141150000Y-92450000I0J225000D01*
G01*
G37*
G36*
G01*
X142700000Y-92450000D02*
X142700000Y-91950000D01*
G75*
G02*
X142925000Y-91725000I225000J0D01*
G01*
X143375000Y-91725000D01*
G75*
G02*
X143600000Y-91950000I0J-225000D01*
G01*
X143600000Y-92450000D01*
G75*
G02*
X143375000Y-92675000I-225000J0D01*
G01*
X142925000Y-92675000D01*
G75*
G02*
X142700000Y-92450000I0J225000D01*
G01*
G37*
%TD*%
D12*
%TO.C,D1*%
X127172000Y-109342000D03*
X123972000Y-109342000D03*
X127172000Y-114242000D03*
X123972000Y-114242000D03*
%TD*%
%TO.C,D2*%
X130728000Y-114242000D03*
X133928000Y-114242000D03*
X130728000Y-109342000D03*
X133928000Y-109342000D03*
%TD*%
%TO.C,D3*%
X156434000Y-137766000D03*
X153234000Y-137766000D03*
X156434000Y-142666000D03*
X153234000Y-142666000D03*
%TD*%
%TO.C,D4*%
X153234000Y-134538000D03*
X156434000Y-134538000D03*
X153234000Y-129638000D03*
X156434000Y-129638000D03*
%TD*%
%TO.C,D5*%
X153234000Y-126410000D03*
X156434000Y-126410000D03*
X153234000Y-121510000D03*
X156434000Y-121510000D03*
%TD*%
%TO.C,D6*%
X156434000Y-113382000D03*
X153234000Y-113382000D03*
X156434000Y-118282000D03*
X153234000Y-118282000D03*
%TD*%
%TO.C,D7*%
X153234000Y-110154000D03*
X156434000Y-110154000D03*
X153234000Y-105254000D03*
X156434000Y-105254000D03*
%TD*%
%TO.C,D8*%
X156434000Y-97126000D03*
X153234000Y-97126000D03*
X156434000Y-102026000D03*
X153234000Y-102026000D03*
%TD*%
%TO.C,D9*%
X153234000Y-93898000D03*
X156434000Y-93898000D03*
X153234000Y-88998000D03*
X156434000Y-88998000D03*
%TD*%
%TO.C,D10*%
X156434000Y-80870000D03*
X153234000Y-80870000D03*
X156434000Y-85770000D03*
X153234000Y-85770000D03*
%TD*%
%TO.C,D11*%
X101712000Y-142666000D03*
X104912000Y-142666000D03*
X101712000Y-137766000D03*
X104912000Y-137766000D03*
%TD*%
%TO.C,D12*%
X104912000Y-129648000D03*
X101712000Y-129648000D03*
X104912000Y-134548000D03*
X101712000Y-134548000D03*
%TD*%
%TO.C,D13*%
X101712000Y-126430000D03*
X104912000Y-126430000D03*
X101712000Y-121530000D03*
X104912000Y-121530000D03*
%TD*%
%TO.C,D14*%
X104912000Y-113412000D03*
X101712000Y-113412000D03*
X104912000Y-118312000D03*
X101712000Y-118312000D03*
%TD*%
%TO.C,D15*%
X101712000Y-110194000D03*
X104912000Y-110194000D03*
X101712000Y-105294000D03*
X104912000Y-105294000D03*
%TD*%
%TO.C,D16*%
X104896000Y-93550000D03*
X101696000Y-93550000D03*
X104896000Y-98450000D03*
X101696000Y-98450000D03*
%TD*%
%TO.C,R1*%
G36*
G01*
X142975000Y-127775000D02*
X143525000Y-127775000D01*
G75*
G02*
X143725000Y-127975000I0J-200000D01*
G01*
X143725000Y-128375000D01*
G75*
G02*
X143525000Y-128575000I-200000J0D01*
G01*
X142975000Y-128575000D01*
G75*
G02*
X142775000Y-128375000I0J200000D01*
G01*
X142775000Y-127975000D01*
G75*
G02*
X142975000Y-127775000I200000J0D01*
G01*
G37*
G36*
G01*
X142975000Y-129425000D02*
X143525000Y-129425000D01*
G75*
G02*
X143725000Y-129625000I0J-200000D01*
G01*
X143725000Y-130025000D01*
G75*
G02*
X143525000Y-130225000I-200000J0D01*
G01*
X142975000Y-130225000D01*
G75*
G02*
X142775000Y-130025000I0J200000D01*
G01*
X142775000Y-129625000D01*
G75*
G02*
X142975000Y-129425000I200000J0D01*
G01*
G37*
%TD*%
%TO.C,R2*%
G36*
G01*
X141475000Y-127775000D02*
X142025000Y-127775000D01*
G75*
G02*
X142225000Y-127975000I0J-200000D01*
G01*
X142225000Y-128375000D01*
G75*
G02*
X142025000Y-128575000I-200000J0D01*
G01*
X141475000Y-128575000D01*
G75*
G02*
X141275000Y-128375000I0J200000D01*
G01*
X141275000Y-127975000D01*
G75*
G02*
X141475000Y-127775000I200000J0D01*
G01*
G37*
G36*
G01*
X141475000Y-129425000D02*
X142025000Y-129425000D01*
G75*
G02*
X142225000Y-129625000I0J-200000D01*
G01*
X142225000Y-130025000D01*
G75*
G02*
X142025000Y-130225000I-200000J0D01*
G01*
X141475000Y-130225000D01*
G75*
G02*
X141275000Y-130025000I0J200000D01*
G01*
X141275000Y-129625000D01*
G75*
G02*
X141475000Y-129425000I200000J0D01*
G01*
G37*
%TD*%
%TO.C,R3*%
G36*
G01*
X117725000Y-129425000D02*
X118275000Y-129425000D01*
G75*
G02*
X118475000Y-129625000I0J-200000D01*
G01*
X118475000Y-130025000D01*
G75*
G02*
X118275000Y-130225000I-200000J0D01*
G01*
X117725000Y-130225000D01*
G75*
G02*
X117525000Y-130025000I0J200000D01*
G01*
X117525000Y-129625000D01*
G75*
G02*
X117725000Y-129425000I200000J0D01*
G01*
G37*
G36*
G01*
X117725000Y-127775000D02*
X118275000Y-127775000D01*
G75*
G02*
X118475000Y-127975000I0J-200000D01*
G01*
X118475000Y-128375000D01*
G75*
G02*
X118275000Y-128575000I-200000J0D01*
G01*
X117725000Y-128575000D01*
G75*
G02*
X117525000Y-128375000I0J200000D01*
G01*
X117525000Y-127975000D01*
G75*
G02*
X117725000Y-127775000I200000J0D01*
G01*
G37*
%TD*%
%TO.C,R4*%
G36*
G01*
X116225000Y-127775000D02*
X116775000Y-127775000D01*
G75*
G02*
X116975000Y-127975000I0J-200000D01*
G01*
X116975000Y-128375000D01*
G75*
G02*
X116775000Y-128575000I-200000J0D01*
G01*
X116225000Y-128575000D01*
G75*
G02*
X116025000Y-128375000I0J200000D01*
G01*
X116025000Y-127975000D01*
G75*
G02*
X116225000Y-127775000I200000J0D01*
G01*
G37*
G36*
G01*
X116225000Y-129425000D02*
X116775000Y-129425000D01*
G75*
G02*
X116975000Y-129625000I0J-200000D01*
G01*
X116975000Y-130025000D01*
G75*
G02*
X116775000Y-130225000I-200000J0D01*
G01*
X116225000Y-130225000D01*
G75*
G02*
X116025000Y-130025000I0J200000D01*
G01*
X116025000Y-129625000D01*
G75*
G02*
X116225000Y-129425000I200000J0D01*
G01*
G37*
%TD*%
%TO.C,R5*%
G36*
G01*
X114725000Y-129425000D02*
X115275000Y-129425000D01*
G75*
G02*
X115475000Y-129625000I0J-200000D01*
G01*
X115475000Y-130025000D01*
G75*
G02*
X115275000Y-130225000I-200000J0D01*
G01*
X114725000Y-130225000D01*
G75*
G02*
X114525000Y-130025000I0J200000D01*
G01*
X114525000Y-129625000D01*
G75*
G02*
X114725000Y-129425000I200000J0D01*
G01*
G37*
G36*
G01*
X114725000Y-127775000D02*
X115275000Y-127775000D01*
G75*
G02*
X115475000Y-127975000I0J-200000D01*
G01*
X115475000Y-128375000D01*
G75*
G02*
X115275000Y-128575000I-200000J0D01*
G01*
X114725000Y-128575000D01*
G75*
G02*
X114525000Y-128375000I0J200000D01*
G01*
X114525000Y-127975000D01*
G75*
G02*
X114725000Y-127775000I200000J0D01*
G01*
G37*
%TD*%
M02*
