%TF.GenerationSoftware,KiCad,Pcbnew,(5.1.7)-1*%
%TF.CreationDate,2020-10-27T19:53:13+01:00*%
%TF.ProjectId,Spytag,53707974-6167-42e6-9b69-6361645f7063,rev?*%
%TF.SameCoordinates,Original*%
%TF.FileFunction,Copper,L2,Bot*%
%TF.FilePolarity,Positive*%
%FSLAX46Y46*%
G04 Gerber Fmt 4.6, Leading zero omitted, Abs format (unit mm)*
G04 Created by KiCad (PCBNEW (5.1.7)-1) date 2020-10-27 19:53:13*
%MOMM*%
%LPD*%
G01*
G04 APERTURE LIST*
%TA.AperFunction,ComponentPad*%
%ADD10C,1.500000*%
%TD*%
%TA.AperFunction,ComponentPad*%
%ADD11C,2.000000*%
%TD*%
%TA.AperFunction,ComponentPad*%
%ADD12R,1.600000X1.600000*%
%TD*%
%TA.AperFunction,ComponentPad*%
%ADD13C,1.600000*%
%TD*%
%TA.AperFunction,ComponentPad*%
%ADD14R,1.700000X1.700000*%
%TD*%
%TA.AperFunction,ComponentPad*%
%ADD15O,1.700000X1.700000*%
%TD*%
%TA.AperFunction,ViaPad*%
%ADD16C,0.800000*%
%TD*%
%TA.AperFunction,Conductor*%
%ADD17C,0.600000*%
%TD*%
%TA.AperFunction,Conductor*%
%ADD18C,1.000000*%
%TD*%
%TA.AperFunction,Conductor*%
%ADD19C,0.400000*%
%TD*%
%TA.AperFunction,Conductor*%
%ADD20C,0.254000*%
%TD*%
%TA.AperFunction,Conductor*%
%ADD21C,0.100000*%
%TD*%
G04 APERTURE END LIST*
D10*
%TO.P,TP1,1*%
%TO.N,Net-(TP1-Pad1)*%
X139500000Y-131000000D03*
%TD*%
%TO.P,TP2,1*%
%TO.N,Net-(TP2-Pad1)*%
X139500000Y-137000000D03*
%TD*%
%TO.P,TP3,1*%
%TO.N,Net-(TP3-Pad1)*%
X139500000Y-141000000D03*
%TD*%
D11*
%TO.P,BT1,*%
%TO.N,*%
X152190000Y-75460000D03*
X158540000Y-75460000D03*
%TO.P,BT1,2*%
%TO.N,Net-(BT1-Pad2)*%
X158540000Y-70380000D03*
%TO.P,BT1,1*%
%TO.N,Net-(BT1-Pad1)*%
X152190000Y-70380000D03*
%TD*%
D12*
%TO.P,SW3,1*%
%TO.N,Net-(SW3-Pad1)*%
X147200000Y-72200000D03*
D13*
%TO.P,SW3,2*%
%TO.N,Net-(BT1-Pad1)*%
X147200000Y-74700000D03*
%TO.P,SW3,3*%
%TO.N,+BATT*%
X147200000Y-77200000D03*
%TO.P,SW3,4*%
%TO.N,Net-(SW3-Pad4)*%
X144000000Y-72200000D03*
%TO.P,SW3,5*%
%TO.N,Net-(BT1-Pad2)*%
X144000000Y-74700000D03*
%TO.P,SW3,6*%
%TO.N,GND*%
X144000000Y-77200000D03*
%TD*%
D14*
%TO.P,J1,1*%
%TO.N,TX*%
X101880000Y-70000000D03*
D15*
%TO.P,J1,2*%
%TO.N,RX*%
X104420000Y-70000000D03*
%TO.P,J1,3*%
%TO.N,IO0*%
X106960000Y-70000000D03*
%TO.P,J1,4*%
%TO.N,GND*%
X109500000Y-70000000D03*
%TO.P,J1,5*%
%TO.N,+3V3*%
X112040000Y-70000000D03*
%TO.P,J1,6*%
%TO.N,RST*%
X114580000Y-70000000D03*
%TD*%
D14*
%TO.P,J2,1*%
%TO.N,GND*%
X125460000Y-123000000D03*
D15*
%TO.P,J2,2*%
%TO.N,+3V3*%
X128000000Y-123000000D03*
%TO.P,J2,3*%
%TO.N,SCL*%
X130540000Y-123000000D03*
%TO.P,J2,4*%
%TO.N,SDA*%
X133080000Y-123000000D03*
%TD*%
D11*
%TO.P,SW1,2*%
%TO.N,GND*%
X110750000Y-136500000D03*
%TO.P,SW1,1*%
%TO.N,SW_ZOMBIE*%
X115250000Y-136500000D03*
%TO.P,SW1,2*%
%TO.N,GND*%
X110750000Y-143000000D03*
%TO.P,SW1,1*%
%TO.N,SW_ZOMBIE*%
X115250000Y-143000000D03*
%TD*%
%TO.P,SW2,1*%
%TO.N,SW_POST*%
X142500000Y-136500000D03*
%TO.P,SW2,2*%
%TO.N,GND*%
X147000000Y-136500000D03*
%TO.P,SW2,1*%
%TO.N,SW_POST*%
X142500000Y-143000000D03*
%TO.P,SW2,2*%
%TO.N,GND*%
X147000000Y-143000000D03*
%TD*%
D10*
%TO.P,TP4,1*%
%TO.N,Net-(R3-Pad2)*%
X113250000Y-125500000D03*
%TD*%
%TO.P,TP5,1*%
%TO.N,IO0*%
X113250000Y-131500000D03*
%TD*%
D14*
%TO.P,J3,1*%
%TO.N,+3V3*%
X146500000Y-95000000D03*
D15*
%TO.P,J3,2*%
%TO.N,GND*%
X143960000Y-95000000D03*
%TO.P,J3,3*%
%TO.N,+BATT*%
X141420000Y-95000000D03*
%TD*%
D16*
%TO.N,+3V3*%
X111000000Y-127000000D03*
X137000000Y-126500000D03*
X135250000Y-128250000D03*
X122000000Y-124000000D03*
%TO.N,GND*%
X132250000Y-114250000D03*
X125500000Y-114250000D03*
X123300000Y-105700000D03*
X130000000Y-105700000D03*
X130000000Y-105700000D03*
X120550000Y-127550000D03*
X118000000Y-126500000D03*
X155054000Y-84000000D03*
X155182000Y-92000000D03*
X155310000Y-100000000D03*
X155438000Y-108000000D03*
X155694000Y-124000000D03*
X155566000Y-116000000D03*
X155822000Y-132000000D03*
X155950000Y-140000000D03*
X101250000Y-96750000D03*
X101250000Y-108750000D03*
X101250000Y-124750000D03*
X101250000Y-132750000D03*
X101250000Y-140750000D03*
X101250000Y-116750000D03*
X110600000Y-139400000D03*
X147000000Y-139800000D03*
%TO.N,TX*%
X109000000Y-130500000D03*
%TO.N,RX*%
X110000000Y-130500000D03*
%TO.N,IO0*%
X111000000Y-130500000D03*
%TO.N,RST*%
X126500000Y-130000000D03*
X114500000Y-77500000D03*
%TO.N,SW_ZOMBIE*%
X132250000Y-132750000D03*
%TO.N,SW_POST*%
X134000000Y-133000000D03*
X142600000Y-138600000D03*
%TO.N,Net-(D2-Pad2)*%
X151000000Y-130500000D03*
X134143000Y-111857000D03*
%TO.N,Net-(D10-Pad2)*%
X115000000Y-148000000D03*
X143500000Y-148000000D03*
%TD*%
D17*
%TO.N,+3V3*%
X109500000Y-84000000D02*
X109299992Y-84200008D01*
X109500000Y-84000000D02*
X108500000Y-85000000D01*
X112040000Y-81460000D02*
X112000000Y-81500000D01*
X112000000Y-81500000D02*
X109500000Y-84000000D01*
X132000000Y-131500000D02*
X135250000Y-128250000D01*
X135250000Y-128250000D02*
X137000000Y-126500000D01*
D18*
X112040000Y-79960000D02*
X112040000Y-81460000D01*
X112040000Y-79040000D02*
X112040000Y-79960000D01*
X112040000Y-81460000D02*
X108500000Y-85000000D01*
X108500000Y-85000000D02*
X108500000Y-124500000D01*
X108500000Y-124500000D02*
X111000000Y-127000000D01*
X111000000Y-127000000D02*
X115500000Y-131500000D01*
X132000000Y-131500000D02*
X137000000Y-126500000D01*
X127750000Y-129621998D02*
X127750000Y-131500000D01*
X122128002Y-124000000D02*
X127750000Y-129621998D01*
X122000000Y-124000000D02*
X122128002Y-124000000D01*
X127750000Y-131500000D02*
X132000000Y-131500000D01*
X115500000Y-131500000D02*
X127750000Y-131500000D01*
X112040000Y-79040000D02*
X112040000Y-76210000D01*
X112040000Y-76210000D02*
X112040000Y-70000000D01*
D19*
%TO.N,TX*%
X102000000Y-70300000D02*
X102300000Y-70000000D01*
X109000000Y-130500000D02*
X109000000Y-130000000D01*
X109000000Y-130000000D02*
X105000000Y-126000000D01*
X105000000Y-126000000D02*
X105000000Y-84000000D01*
X101880000Y-80880000D02*
X102125000Y-81125000D01*
X101880000Y-70000000D02*
X101880000Y-80880000D01*
X102125000Y-81125000D02*
X102000000Y-81000000D01*
X105000000Y-84000000D02*
X102125000Y-81125000D01*
%TO.N,RX*%
X104500000Y-70340000D02*
X104840000Y-70000000D01*
X110000000Y-129500000D02*
X110000000Y-130500000D01*
X106000000Y-83000000D02*
X106000000Y-125500000D01*
X106000000Y-125500000D02*
X110000000Y-129500000D01*
X104420000Y-81420000D02*
X106000000Y-83000000D01*
X104420000Y-70000000D02*
X104420000Y-81420000D01*
%TO.N,IO0*%
X107000000Y-70040000D02*
X106960000Y-70000000D01*
X107000000Y-125000000D02*
X107000000Y-70040000D01*
X111000000Y-129000000D02*
X107000000Y-125000000D01*
X111000000Y-130500000D02*
X111000000Y-129000000D01*
%TO.N,RST*%
X116000000Y-130000000D02*
X110000000Y-124000000D01*
X126500000Y-130000000D02*
X116000000Y-130000000D01*
X110000000Y-124000000D02*
X110000000Y-85500000D01*
X114500000Y-81000000D02*
X110000000Y-85500000D01*
X114500000Y-81000000D02*
X114500000Y-77500000D01*
%TO.N,SW_ZOMBIE*%
X132250000Y-132750000D02*
X115750000Y-132750000D01*
X115250000Y-133250000D02*
X115750000Y-132750000D01*
X115250000Y-136500000D02*
X115250000Y-133250000D01*
%TO.N,SW_POST*%
X134000000Y-133000000D02*
X138500000Y-133000000D01*
X138500000Y-133000000D02*
X141400000Y-133000000D01*
X141400000Y-133000000D02*
X142600000Y-134200000D01*
X142600000Y-134200000D02*
X142600000Y-138600000D01*
%TO.N,Net-(D2-Pad2)*%
X148750000Y-114500000D02*
X136786000Y-114500000D01*
X151000000Y-116750000D02*
X148750000Y-114500000D01*
X136786000Y-114500000D02*
X134143000Y-111857000D01*
X151000000Y-130500000D02*
X151000000Y-116750000D01*
%TO.N,Net-(D10-Pad2)*%
X142500000Y-148000000D02*
X143000000Y-148000000D01*
X141099999Y-146599999D02*
X142500000Y-148000000D01*
X141099999Y-140897997D02*
X141099999Y-146599999D01*
X139702002Y-139500000D02*
X141099999Y-140897997D01*
X116750000Y-140500000D02*
X117750000Y-139500000D01*
X143000000Y-148000000D02*
X143500000Y-148000000D01*
X117750000Y-139500000D02*
X139702002Y-139500000D01*
X116750000Y-147250000D02*
X116750000Y-140500000D01*
X116000000Y-148000000D02*
X116750000Y-147250000D01*
X115000000Y-148000000D02*
X116000000Y-148000000D01*
%TD*%
D20*
%TO.N,GND*%
X157768083Y-66731173D02*
X158511891Y-66934656D01*
X159207905Y-67266638D01*
X159834130Y-67716626D01*
X160370777Y-68270403D01*
X160800871Y-68910451D01*
X161110829Y-69616553D01*
X161292065Y-70371457D01*
X161340000Y-71024207D01*
X161340001Y-143970597D01*
X161268827Y-144768083D01*
X161065344Y-145511890D01*
X160733363Y-146207904D01*
X160283374Y-146834130D01*
X159729597Y-147370777D01*
X159089549Y-147800871D01*
X158383447Y-148110829D01*
X157628543Y-148292065D01*
X156975793Y-148340000D01*
X144479444Y-148340000D01*
X144495226Y-148301898D01*
X144535000Y-148101939D01*
X144535000Y-147898061D01*
X144495226Y-147698102D01*
X144417205Y-147509744D01*
X144303937Y-147340226D01*
X144159774Y-147196063D01*
X143990256Y-147082795D01*
X143801898Y-147004774D01*
X143601939Y-146965000D01*
X143398061Y-146965000D01*
X143198102Y-147004774D01*
X143009744Y-147082795D01*
X142886715Y-147165000D01*
X142845868Y-147165000D01*
X141934999Y-146254132D01*
X141934999Y-144535680D01*
X142023088Y-144572168D01*
X142338967Y-144635000D01*
X142661033Y-144635000D01*
X142976912Y-144572168D01*
X143274463Y-144448918D01*
X143542252Y-144269987D01*
X143676826Y-144135413D01*
X146044192Y-144135413D01*
X146139956Y-144399814D01*
X146429571Y-144540704D01*
X146741108Y-144622384D01*
X147062595Y-144641718D01*
X147381675Y-144597961D01*
X147686088Y-144492795D01*
X147860044Y-144399814D01*
X147955808Y-144135413D01*
X147000000Y-143179605D01*
X146044192Y-144135413D01*
X143676826Y-144135413D01*
X143769987Y-144042252D01*
X143948918Y-143774463D01*
X144072168Y-143476912D01*
X144135000Y-143161033D01*
X144135000Y-143062595D01*
X145358282Y-143062595D01*
X145402039Y-143381675D01*
X145507205Y-143686088D01*
X145600186Y-143860044D01*
X145864587Y-143955808D01*
X146820395Y-143000000D01*
X147179605Y-143000000D01*
X148135413Y-143955808D01*
X148399814Y-143860044D01*
X148540704Y-143570429D01*
X148622384Y-143258892D01*
X148641718Y-142937405D01*
X148597961Y-142618325D01*
X148492795Y-142313912D01*
X148399814Y-142139956D01*
X148135413Y-142044192D01*
X147179605Y-143000000D01*
X146820395Y-143000000D01*
X145864587Y-142044192D01*
X145600186Y-142139956D01*
X145459296Y-142429571D01*
X145377616Y-142741108D01*
X145358282Y-143062595D01*
X144135000Y-143062595D01*
X144135000Y-142838967D01*
X144072168Y-142523088D01*
X143948918Y-142225537D01*
X143769987Y-141957748D01*
X143676826Y-141864587D01*
X146044192Y-141864587D01*
X147000000Y-142820395D01*
X147955808Y-141864587D01*
X147860044Y-141600186D01*
X147570429Y-141459296D01*
X147258892Y-141377616D01*
X146937405Y-141358282D01*
X146618325Y-141402039D01*
X146313912Y-141507205D01*
X146139956Y-141600186D01*
X146044192Y-141864587D01*
X143676826Y-141864587D01*
X143542252Y-141730013D01*
X143274463Y-141551082D01*
X142976912Y-141427832D01*
X142661033Y-141365000D01*
X142338967Y-141365000D01*
X142023088Y-141427832D01*
X141934999Y-141464320D01*
X141934999Y-140939004D01*
X141939038Y-140897996D01*
X141934999Y-140856988D01*
X141934999Y-140856978D01*
X141922917Y-140734308D01*
X141875171Y-140576910D01*
X141797635Y-140431851D01*
X141693290Y-140304706D01*
X141661427Y-140278557D01*
X141627000Y-140244130D01*
X141627000Y-140000000D01*
X141624560Y-139975224D01*
X141617333Y-139951399D01*
X141605597Y-139929443D01*
X141589803Y-139910197D01*
X141570557Y-139894403D01*
X141548601Y-139882667D01*
X141524776Y-139875440D01*
X141500000Y-139873000D01*
X141255870Y-139873000D01*
X140321448Y-138938579D01*
X140295293Y-138906709D01*
X140168148Y-138802364D01*
X140023089Y-138724828D01*
X139865691Y-138677082D01*
X139743021Y-138665000D01*
X139743020Y-138665000D01*
X139702002Y-138660960D01*
X139660984Y-138665000D01*
X117791018Y-138665000D01*
X117750000Y-138660960D01*
X117708982Y-138665000D01*
X117708981Y-138665000D01*
X117586311Y-138677082D01*
X117428913Y-138724828D01*
X117283854Y-138802364D01*
X117156709Y-138906709D01*
X117130563Y-138938568D01*
X116188574Y-139880559D01*
X116156710Y-139906709D01*
X116100481Y-139975224D01*
X116052364Y-140033855D01*
X115974828Y-140178914D01*
X115927082Y-140336312D01*
X115910960Y-140500000D01*
X115915001Y-140541028D01*
X115915001Y-141505741D01*
X115726912Y-141427832D01*
X115411033Y-141365000D01*
X115088967Y-141365000D01*
X114773088Y-141427832D01*
X114475537Y-141551082D01*
X114207748Y-141730013D01*
X113980013Y-141957748D01*
X113801082Y-142225537D01*
X113677832Y-142523088D01*
X113615000Y-142838967D01*
X113615000Y-143161033D01*
X113677832Y-143476912D01*
X113801082Y-143774463D01*
X113980013Y-144042252D01*
X114207748Y-144269987D01*
X114475537Y-144448918D01*
X114773088Y-144572168D01*
X115088967Y-144635000D01*
X115411033Y-144635000D01*
X115726912Y-144572168D01*
X115915000Y-144494259D01*
X115915000Y-146904132D01*
X115654133Y-147165000D01*
X115613285Y-147165000D01*
X115490256Y-147082795D01*
X115301898Y-147004774D01*
X115101939Y-146965000D01*
X114898061Y-146965000D01*
X114698102Y-147004774D01*
X114509744Y-147082795D01*
X114340226Y-147196063D01*
X114196063Y-147340226D01*
X114082795Y-147509744D01*
X114004774Y-147698102D01*
X113965000Y-147898061D01*
X113965000Y-148101939D01*
X114004774Y-148301898D01*
X114020556Y-148340000D01*
X101029392Y-148340000D01*
X100231917Y-148268827D01*
X99488110Y-148065344D01*
X98792096Y-147733363D01*
X98165870Y-147283374D01*
X97629223Y-146729597D01*
X97199129Y-146089549D01*
X96889171Y-145383447D01*
X96707935Y-144628543D01*
X96671722Y-144135413D01*
X109794192Y-144135413D01*
X109889956Y-144399814D01*
X110179571Y-144540704D01*
X110491108Y-144622384D01*
X110812595Y-144641718D01*
X111131675Y-144597961D01*
X111436088Y-144492795D01*
X111610044Y-144399814D01*
X111705808Y-144135413D01*
X110750000Y-143179605D01*
X109794192Y-144135413D01*
X96671722Y-144135413D01*
X96660000Y-143975793D01*
X96660000Y-143062595D01*
X109108282Y-143062595D01*
X109152039Y-143381675D01*
X109257205Y-143686088D01*
X109350186Y-143860044D01*
X109614587Y-143955808D01*
X110570395Y-143000000D01*
X110929605Y-143000000D01*
X111885413Y-143955808D01*
X112149814Y-143860044D01*
X112290704Y-143570429D01*
X112372384Y-143258892D01*
X112391718Y-142937405D01*
X112347961Y-142618325D01*
X112242795Y-142313912D01*
X112149814Y-142139956D01*
X111885413Y-142044192D01*
X110929605Y-143000000D01*
X110570395Y-143000000D01*
X109614587Y-142044192D01*
X109350186Y-142139956D01*
X109209296Y-142429571D01*
X109127616Y-142741108D01*
X109108282Y-143062595D01*
X96660000Y-143062595D01*
X96660000Y-141864587D01*
X109794192Y-141864587D01*
X110750000Y-142820395D01*
X111705808Y-141864587D01*
X111610044Y-141600186D01*
X111320429Y-141459296D01*
X111008892Y-141377616D01*
X110687405Y-141358282D01*
X110368325Y-141402039D01*
X110063912Y-141507205D01*
X109889956Y-141600186D01*
X109794192Y-141864587D01*
X96660000Y-141864587D01*
X96660000Y-137635413D01*
X109794192Y-137635413D01*
X109889956Y-137899814D01*
X110179571Y-138040704D01*
X110491108Y-138122384D01*
X110812595Y-138141718D01*
X111131675Y-138097961D01*
X111436088Y-137992795D01*
X111610044Y-137899814D01*
X111705808Y-137635413D01*
X110750000Y-136679605D01*
X109794192Y-137635413D01*
X96660000Y-137635413D01*
X96660000Y-136562595D01*
X109108282Y-136562595D01*
X109152039Y-136881675D01*
X109257205Y-137186088D01*
X109350186Y-137360044D01*
X109614587Y-137455808D01*
X110570395Y-136500000D01*
X110929605Y-136500000D01*
X111885413Y-137455808D01*
X112149814Y-137360044D01*
X112290704Y-137070429D01*
X112372384Y-136758892D01*
X112391718Y-136437405D01*
X112347961Y-136118325D01*
X112242795Y-135813912D01*
X112149814Y-135639956D01*
X111885413Y-135544192D01*
X110929605Y-136500000D01*
X110570395Y-136500000D01*
X109614587Y-135544192D01*
X109350186Y-135639956D01*
X109209296Y-135929571D01*
X109127616Y-136241108D01*
X109108282Y-136562595D01*
X96660000Y-136562595D01*
X96660000Y-135364587D01*
X109794192Y-135364587D01*
X110750000Y-136320395D01*
X111705808Y-135364587D01*
X111610044Y-135100186D01*
X111320429Y-134959296D01*
X111008892Y-134877616D01*
X110687405Y-134858282D01*
X110368325Y-134902039D01*
X110063912Y-135007205D01*
X109889956Y-135100186D01*
X109794192Y-135364587D01*
X96660000Y-135364587D01*
X96660000Y-71029392D01*
X96731173Y-70231917D01*
X96934656Y-69488109D01*
X97095925Y-69150000D01*
X100391928Y-69150000D01*
X100391928Y-70850000D01*
X100404188Y-70974482D01*
X100440498Y-71094180D01*
X100499463Y-71204494D01*
X100578815Y-71301185D01*
X100675506Y-71380537D01*
X100785820Y-71439502D01*
X100905518Y-71475812D01*
X101030000Y-71488072D01*
X101045000Y-71488072D01*
X101045001Y-80838971D01*
X101040960Y-80880000D01*
X101057082Y-81043688D01*
X101104828Y-81201086D01*
X101182364Y-81346145D01*
X101182365Y-81346146D01*
X101286710Y-81473291D01*
X101318574Y-81499441D01*
X101380562Y-81561429D01*
X101563571Y-81744439D01*
X101563576Y-81744443D01*
X104165001Y-84345869D01*
X104165000Y-125958982D01*
X104160960Y-126000000D01*
X104165000Y-126041018D01*
X104177082Y-126163688D01*
X104224828Y-126321086D01*
X104302364Y-126466145D01*
X104406709Y-126593291D01*
X104438579Y-126619446D01*
X108008423Y-130189291D01*
X108004774Y-130198102D01*
X107965000Y-130398061D01*
X107965000Y-130601939D01*
X108004774Y-130801898D01*
X108082795Y-130990256D01*
X108196063Y-131159774D01*
X108340226Y-131303937D01*
X108509744Y-131417205D01*
X108698102Y-131495226D01*
X108898061Y-131535000D01*
X109101939Y-131535000D01*
X109301898Y-131495226D01*
X109490256Y-131417205D01*
X109500000Y-131410694D01*
X109509744Y-131417205D01*
X109698102Y-131495226D01*
X109898061Y-131535000D01*
X110101939Y-131535000D01*
X110301898Y-131495226D01*
X110490256Y-131417205D01*
X110500000Y-131410694D01*
X110509744Y-131417205D01*
X110698102Y-131495226D01*
X110898061Y-131535000D01*
X111101939Y-131535000D01*
X111301898Y-131495226D01*
X111490256Y-131417205D01*
X111659774Y-131303937D01*
X111803937Y-131159774D01*
X111917205Y-130990256D01*
X111995226Y-130801898D01*
X112035000Y-130601939D01*
X112035000Y-130398061D01*
X111995226Y-130198102D01*
X111917205Y-130009744D01*
X111835000Y-129886715D01*
X111835000Y-129440131D01*
X112645958Y-130251090D01*
X112593957Y-130272629D01*
X112367114Y-130424201D01*
X112174201Y-130617114D01*
X112022629Y-130843957D01*
X111918225Y-131096011D01*
X111865000Y-131363589D01*
X111865000Y-131636411D01*
X111918225Y-131903989D01*
X112022629Y-132156043D01*
X112174201Y-132382886D01*
X112367114Y-132575799D01*
X112593957Y-132727371D01*
X112846011Y-132831775D01*
X113113589Y-132885000D01*
X113386411Y-132885000D01*
X113653989Y-132831775D01*
X113906043Y-132727371D01*
X114132886Y-132575799D01*
X114325799Y-132382886D01*
X114477371Y-132156043D01*
X114498910Y-132104042D01*
X114658009Y-132263141D01*
X114693551Y-132306449D01*
X114866377Y-132448284D01*
X114869291Y-132449842D01*
X114688574Y-132630559D01*
X114656710Y-132656709D01*
X114630562Y-132688571D01*
X114552364Y-132783855D01*
X114474828Y-132928914D01*
X114427082Y-133086312D01*
X114410960Y-133250000D01*
X114415001Y-133291028D01*
X114415000Y-135091531D01*
X114207748Y-135230013D01*
X113980013Y-135457748D01*
X113801082Y-135725537D01*
X113677832Y-136023088D01*
X113615000Y-136338967D01*
X113615000Y-136661033D01*
X113677832Y-136976912D01*
X113801082Y-137274463D01*
X113980013Y-137542252D01*
X114207748Y-137769987D01*
X114475537Y-137948918D01*
X114773088Y-138072168D01*
X115088967Y-138135000D01*
X115411033Y-138135000D01*
X115726912Y-138072168D01*
X116024463Y-137948918D01*
X116292252Y-137769987D01*
X116519987Y-137542252D01*
X116698918Y-137274463D01*
X116822168Y-136976912D01*
X116844709Y-136863589D01*
X138115000Y-136863589D01*
X138115000Y-137136411D01*
X138168225Y-137403989D01*
X138272629Y-137656043D01*
X138424201Y-137882886D01*
X138617114Y-138075799D01*
X138843957Y-138227371D01*
X139096011Y-138331775D01*
X139363589Y-138385000D01*
X139636411Y-138385000D01*
X139903989Y-138331775D01*
X140156043Y-138227371D01*
X140382886Y-138075799D01*
X140575799Y-137882886D01*
X140727371Y-137656043D01*
X140831775Y-137403989D01*
X140885000Y-137136411D01*
X140885000Y-136863589D01*
X140831775Y-136596011D01*
X140727371Y-136343957D01*
X140575799Y-136117114D01*
X140382886Y-135924201D01*
X140156043Y-135772629D01*
X139903989Y-135668225D01*
X139636411Y-135615000D01*
X139363589Y-135615000D01*
X139096011Y-135668225D01*
X138843957Y-135772629D01*
X138617114Y-135924201D01*
X138424201Y-136117114D01*
X138272629Y-136343957D01*
X138168225Y-136596011D01*
X138115000Y-136863589D01*
X116844709Y-136863589D01*
X116885000Y-136661033D01*
X116885000Y-136338967D01*
X116822168Y-136023088D01*
X116698918Y-135725537D01*
X116519987Y-135457748D01*
X116292252Y-135230013D01*
X116085000Y-135091532D01*
X116085000Y-133595867D01*
X116095868Y-133585000D01*
X131636715Y-133585000D01*
X131759744Y-133667205D01*
X131948102Y-133745226D01*
X132148061Y-133785000D01*
X132351939Y-133785000D01*
X132551898Y-133745226D01*
X132740256Y-133667205D01*
X132909774Y-133553937D01*
X133050770Y-133412941D01*
X133082795Y-133490256D01*
X133196063Y-133659774D01*
X133340226Y-133803937D01*
X133509744Y-133917205D01*
X133698102Y-133995226D01*
X133898061Y-134035000D01*
X134101939Y-134035000D01*
X134301898Y-133995226D01*
X134490256Y-133917205D01*
X134613285Y-133835000D01*
X141054133Y-133835000D01*
X141765000Y-134545868D01*
X141765000Y-135034736D01*
X141725537Y-135051082D01*
X141457748Y-135230013D01*
X141230013Y-135457748D01*
X141051082Y-135725537D01*
X140927832Y-136023088D01*
X140865000Y-136338967D01*
X140865000Y-136661033D01*
X140927832Y-136976912D01*
X141051082Y-137274463D01*
X141230013Y-137542252D01*
X141457748Y-137769987D01*
X141725537Y-137948918D01*
X141765001Y-137965265D01*
X141765001Y-137986714D01*
X141682795Y-138109744D01*
X141604774Y-138298102D01*
X141565000Y-138498061D01*
X141565000Y-138701939D01*
X141604774Y-138901898D01*
X141682795Y-139090256D01*
X141796063Y-139259774D01*
X141940226Y-139403937D01*
X142109744Y-139517205D01*
X142298102Y-139595226D01*
X142498061Y-139635000D01*
X142701939Y-139635000D01*
X142901898Y-139595226D01*
X143090256Y-139517205D01*
X143259774Y-139403937D01*
X143403937Y-139259774D01*
X143517205Y-139090256D01*
X143595226Y-138901898D01*
X143635000Y-138701939D01*
X143635000Y-138498061D01*
X143595226Y-138298102D01*
X143517205Y-138109744D01*
X143435000Y-137986715D01*
X143435000Y-137841651D01*
X143542252Y-137769987D01*
X143676826Y-137635413D01*
X146044192Y-137635413D01*
X146139956Y-137899814D01*
X146429571Y-138040704D01*
X146741108Y-138122384D01*
X147062595Y-138141718D01*
X147381675Y-138097961D01*
X147686088Y-137992795D01*
X147860044Y-137899814D01*
X147955808Y-137635413D01*
X147000000Y-136679605D01*
X146044192Y-137635413D01*
X143676826Y-137635413D01*
X143769987Y-137542252D01*
X143948918Y-137274463D01*
X144072168Y-136976912D01*
X144135000Y-136661033D01*
X144135000Y-136562595D01*
X145358282Y-136562595D01*
X145402039Y-136881675D01*
X145507205Y-137186088D01*
X145600186Y-137360044D01*
X145864587Y-137455808D01*
X146820395Y-136500000D01*
X147179605Y-136500000D01*
X148135413Y-137455808D01*
X148399814Y-137360044D01*
X148540704Y-137070429D01*
X148622384Y-136758892D01*
X148641718Y-136437405D01*
X148597961Y-136118325D01*
X148492795Y-135813912D01*
X148399814Y-135639956D01*
X148135413Y-135544192D01*
X147179605Y-136500000D01*
X146820395Y-136500000D01*
X145864587Y-135544192D01*
X145600186Y-135639956D01*
X145459296Y-135929571D01*
X145377616Y-136241108D01*
X145358282Y-136562595D01*
X144135000Y-136562595D01*
X144135000Y-136338967D01*
X144072168Y-136023088D01*
X143948918Y-135725537D01*
X143769987Y-135457748D01*
X143676826Y-135364587D01*
X146044192Y-135364587D01*
X147000000Y-136320395D01*
X147955808Y-135364587D01*
X147860044Y-135100186D01*
X147570429Y-134959296D01*
X147258892Y-134877616D01*
X146937405Y-134858282D01*
X146618325Y-134902039D01*
X146313912Y-135007205D01*
X146139956Y-135100186D01*
X146044192Y-135364587D01*
X143676826Y-135364587D01*
X143542252Y-135230013D01*
X143435000Y-135158349D01*
X143435000Y-134241007D01*
X143439039Y-134199999D01*
X143435000Y-134158991D01*
X143435000Y-134158981D01*
X143422918Y-134036311D01*
X143375172Y-133878913D01*
X143297636Y-133733854D01*
X143193291Y-133606709D01*
X143161428Y-133580560D01*
X142019446Y-132438579D01*
X141993291Y-132406709D01*
X141866146Y-132302364D01*
X141721087Y-132224828D01*
X141563689Y-132177082D01*
X141441019Y-132165000D01*
X141441018Y-132165000D01*
X141400000Y-132160960D01*
X141358982Y-132165000D01*
X140249388Y-132165000D01*
X140382886Y-132075799D01*
X140575799Y-131882886D01*
X140727371Y-131656043D01*
X140831775Y-131403989D01*
X140885000Y-131136411D01*
X140885000Y-130863589D01*
X140831775Y-130596011D01*
X140727371Y-130343957D01*
X140575799Y-130117114D01*
X140382886Y-129924201D01*
X140156043Y-129772629D01*
X139903989Y-129668225D01*
X139636411Y-129615000D01*
X139363589Y-129615000D01*
X139096011Y-129668225D01*
X138843957Y-129772629D01*
X138617114Y-129924201D01*
X138424201Y-130117114D01*
X138272629Y-130343957D01*
X138168225Y-130596011D01*
X138115000Y-130863589D01*
X138115000Y-131136411D01*
X138168225Y-131403989D01*
X138272629Y-131656043D01*
X138424201Y-131882886D01*
X138617114Y-132075799D01*
X138750612Y-132165000D01*
X134613285Y-132165000D01*
X134490256Y-132082795D01*
X134301898Y-132004774D01*
X134101939Y-131965000D01*
X133898061Y-131965000D01*
X133698102Y-132004774D01*
X133509744Y-132082795D01*
X133340226Y-132196063D01*
X133199230Y-132337059D01*
X133167205Y-132259744D01*
X133053937Y-132090226D01*
X133034421Y-132070710D01*
X137841988Y-127263144D01*
X137948284Y-127133623D01*
X138053676Y-126936447D01*
X138118577Y-126722499D01*
X138140491Y-126500000D01*
X138118577Y-126277501D01*
X138053676Y-126063554D01*
X137948284Y-125866378D01*
X137806449Y-125693551D01*
X137633622Y-125551716D01*
X137436446Y-125446324D01*
X137222499Y-125381423D01*
X137000000Y-125359509D01*
X136777501Y-125381423D01*
X136563553Y-125446324D01*
X136366377Y-125551716D01*
X136236856Y-125658012D01*
X131529869Y-130365000D01*
X128885000Y-130365000D01*
X128885000Y-129677750D01*
X128890491Y-129621998D01*
X128868577Y-129399499D01*
X128803676Y-129185551D01*
X128698284Y-128988375D01*
X128556449Y-128815549D01*
X128513141Y-128780007D01*
X123583134Y-123850000D01*
X123971928Y-123850000D01*
X123984188Y-123974482D01*
X124020498Y-124094180D01*
X124079463Y-124204494D01*
X124158815Y-124301185D01*
X124255506Y-124380537D01*
X124365820Y-124439502D01*
X124485518Y-124475812D01*
X124610000Y-124488072D01*
X125174250Y-124485000D01*
X125333000Y-124326250D01*
X125333000Y-123127000D01*
X124133750Y-123127000D01*
X123975000Y-123285750D01*
X123971928Y-123850000D01*
X123583134Y-123850000D01*
X122969998Y-123236865D01*
X122934451Y-123193551D01*
X122761625Y-123051716D01*
X122564449Y-122946324D01*
X122350501Y-122881423D01*
X122183754Y-122865000D01*
X122183753Y-122865000D01*
X122128002Y-122859509D01*
X122072251Y-122865000D01*
X121944248Y-122865000D01*
X121777501Y-122881423D01*
X121563553Y-122946324D01*
X121366377Y-123051716D01*
X121193551Y-123193551D01*
X121051716Y-123366377D01*
X120946324Y-123563553D01*
X120881423Y-123777501D01*
X120859509Y-124000000D01*
X120881423Y-124222499D01*
X120946324Y-124436447D01*
X121051716Y-124633623D01*
X121193551Y-124806449D01*
X121366377Y-124948284D01*
X121563553Y-125053676D01*
X121582205Y-125059334D01*
X125687870Y-129165000D01*
X116345868Y-129165000D01*
X113907359Y-126726492D01*
X114132886Y-126575799D01*
X114325799Y-126382886D01*
X114477371Y-126156043D01*
X114581775Y-125903989D01*
X114635000Y-125636411D01*
X114635000Y-125363589D01*
X114581775Y-125096011D01*
X114477371Y-124843957D01*
X114325799Y-124617114D01*
X114132886Y-124424201D01*
X113906043Y-124272629D01*
X113653989Y-124168225D01*
X113386411Y-124115000D01*
X113113589Y-124115000D01*
X112846011Y-124168225D01*
X112593957Y-124272629D01*
X112367114Y-124424201D01*
X112174201Y-124617114D01*
X112023508Y-124842641D01*
X110835000Y-123654133D01*
X110835000Y-122150000D01*
X123971928Y-122150000D01*
X123975000Y-122714250D01*
X124133750Y-122873000D01*
X125333000Y-122873000D01*
X125333000Y-121673750D01*
X125587000Y-121673750D01*
X125587000Y-122873000D01*
X125607000Y-122873000D01*
X125607000Y-123127000D01*
X125587000Y-123127000D01*
X125587000Y-124326250D01*
X125745750Y-124485000D01*
X126310000Y-124488072D01*
X126434482Y-124475812D01*
X126554180Y-124439502D01*
X126664494Y-124380537D01*
X126761185Y-124301185D01*
X126840537Y-124204494D01*
X126899502Y-124094180D01*
X126921513Y-124021620D01*
X127053368Y-124153475D01*
X127296589Y-124315990D01*
X127566842Y-124427932D01*
X127853740Y-124485000D01*
X128146260Y-124485000D01*
X128433158Y-124427932D01*
X128703411Y-124315990D01*
X128946632Y-124153475D01*
X129153475Y-123946632D01*
X129270000Y-123772240D01*
X129386525Y-123946632D01*
X129593368Y-124153475D01*
X129836589Y-124315990D01*
X130106842Y-124427932D01*
X130393740Y-124485000D01*
X130686260Y-124485000D01*
X130973158Y-124427932D01*
X131243411Y-124315990D01*
X131486632Y-124153475D01*
X131693475Y-123946632D01*
X131810000Y-123772240D01*
X131926525Y-123946632D01*
X132133368Y-124153475D01*
X132376589Y-124315990D01*
X132646842Y-124427932D01*
X132933740Y-124485000D01*
X133226260Y-124485000D01*
X133513158Y-124427932D01*
X133783411Y-124315990D01*
X134026632Y-124153475D01*
X134233475Y-123946632D01*
X134395990Y-123703411D01*
X134507932Y-123433158D01*
X134565000Y-123146260D01*
X134565000Y-122853740D01*
X134507932Y-122566842D01*
X134395990Y-122296589D01*
X134233475Y-122053368D01*
X134026632Y-121846525D01*
X133783411Y-121684010D01*
X133513158Y-121572068D01*
X133226260Y-121515000D01*
X132933740Y-121515000D01*
X132646842Y-121572068D01*
X132376589Y-121684010D01*
X132133368Y-121846525D01*
X131926525Y-122053368D01*
X131810000Y-122227760D01*
X131693475Y-122053368D01*
X131486632Y-121846525D01*
X131243411Y-121684010D01*
X130973158Y-121572068D01*
X130686260Y-121515000D01*
X130393740Y-121515000D01*
X130106842Y-121572068D01*
X129836589Y-121684010D01*
X129593368Y-121846525D01*
X129386525Y-122053368D01*
X129270000Y-122227760D01*
X129153475Y-122053368D01*
X128946632Y-121846525D01*
X128703411Y-121684010D01*
X128433158Y-121572068D01*
X128146260Y-121515000D01*
X127853740Y-121515000D01*
X127566842Y-121572068D01*
X127296589Y-121684010D01*
X127053368Y-121846525D01*
X126921513Y-121978380D01*
X126899502Y-121905820D01*
X126840537Y-121795506D01*
X126761185Y-121698815D01*
X126664494Y-121619463D01*
X126554180Y-121560498D01*
X126434482Y-121524188D01*
X126310000Y-121511928D01*
X125745750Y-121515000D01*
X125587000Y-121673750D01*
X125333000Y-121673750D01*
X125174250Y-121515000D01*
X124610000Y-121511928D01*
X124485518Y-121524188D01*
X124365820Y-121560498D01*
X124255506Y-121619463D01*
X124158815Y-121698815D01*
X124079463Y-121795506D01*
X124020498Y-121905820D01*
X123984188Y-122025518D01*
X123971928Y-122150000D01*
X110835000Y-122150000D01*
X110835000Y-111471665D01*
X111105050Y-111875824D01*
X111624176Y-112394950D01*
X112234604Y-112802824D01*
X112912874Y-113083773D01*
X113632923Y-113227000D01*
X114367077Y-113227000D01*
X115087126Y-113083773D01*
X115765396Y-112802824D01*
X116375824Y-112394950D01*
X116894950Y-111875824D01*
X116975641Y-111755061D01*
X133108000Y-111755061D01*
X133108000Y-111958939D01*
X133147774Y-112158898D01*
X133225795Y-112347256D01*
X133339063Y-112516774D01*
X133483226Y-112660937D01*
X133652744Y-112774205D01*
X133841102Y-112852226D01*
X133986225Y-112881093D01*
X136166559Y-115061427D01*
X136192709Y-115093291D01*
X136319854Y-115197636D01*
X136464913Y-115275172D01*
X136622311Y-115322918D01*
X136744981Y-115335000D01*
X136744991Y-115335000D01*
X136785999Y-115339039D01*
X136827007Y-115335000D01*
X148404133Y-115335000D01*
X150165001Y-117095870D01*
X150165000Y-129886715D01*
X150082795Y-130009744D01*
X150004774Y-130198102D01*
X149965000Y-130398061D01*
X149965000Y-130601939D01*
X150004774Y-130801898D01*
X150082795Y-130990256D01*
X150196063Y-131159774D01*
X150340226Y-131303937D01*
X150509744Y-131417205D01*
X150698102Y-131495226D01*
X150898061Y-131535000D01*
X151101939Y-131535000D01*
X151301898Y-131495226D01*
X151490256Y-131417205D01*
X151659774Y-131303937D01*
X151803937Y-131159774D01*
X151917205Y-130990256D01*
X151995226Y-130801898D01*
X152035000Y-130601939D01*
X152035000Y-130398061D01*
X151995226Y-130198102D01*
X151917205Y-130009744D01*
X151835000Y-129886715D01*
X151835000Y-116791018D01*
X151839040Y-116750000D01*
X151822918Y-116586312D01*
X151775172Y-116428913D01*
X151697636Y-116283854D01*
X151593291Y-116156709D01*
X151561432Y-116130563D01*
X149369446Y-113938579D01*
X149343291Y-113906709D01*
X149216146Y-113802364D01*
X149071087Y-113724828D01*
X148913689Y-113677082D01*
X148791019Y-113665000D01*
X148791018Y-113665000D01*
X148750000Y-113660960D01*
X148708982Y-113665000D01*
X137131868Y-113665000D01*
X135167093Y-111700225D01*
X135138226Y-111555102D01*
X135060205Y-111366744D01*
X134946937Y-111197226D01*
X134802774Y-111053063D01*
X134633256Y-110939795D01*
X134444898Y-110861774D01*
X134244939Y-110822000D01*
X134041061Y-110822000D01*
X133841102Y-110861774D01*
X133652744Y-110939795D01*
X133483226Y-111053063D01*
X133339063Y-111197226D01*
X133225795Y-111366744D01*
X133147774Y-111555102D01*
X133108000Y-111755061D01*
X116975641Y-111755061D01*
X117302824Y-111265396D01*
X117583773Y-110587126D01*
X117727000Y-109867077D01*
X117727000Y-109132923D01*
X140273000Y-109132923D01*
X140273000Y-109867077D01*
X140416227Y-110587126D01*
X140697176Y-111265396D01*
X141105050Y-111875824D01*
X141624176Y-112394950D01*
X142234604Y-112802824D01*
X142912874Y-113083773D01*
X143632923Y-113227000D01*
X144367077Y-113227000D01*
X145087126Y-113083773D01*
X145765396Y-112802824D01*
X146375824Y-112394950D01*
X146894950Y-111875824D01*
X147302824Y-111265396D01*
X147583773Y-110587126D01*
X147727000Y-109867077D01*
X147727000Y-109132923D01*
X147583773Y-108412874D01*
X147302824Y-107734604D01*
X146894950Y-107124176D01*
X146375824Y-106605050D01*
X145765396Y-106197176D01*
X145087126Y-105916227D01*
X144367077Y-105773000D01*
X143632923Y-105773000D01*
X142912874Y-105916227D01*
X142234604Y-106197176D01*
X141624176Y-106605050D01*
X141105050Y-107124176D01*
X140697176Y-107734604D01*
X140416227Y-108412874D01*
X140273000Y-109132923D01*
X117727000Y-109132923D01*
X117583773Y-108412874D01*
X117302824Y-107734604D01*
X116894950Y-107124176D01*
X116375824Y-106605050D01*
X115765396Y-106197176D01*
X115087126Y-105916227D01*
X114367077Y-105773000D01*
X113632923Y-105773000D01*
X112912874Y-105916227D01*
X112234604Y-106197176D01*
X111624176Y-106605050D01*
X111105050Y-107124176D01*
X110835000Y-107528335D01*
X110835000Y-94853740D01*
X139935000Y-94853740D01*
X139935000Y-95146260D01*
X139992068Y-95433158D01*
X140104010Y-95703411D01*
X140266525Y-95946632D01*
X140473368Y-96153475D01*
X140716589Y-96315990D01*
X140986842Y-96427932D01*
X141273740Y-96485000D01*
X141566260Y-96485000D01*
X141853158Y-96427932D01*
X142123411Y-96315990D01*
X142366632Y-96153475D01*
X142573475Y-95946632D01*
X142695195Y-95764466D01*
X142764822Y-95881355D01*
X142959731Y-96097588D01*
X143193080Y-96271641D01*
X143455901Y-96396825D01*
X143603110Y-96441476D01*
X143833000Y-96320155D01*
X143833000Y-95127000D01*
X143813000Y-95127000D01*
X143813000Y-94873000D01*
X143833000Y-94873000D01*
X143833000Y-93679845D01*
X144087000Y-93679845D01*
X144087000Y-94873000D01*
X144107000Y-94873000D01*
X144107000Y-95127000D01*
X144087000Y-95127000D01*
X144087000Y-96320155D01*
X144316890Y-96441476D01*
X144464099Y-96396825D01*
X144726920Y-96271641D01*
X144960269Y-96097588D01*
X145036034Y-96013534D01*
X145060498Y-96094180D01*
X145119463Y-96204494D01*
X145198815Y-96301185D01*
X145295506Y-96380537D01*
X145405820Y-96439502D01*
X145525518Y-96475812D01*
X145650000Y-96488072D01*
X147350000Y-96488072D01*
X147474482Y-96475812D01*
X147594180Y-96439502D01*
X147704494Y-96380537D01*
X147801185Y-96301185D01*
X147880537Y-96204494D01*
X147939502Y-96094180D01*
X147975812Y-95974482D01*
X147988072Y-95850000D01*
X147988072Y-94150000D01*
X147975812Y-94025518D01*
X147939502Y-93905820D01*
X147880537Y-93795506D01*
X147801185Y-93698815D01*
X147704494Y-93619463D01*
X147594180Y-93560498D01*
X147474482Y-93524188D01*
X147350000Y-93511928D01*
X145650000Y-93511928D01*
X145525518Y-93524188D01*
X145405820Y-93560498D01*
X145295506Y-93619463D01*
X145198815Y-93698815D01*
X145119463Y-93795506D01*
X145060498Y-93905820D01*
X145036034Y-93986466D01*
X144960269Y-93902412D01*
X144726920Y-93728359D01*
X144464099Y-93603175D01*
X144316890Y-93558524D01*
X144087000Y-93679845D01*
X143833000Y-93679845D01*
X143603110Y-93558524D01*
X143455901Y-93603175D01*
X143193080Y-93728359D01*
X142959731Y-93902412D01*
X142764822Y-94118645D01*
X142695195Y-94235534D01*
X142573475Y-94053368D01*
X142366632Y-93846525D01*
X142123411Y-93684010D01*
X141853158Y-93572068D01*
X141566260Y-93515000D01*
X141273740Y-93515000D01*
X140986842Y-93572068D01*
X140716589Y-93684010D01*
X140473368Y-93846525D01*
X140266525Y-94053368D01*
X140104010Y-94296589D01*
X139992068Y-94566842D01*
X139935000Y-94853740D01*
X110835000Y-94853740D01*
X110835000Y-85845867D01*
X115061428Y-81619440D01*
X115093291Y-81593291D01*
X115197636Y-81466146D01*
X115275172Y-81321087D01*
X115322918Y-81163689D01*
X115326729Y-81124999D01*
X115339040Y-81000001D01*
X115335000Y-80958982D01*
X115335000Y-78192702D01*
X143186903Y-78192702D01*
X143258486Y-78436671D01*
X143513996Y-78557571D01*
X143788184Y-78626300D01*
X144070512Y-78640217D01*
X144350130Y-78598787D01*
X144616292Y-78503603D01*
X144741514Y-78436671D01*
X144813097Y-78192702D01*
X144000000Y-77379605D01*
X143186903Y-78192702D01*
X115335000Y-78192702D01*
X115335000Y-78113285D01*
X115417205Y-77990256D01*
X115495226Y-77801898D01*
X115535000Y-77601939D01*
X115535000Y-77398061D01*
X115509630Y-77270512D01*
X142559783Y-77270512D01*
X142601213Y-77550130D01*
X142696397Y-77816292D01*
X142763329Y-77941514D01*
X143007298Y-78013097D01*
X143820395Y-77200000D01*
X144179605Y-77200000D01*
X144992702Y-78013097D01*
X145236671Y-77941514D01*
X145357571Y-77686004D01*
X145426300Y-77411816D01*
X145440217Y-77129488D01*
X145398787Y-76849870D01*
X145303603Y-76583708D01*
X145236671Y-76458486D01*
X144992702Y-76386903D01*
X144179605Y-77200000D01*
X143820395Y-77200000D01*
X143007298Y-76386903D01*
X142763329Y-76458486D01*
X142642429Y-76713996D01*
X142573700Y-76988184D01*
X142559783Y-77270512D01*
X115509630Y-77270512D01*
X115495226Y-77198102D01*
X115417205Y-77009744D01*
X115303937Y-76840226D01*
X115159774Y-76696063D01*
X114990256Y-76582795D01*
X114801898Y-76504774D01*
X114601939Y-76465000D01*
X114398061Y-76465000D01*
X114198102Y-76504774D01*
X114009744Y-76582795D01*
X113840226Y-76696063D01*
X113696063Y-76840226D01*
X113582795Y-77009744D01*
X113504774Y-77198102D01*
X113465000Y-77398061D01*
X113465000Y-77601939D01*
X113504774Y-77801898D01*
X113582795Y-77990256D01*
X113665001Y-78113286D01*
X113665000Y-80654132D01*
X113175000Y-81144132D01*
X113175000Y-72961127D01*
X119342789Y-72961127D01*
X119343207Y-73020944D01*
X119342789Y-73080761D01*
X119343689Y-73089933D01*
X119404889Y-73672222D01*
X119416921Y-73730832D01*
X119428127Y-73789580D01*
X119430791Y-73798402D01*
X119603928Y-74357715D01*
X119627098Y-74412833D01*
X119649516Y-74468322D01*
X119653843Y-74476458D01*
X119932319Y-74991490D01*
X119965757Y-75041064D01*
X119998524Y-75091138D01*
X120004348Y-75098279D01*
X120377558Y-75549412D01*
X120420029Y-75591588D01*
X120461857Y-75634301D01*
X120468957Y-75640175D01*
X120922686Y-76010227D01*
X120972494Y-76043320D01*
X121021868Y-76077127D01*
X121029974Y-76081510D01*
X121546939Y-76356384D01*
X121602251Y-76379182D01*
X121657225Y-76402744D01*
X121666028Y-76405469D01*
X122226536Y-76574696D01*
X122285224Y-76586316D01*
X122343727Y-76598752D01*
X122352892Y-76599715D01*
X122935594Y-76656850D01*
X122935598Y-76656850D01*
X122967581Y-76660000D01*
X135032419Y-76660000D01*
X135034713Y-76659774D01*
X135046488Y-76659692D01*
X135076309Y-76656558D01*
X135106292Y-76656558D01*
X135115457Y-76655595D01*
X135697305Y-76590330D01*
X135755808Y-76577894D01*
X135814496Y-76566274D01*
X135823299Y-76563549D01*
X136381390Y-76386512D01*
X136436398Y-76362935D01*
X136491678Y-76340151D01*
X136499784Y-76335768D01*
X137012859Y-76053702D01*
X137062228Y-76019898D01*
X137112040Y-75986804D01*
X137119141Y-75980930D01*
X137567657Y-75604580D01*
X137609485Y-75561866D01*
X137651957Y-75519690D01*
X137657781Y-75512549D01*
X138024656Y-75056249D01*
X138057416Y-75006186D01*
X138090861Y-74956602D01*
X138095187Y-74948466D01*
X138366446Y-74429595D01*
X138388842Y-74374163D01*
X138412036Y-74318987D01*
X138414699Y-74310165D01*
X138580009Y-73748489D01*
X138591217Y-73689737D01*
X138603247Y-73631133D01*
X138604146Y-73621961D01*
X138657211Y-73038873D01*
X138656793Y-72979055D01*
X138657211Y-72919238D01*
X138656311Y-72910067D01*
X138595110Y-72327777D01*
X138583084Y-72269191D01*
X138571873Y-72210420D01*
X138569210Y-72201598D01*
X138524965Y-72058665D01*
X142565000Y-72058665D01*
X142565000Y-72341335D01*
X142620147Y-72618574D01*
X142728320Y-72879727D01*
X142885363Y-73114759D01*
X143085241Y-73314637D01*
X143287827Y-73450000D01*
X143085241Y-73585363D01*
X142885363Y-73785241D01*
X142728320Y-74020273D01*
X142620147Y-74281426D01*
X142565000Y-74558665D01*
X142565000Y-74841335D01*
X142620147Y-75118574D01*
X142728320Y-75379727D01*
X142885363Y-75614759D01*
X143085241Y-75814637D01*
X143285869Y-75948692D01*
X143258486Y-75963329D01*
X143186903Y-76207298D01*
X144000000Y-77020395D01*
X144813097Y-76207298D01*
X144741514Y-75963329D01*
X144712659Y-75949676D01*
X144914759Y-75814637D01*
X145114637Y-75614759D01*
X145271680Y-75379727D01*
X145379853Y-75118574D01*
X145435000Y-74841335D01*
X145435000Y-74558665D01*
X145379853Y-74281426D01*
X145271680Y-74020273D01*
X145114637Y-73785241D01*
X144914759Y-73585363D01*
X144712173Y-73450000D01*
X144914759Y-73314637D01*
X145114637Y-73114759D01*
X145271680Y-72879727D01*
X145379853Y-72618574D01*
X145435000Y-72341335D01*
X145435000Y-72058665D01*
X145379853Y-71781426D01*
X145271680Y-71520273D01*
X145191317Y-71400000D01*
X145761928Y-71400000D01*
X145761928Y-73000000D01*
X145774188Y-73124482D01*
X145810498Y-73244180D01*
X145869463Y-73354494D01*
X145948815Y-73451185D01*
X146045506Y-73530537D01*
X146155820Y-73589502D01*
X146251943Y-73618661D01*
X146085363Y-73785241D01*
X145928320Y-74020273D01*
X145820147Y-74281426D01*
X145765000Y-74558665D01*
X145765000Y-74841335D01*
X145820147Y-75118574D01*
X145928320Y-75379727D01*
X146085363Y-75614759D01*
X146285241Y-75814637D01*
X146487827Y-75950000D01*
X146285241Y-76085363D01*
X146085363Y-76285241D01*
X145928320Y-76520273D01*
X145820147Y-76781426D01*
X145765000Y-77058665D01*
X145765000Y-77341335D01*
X145820147Y-77618574D01*
X145928320Y-77879727D01*
X146085363Y-78114759D01*
X146285241Y-78314637D01*
X146520273Y-78471680D01*
X146781426Y-78579853D01*
X147058665Y-78635000D01*
X147341335Y-78635000D01*
X147618574Y-78579853D01*
X147879727Y-78471680D01*
X148114759Y-78314637D01*
X148314637Y-78114759D01*
X148471680Y-77879727D01*
X148579853Y-77618574D01*
X148635000Y-77341335D01*
X148635000Y-77058665D01*
X148579853Y-76781426D01*
X148471680Y-76520273D01*
X148314637Y-76285241D01*
X148114759Y-76085363D01*
X147912173Y-75950000D01*
X148114759Y-75814637D01*
X148314637Y-75614759D01*
X148471680Y-75379727D01*
X148505131Y-75298967D01*
X150555000Y-75298967D01*
X150555000Y-75621033D01*
X150617832Y-75936912D01*
X150741082Y-76234463D01*
X150920013Y-76502252D01*
X151147748Y-76729987D01*
X151415537Y-76908918D01*
X151713088Y-77032168D01*
X152028967Y-77095000D01*
X152351033Y-77095000D01*
X152666912Y-77032168D01*
X152964463Y-76908918D01*
X153232252Y-76729987D01*
X153459987Y-76502252D01*
X153638918Y-76234463D01*
X153762168Y-75936912D01*
X153825000Y-75621033D01*
X153825000Y-75298967D01*
X156905000Y-75298967D01*
X156905000Y-75621033D01*
X156967832Y-75936912D01*
X157091082Y-76234463D01*
X157270013Y-76502252D01*
X157497748Y-76729987D01*
X157765537Y-76908918D01*
X158063088Y-77032168D01*
X158378967Y-77095000D01*
X158701033Y-77095000D01*
X159016912Y-77032168D01*
X159314463Y-76908918D01*
X159582252Y-76729987D01*
X159809987Y-76502252D01*
X159988918Y-76234463D01*
X160112168Y-75936912D01*
X160175000Y-75621033D01*
X160175000Y-75298967D01*
X160112168Y-74983088D01*
X159988918Y-74685537D01*
X159809987Y-74417748D01*
X159582252Y-74190013D01*
X159314463Y-74011082D01*
X159016912Y-73887832D01*
X158701033Y-73825000D01*
X158378967Y-73825000D01*
X158063088Y-73887832D01*
X157765537Y-74011082D01*
X157497748Y-74190013D01*
X157270013Y-74417748D01*
X157091082Y-74685537D01*
X156967832Y-74983088D01*
X156905000Y-75298967D01*
X153825000Y-75298967D01*
X153762168Y-74983088D01*
X153638918Y-74685537D01*
X153459987Y-74417748D01*
X153232252Y-74190013D01*
X152964463Y-74011082D01*
X152666912Y-73887832D01*
X152351033Y-73825000D01*
X152028967Y-73825000D01*
X151713088Y-73887832D01*
X151415537Y-74011082D01*
X151147748Y-74190013D01*
X150920013Y-74417748D01*
X150741082Y-74685537D01*
X150617832Y-74983088D01*
X150555000Y-75298967D01*
X148505131Y-75298967D01*
X148579853Y-75118574D01*
X148635000Y-74841335D01*
X148635000Y-74558665D01*
X148579853Y-74281426D01*
X148471680Y-74020273D01*
X148314637Y-73785241D01*
X148148057Y-73618661D01*
X148244180Y-73589502D01*
X148354494Y-73530537D01*
X148451185Y-73451185D01*
X148530537Y-73354494D01*
X148589502Y-73244180D01*
X148625812Y-73124482D01*
X148638072Y-73000000D01*
X148638072Y-71400000D01*
X148625812Y-71275518D01*
X148589502Y-71155820D01*
X148530537Y-71045506D01*
X148451185Y-70948815D01*
X148354494Y-70869463D01*
X148244180Y-70810498D01*
X148124482Y-70774188D01*
X148000000Y-70761928D01*
X146400000Y-70761928D01*
X146275518Y-70774188D01*
X146155820Y-70810498D01*
X146045506Y-70869463D01*
X145948815Y-70948815D01*
X145869463Y-71045506D01*
X145810498Y-71155820D01*
X145774188Y-71275518D01*
X145761928Y-71400000D01*
X145191317Y-71400000D01*
X145114637Y-71285241D01*
X144914759Y-71085363D01*
X144679727Y-70928320D01*
X144418574Y-70820147D01*
X144141335Y-70765000D01*
X143858665Y-70765000D01*
X143581426Y-70820147D01*
X143320273Y-70928320D01*
X143085241Y-71085363D01*
X142885363Y-71285241D01*
X142728320Y-71520273D01*
X142620147Y-71781426D01*
X142565000Y-72058665D01*
X138524965Y-72058665D01*
X138396072Y-71642285D01*
X138372902Y-71587167D01*
X138350484Y-71531678D01*
X138346157Y-71523542D01*
X138067681Y-71008510D01*
X138034243Y-70958936D01*
X138001476Y-70908862D01*
X137995652Y-70901721D01*
X137622442Y-70450588D01*
X137579990Y-70408431D01*
X137538144Y-70365699D01*
X137531043Y-70359825D01*
X137358335Y-70218967D01*
X150555000Y-70218967D01*
X150555000Y-70541033D01*
X150617832Y-70856912D01*
X150741082Y-71154463D01*
X150920013Y-71422252D01*
X151147748Y-71649987D01*
X151415537Y-71828918D01*
X151713088Y-71952168D01*
X152028967Y-72015000D01*
X152351033Y-72015000D01*
X152666912Y-71952168D01*
X152964463Y-71828918D01*
X153232252Y-71649987D01*
X153459987Y-71422252D01*
X153638918Y-71154463D01*
X153762168Y-70856912D01*
X153825000Y-70541033D01*
X153825000Y-70218967D01*
X156905000Y-70218967D01*
X156905000Y-70541033D01*
X156967832Y-70856912D01*
X157091082Y-71154463D01*
X157270013Y-71422252D01*
X157497748Y-71649987D01*
X157765537Y-71828918D01*
X158063088Y-71952168D01*
X158378967Y-72015000D01*
X158701033Y-72015000D01*
X159016912Y-71952168D01*
X159314463Y-71828918D01*
X159582252Y-71649987D01*
X159809987Y-71422252D01*
X159988918Y-71154463D01*
X160112168Y-70856912D01*
X160175000Y-70541033D01*
X160175000Y-70218967D01*
X160112168Y-69903088D01*
X159988918Y-69605537D01*
X159809987Y-69337748D01*
X159582252Y-69110013D01*
X159314463Y-68931082D01*
X159016912Y-68807832D01*
X158701033Y-68745000D01*
X158378967Y-68745000D01*
X158063088Y-68807832D01*
X157765537Y-68931082D01*
X157497748Y-69110013D01*
X157270013Y-69337748D01*
X157091082Y-69605537D01*
X156967832Y-69903088D01*
X156905000Y-70218967D01*
X153825000Y-70218967D01*
X153762168Y-69903088D01*
X153638918Y-69605537D01*
X153459987Y-69337748D01*
X153232252Y-69110013D01*
X152964463Y-68931082D01*
X152666912Y-68807832D01*
X152351033Y-68745000D01*
X152028967Y-68745000D01*
X151713088Y-68807832D01*
X151415537Y-68931082D01*
X151147748Y-69110013D01*
X150920013Y-69337748D01*
X150741082Y-69605537D01*
X150617832Y-69903088D01*
X150555000Y-70218967D01*
X137358335Y-70218967D01*
X137077315Y-69989773D01*
X137027504Y-69956679D01*
X136978132Y-69922873D01*
X136970026Y-69918490D01*
X136453062Y-69643616D01*
X136397735Y-69620812D01*
X136342775Y-69597256D01*
X136333971Y-69594531D01*
X135773464Y-69425304D01*
X135714769Y-69413682D01*
X135656273Y-69401248D01*
X135647108Y-69400285D01*
X135064405Y-69343150D01*
X135064402Y-69343150D01*
X135032419Y-69340000D01*
X122967581Y-69340000D01*
X122965287Y-69340226D01*
X122953512Y-69340308D01*
X122923691Y-69343442D01*
X122893708Y-69343442D01*
X122884543Y-69344405D01*
X122302695Y-69409670D01*
X122244192Y-69422106D01*
X122185504Y-69433726D01*
X122176701Y-69436451D01*
X121618610Y-69613488D01*
X121563602Y-69637065D01*
X121508322Y-69659849D01*
X121500216Y-69664232D01*
X120987141Y-69946298D01*
X120937795Y-69980086D01*
X120887960Y-70013196D01*
X120880859Y-70019070D01*
X120432342Y-70395420D01*
X120390479Y-70438170D01*
X120348043Y-70480310D01*
X120342219Y-70487451D01*
X119975344Y-70943751D01*
X119942596Y-70993796D01*
X119909139Y-71043397D01*
X119904813Y-71051534D01*
X119633554Y-71570404D01*
X119611158Y-71625836D01*
X119587964Y-71681012D01*
X119585301Y-71689834D01*
X119419991Y-72251511D01*
X119408790Y-72310230D01*
X119396753Y-72368867D01*
X119395854Y-72378038D01*
X119342789Y-72961127D01*
X113175000Y-72961127D01*
X113175000Y-70965107D01*
X113193475Y-70946632D01*
X113310000Y-70772240D01*
X113426525Y-70946632D01*
X113633368Y-71153475D01*
X113876589Y-71315990D01*
X114146842Y-71427932D01*
X114433740Y-71485000D01*
X114726260Y-71485000D01*
X115013158Y-71427932D01*
X115283411Y-71315990D01*
X115526632Y-71153475D01*
X115733475Y-70946632D01*
X115895990Y-70703411D01*
X116007932Y-70433158D01*
X116065000Y-70146260D01*
X116065000Y-69853740D01*
X116007932Y-69566842D01*
X115895990Y-69296589D01*
X115733475Y-69053368D01*
X115526632Y-68846525D01*
X115283411Y-68684010D01*
X115013158Y-68572068D01*
X114726260Y-68515000D01*
X114433740Y-68515000D01*
X114146842Y-68572068D01*
X113876589Y-68684010D01*
X113633368Y-68846525D01*
X113426525Y-69053368D01*
X113310000Y-69227760D01*
X113193475Y-69053368D01*
X112986632Y-68846525D01*
X112743411Y-68684010D01*
X112473158Y-68572068D01*
X112186260Y-68515000D01*
X111893740Y-68515000D01*
X111606842Y-68572068D01*
X111336589Y-68684010D01*
X111093368Y-68846525D01*
X110886525Y-69053368D01*
X110764805Y-69235534D01*
X110695178Y-69118645D01*
X110500269Y-68902412D01*
X110266920Y-68728359D01*
X110004099Y-68603175D01*
X109856890Y-68558524D01*
X109627000Y-68679845D01*
X109627000Y-69873000D01*
X109647000Y-69873000D01*
X109647000Y-70127000D01*
X109627000Y-70127000D01*
X109627000Y-71320155D01*
X109856890Y-71441476D01*
X110004099Y-71396825D01*
X110266920Y-71271641D01*
X110500269Y-71097588D01*
X110695178Y-70881355D01*
X110764805Y-70764466D01*
X110886525Y-70946632D01*
X110905001Y-70965108D01*
X110905000Y-76265751D01*
X110905001Y-76265761D01*
X110905000Y-78984248D01*
X110905000Y-80989868D01*
X107835000Y-84059869D01*
X107835000Y-71201338D01*
X107906632Y-71153475D01*
X108113475Y-70946632D01*
X108235195Y-70764466D01*
X108304822Y-70881355D01*
X108499731Y-71097588D01*
X108733080Y-71271641D01*
X108995901Y-71396825D01*
X109143110Y-71441476D01*
X109373000Y-71320155D01*
X109373000Y-70127000D01*
X109353000Y-70127000D01*
X109353000Y-69873000D01*
X109373000Y-69873000D01*
X109373000Y-68679845D01*
X109143110Y-68558524D01*
X108995901Y-68603175D01*
X108733080Y-68728359D01*
X108499731Y-68902412D01*
X108304822Y-69118645D01*
X108235195Y-69235534D01*
X108113475Y-69053368D01*
X107906632Y-68846525D01*
X107663411Y-68684010D01*
X107393158Y-68572068D01*
X107106260Y-68515000D01*
X106813740Y-68515000D01*
X106526842Y-68572068D01*
X106256589Y-68684010D01*
X106013368Y-68846525D01*
X105806525Y-69053368D01*
X105690000Y-69227760D01*
X105573475Y-69053368D01*
X105366632Y-68846525D01*
X105123411Y-68684010D01*
X104853158Y-68572068D01*
X104566260Y-68515000D01*
X104273740Y-68515000D01*
X103986842Y-68572068D01*
X103716589Y-68684010D01*
X103473368Y-68846525D01*
X103341513Y-68978380D01*
X103319502Y-68905820D01*
X103260537Y-68795506D01*
X103181185Y-68698815D01*
X103084494Y-68619463D01*
X102974180Y-68560498D01*
X102854482Y-68524188D01*
X102730000Y-68511928D01*
X101030000Y-68511928D01*
X100905518Y-68524188D01*
X100785820Y-68560498D01*
X100675506Y-68619463D01*
X100578815Y-68698815D01*
X100499463Y-68795506D01*
X100440498Y-68905820D01*
X100404188Y-69025518D01*
X100391928Y-69150000D01*
X97095925Y-69150000D01*
X97266638Y-68792095D01*
X97716626Y-68165870D01*
X98270403Y-67629223D01*
X98910451Y-67199129D01*
X99616553Y-66889171D01*
X100371457Y-66707935D01*
X101024207Y-66660000D01*
X156970608Y-66660000D01*
X157768083Y-66731173D01*
%TA.AperFunction,Conductor*%
D21*
G36*
X157768083Y-66731173D02*
G01*
X158511891Y-66934656D01*
X159207905Y-67266638D01*
X159834130Y-67716626D01*
X160370777Y-68270403D01*
X160800871Y-68910451D01*
X161110829Y-69616553D01*
X161292065Y-70371457D01*
X161340000Y-71024207D01*
X161340001Y-143970597D01*
X161268827Y-144768083D01*
X161065344Y-145511890D01*
X160733363Y-146207904D01*
X160283374Y-146834130D01*
X159729597Y-147370777D01*
X159089549Y-147800871D01*
X158383447Y-148110829D01*
X157628543Y-148292065D01*
X156975793Y-148340000D01*
X144479444Y-148340000D01*
X144495226Y-148301898D01*
X144535000Y-148101939D01*
X144535000Y-147898061D01*
X144495226Y-147698102D01*
X144417205Y-147509744D01*
X144303937Y-147340226D01*
X144159774Y-147196063D01*
X143990256Y-147082795D01*
X143801898Y-147004774D01*
X143601939Y-146965000D01*
X143398061Y-146965000D01*
X143198102Y-147004774D01*
X143009744Y-147082795D01*
X142886715Y-147165000D01*
X142845868Y-147165000D01*
X141934999Y-146254132D01*
X141934999Y-144535680D01*
X142023088Y-144572168D01*
X142338967Y-144635000D01*
X142661033Y-144635000D01*
X142976912Y-144572168D01*
X143274463Y-144448918D01*
X143542252Y-144269987D01*
X143676826Y-144135413D01*
X146044192Y-144135413D01*
X146139956Y-144399814D01*
X146429571Y-144540704D01*
X146741108Y-144622384D01*
X147062595Y-144641718D01*
X147381675Y-144597961D01*
X147686088Y-144492795D01*
X147860044Y-144399814D01*
X147955808Y-144135413D01*
X147000000Y-143179605D01*
X146044192Y-144135413D01*
X143676826Y-144135413D01*
X143769987Y-144042252D01*
X143948918Y-143774463D01*
X144072168Y-143476912D01*
X144135000Y-143161033D01*
X144135000Y-143062595D01*
X145358282Y-143062595D01*
X145402039Y-143381675D01*
X145507205Y-143686088D01*
X145600186Y-143860044D01*
X145864587Y-143955808D01*
X146820395Y-143000000D01*
X147179605Y-143000000D01*
X148135413Y-143955808D01*
X148399814Y-143860044D01*
X148540704Y-143570429D01*
X148622384Y-143258892D01*
X148641718Y-142937405D01*
X148597961Y-142618325D01*
X148492795Y-142313912D01*
X148399814Y-142139956D01*
X148135413Y-142044192D01*
X147179605Y-143000000D01*
X146820395Y-143000000D01*
X145864587Y-142044192D01*
X145600186Y-142139956D01*
X145459296Y-142429571D01*
X145377616Y-142741108D01*
X145358282Y-143062595D01*
X144135000Y-143062595D01*
X144135000Y-142838967D01*
X144072168Y-142523088D01*
X143948918Y-142225537D01*
X143769987Y-141957748D01*
X143676826Y-141864587D01*
X146044192Y-141864587D01*
X147000000Y-142820395D01*
X147955808Y-141864587D01*
X147860044Y-141600186D01*
X147570429Y-141459296D01*
X147258892Y-141377616D01*
X146937405Y-141358282D01*
X146618325Y-141402039D01*
X146313912Y-141507205D01*
X146139956Y-141600186D01*
X146044192Y-141864587D01*
X143676826Y-141864587D01*
X143542252Y-141730013D01*
X143274463Y-141551082D01*
X142976912Y-141427832D01*
X142661033Y-141365000D01*
X142338967Y-141365000D01*
X142023088Y-141427832D01*
X141934999Y-141464320D01*
X141934999Y-140939004D01*
X141939038Y-140897996D01*
X141934999Y-140856988D01*
X141934999Y-140856978D01*
X141922917Y-140734308D01*
X141875171Y-140576910D01*
X141797635Y-140431851D01*
X141693290Y-140304706D01*
X141661427Y-140278557D01*
X141627000Y-140244130D01*
X141627000Y-140000000D01*
X141624560Y-139975224D01*
X141617333Y-139951399D01*
X141605597Y-139929443D01*
X141589803Y-139910197D01*
X141570557Y-139894403D01*
X141548601Y-139882667D01*
X141524776Y-139875440D01*
X141500000Y-139873000D01*
X141255870Y-139873000D01*
X140321448Y-138938579D01*
X140295293Y-138906709D01*
X140168148Y-138802364D01*
X140023089Y-138724828D01*
X139865691Y-138677082D01*
X139743021Y-138665000D01*
X139743020Y-138665000D01*
X139702002Y-138660960D01*
X139660984Y-138665000D01*
X117791018Y-138665000D01*
X117750000Y-138660960D01*
X117708982Y-138665000D01*
X117708981Y-138665000D01*
X117586311Y-138677082D01*
X117428913Y-138724828D01*
X117283854Y-138802364D01*
X117156709Y-138906709D01*
X117130563Y-138938568D01*
X116188574Y-139880559D01*
X116156710Y-139906709D01*
X116100481Y-139975224D01*
X116052364Y-140033855D01*
X115974828Y-140178914D01*
X115927082Y-140336312D01*
X115910960Y-140500000D01*
X115915001Y-140541028D01*
X115915001Y-141505741D01*
X115726912Y-141427832D01*
X115411033Y-141365000D01*
X115088967Y-141365000D01*
X114773088Y-141427832D01*
X114475537Y-141551082D01*
X114207748Y-141730013D01*
X113980013Y-141957748D01*
X113801082Y-142225537D01*
X113677832Y-142523088D01*
X113615000Y-142838967D01*
X113615000Y-143161033D01*
X113677832Y-143476912D01*
X113801082Y-143774463D01*
X113980013Y-144042252D01*
X114207748Y-144269987D01*
X114475537Y-144448918D01*
X114773088Y-144572168D01*
X115088967Y-144635000D01*
X115411033Y-144635000D01*
X115726912Y-144572168D01*
X115915000Y-144494259D01*
X115915000Y-146904132D01*
X115654133Y-147165000D01*
X115613285Y-147165000D01*
X115490256Y-147082795D01*
X115301898Y-147004774D01*
X115101939Y-146965000D01*
X114898061Y-146965000D01*
X114698102Y-147004774D01*
X114509744Y-147082795D01*
X114340226Y-147196063D01*
X114196063Y-147340226D01*
X114082795Y-147509744D01*
X114004774Y-147698102D01*
X113965000Y-147898061D01*
X113965000Y-148101939D01*
X114004774Y-148301898D01*
X114020556Y-148340000D01*
X101029392Y-148340000D01*
X100231917Y-148268827D01*
X99488110Y-148065344D01*
X98792096Y-147733363D01*
X98165870Y-147283374D01*
X97629223Y-146729597D01*
X97199129Y-146089549D01*
X96889171Y-145383447D01*
X96707935Y-144628543D01*
X96671722Y-144135413D01*
X109794192Y-144135413D01*
X109889956Y-144399814D01*
X110179571Y-144540704D01*
X110491108Y-144622384D01*
X110812595Y-144641718D01*
X111131675Y-144597961D01*
X111436088Y-144492795D01*
X111610044Y-144399814D01*
X111705808Y-144135413D01*
X110750000Y-143179605D01*
X109794192Y-144135413D01*
X96671722Y-144135413D01*
X96660000Y-143975793D01*
X96660000Y-143062595D01*
X109108282Y-143062595D01*
X109152039Y-143381675D01*
X109257205Y-143686088D01*
X109350186Y-143860044D01*
X109614587Y-143955808D01*
X110570395Y-143000000D01*
X110929605Y-143000000D01*
X111885413Y-143955808D01*
X112149814Y-143860044D01*
X112290704Y-143570429D01*
X112372384Y-143258892D01*
X112391718Y-142937405D01*
X112347961Y-142618325D01*
X112242795Y-142313912D01*
X112149814Y-142139956D01*
X111885413Y-142044192D01*
X110929605Y-143000000D01*
X110570395Y-143000000D01*
X109614587Y-142044192D01*
X109350186Y-142139956D01*
X109209296Y-142429571D01*
X109127616Y-142741108D01*
X109108282Y-143062595D01*
X96660000Y-143062595D01*
X96660000Y-141864587D01*
X109794192Y-141864587D01*
X110750000Y-142820395D01*
X111705808Y-141864587D01*
X111610044Y-141600186D01*
X111320429Y-141459296D01*
X111008892Y-141377616D01*
X110687405Y-141358282D01*
X110368325Y-141402039D01*
X110063912Y-141507205D01*
X109889956Y-141600186D01*
X109794192Y-141864587D01*
X96660000Y-141864587D01*
X96660000Y-137635413D01*
X109794192Y-137635413D01*
X109889956Y-137899814D01*
X110179571Y-138040704D01*
X110491108Y-138122384D01*
X110812595Y-138141718D01*
X111131675Y-138097961D01*
X111436088Y-137992795D01*
X111610044Y-137899814D01*
X111705808Y-137635413D01*
X110750000Y-136679605D01*
X109794192Y-137635413D01*
X96660000Y-137635413D01*
X96660000Y-136562595D01*
X109108282Y-136562595D01*
X109152039Y-136881675D01*
X109257205Y-137186088D01*
X109350186Y-137360044D01*
X109614587Y-137455808D01*
X110570395Y-136500000D01*
X110929605Y-136500000D01*
X111885413Y-137455808D01*
X112149814Y-137360044D01*
X112290704Y-137070429D01*
X112372384Y-136758892D01*
X112391718Y-136437405D01*
X112347961Y-136118325D01*
X112242795Y-135813912D01*
X112149814Y-135639956D01*
X111885413Y-135544192D01*
X110929605Y-136500000D01*
X110570395Y-136500000D01*
X109614587Y-135544192D01*
X109350186Y-135639956D01*
X109209296Y-135929571D01*
X109127616Y-136241108D01*
X109108282Y-136562595D01*
X96660000Y-136562595D01*
X96660000Y-135364587D01*
X109794192Y-135364587D01*
X110750000Y-136320395D01*
X111705808Y-135364587D01*
X111610044Y-135100186D01*
X111320429Y-134959296D01*
X111008892Y-134877616D01*
X110687405Y-134858282D01*
X110368325Y-134902039D01*
X110063912Y-135007205D01*
X109889956Y-135100186D01*
X109794192Y-135364587D01*
X96660000Y-135364587D01*
X96660000Y-71029392D01*
X96731173Y-70231917D01*
X96934656Y-69488109D01*
X97095925Y-69150000D01*
X100391928Y-69150000D01*
X100391928Y-70850000D01*
X100404188Y-70974482D01*
X100440498Y-71094180D01*
X100499463Y-71204494D01*
X100578815Y-71301185D01*
X100675506Y-71380537D01*
X100785820Y-71439502D01*
X100905518Y-71475812D01*
X101030000Y-71488072D01*
X101045000Y-71488072D01*
X101045001Y-80838971D01*
X101040960Y-80880000D01*
X101057082Y-81043688D01*
X101104828Y-81201086D01*
X101182364Y-81346145D01*
X101182365Y-81346146D01*
X101286710Y-81473291D01*
X101318574Y-81499441D01*
X101380562Y-81561429D01*
X101563571Y-81744439D01*
X101563576Y-81744443D01*
X104165001Y-84345869D01*
X104165000Y-125958982D01*
X104160960Y-126000000D01*
X104165000Y-126041018D01*
X104177082Y-126163688D01*
X104224828Y-126321086D01*
X104302364Y-126466145D01*
X104406709Y-126593291D01*
X104438579Y-126619446D01*
X108008423Y-130189291D01*
X108004774Y-130198102D01*
X107965000Y-130398061D01*
X107965000Y-130601939D01*
X108004774Y-130801898D01*
X108082795Y-130990256D01*
X108196063Y-131159774D01*
X108340226Y-131303937D01*
X108509744Y-131417205D01*
X108698102Y-131495226D01*
X108898061Y-131535000D01*
X109101939Y-131535000D01*
X109301898Y-131495226D01*
X109490256Y-131417205D01*
X109500000Y-131410694D01*
X109509744Y-131417205D01*
X109698102Y-131495226D01*
X109898061Y-131535000D01*
X110101939Y-131535000D01*
X110301898Y-131495226D01*
X110490256Y-131417205D01*
X110500000Y-131410694D01*
X110509744Y-131417205D01*
X110698102Y-131495226D01*
X110898061Y-131535000D01*
X111101939Y-131535000D01*
X111301898Y-131495226D01*
X111490256Y-131417205D01*
X111659774Y-131303937D01*
X111803937Y-131159774D01*
X111917205Y-130990256D01*
X111995226Y-130801898D01*
X112035000Y-130601939D01*
X112035000Y-130398061D01*
X111995226Y-130198102D01*
X111917205Y-130009744D01*
X111835000Y-129886715D01*
X111835000Y-129440131D01*
X112645958Y-130251090D01*
X112593957Y-130272629D01*
X112367114Y-130424201D01*
X112174201Y-130617114D01*
X112022629Y-130843957D01*
X111918225Y-131096011D01*
X111865000Y-131363589D01*
X111865000Y-131636411D01*
X111918225Y-131903989D01*
X112022629Y-132156043D01*
X112174201Y-132382886D01*
X112367114Y-132575799D01*
X112593957Y-132727371D01*
X112846011Y-132831775D01*
X113113589Y-132885000D01*
X113386411Y-132885000D01*
X113653989Y-132831775D01*
X113906043Y-132727371D01*
X114132886Y-132575799D01*
X114325799Y-132382886D01*
X114477371Y-132156043D01*
X114498910Y-132104042D01*
X114658009Y-132263141D01*
X114693551Y-132306449D01*
X114866377Y-132448284D01*
X114869291Y-132449842D01*
X114688574Y-132630559D01*
X114656710Y-132656709D01*
X114630562Y-132688571D01*
X114552364Y-132783855D01*
X114474828Y-132928914D01*
X114427082Y-133086312D01*
X114410960Y-133250000D01*
X114415001Y-133291028D01*
X114415000Y-135091531D01*
X114207748Y-135230013D01*
X113980013Y-135457748D01*
X113801082Y-135725537D01*
X113677832Y-136023088D01*
X113615000Y-136338967D01*
X113615000Y-136661033D01*
X113677832Y-136976912D01*
X113801082Y-137274463D01*
X113980013Y-137542252D01*
X114207748Y-137769987D01*
X114475537Y-137948918D01*
X114773088Y-138072168D01*
X115088967Y-138135000D01*
X115411033Y-138135000D01*
X115726912Y-138072168D01*
X116024463Y-137948918D01*
X116292252Y-137769987D01*
X116519987Y-137542252D01*
X116698918Y-137274463D01*
X116822168Y-136976912D01*
X116844709Y-136863589D01*
X138115000Y-136863589D01*
X138115000Y-137136411D01*
X138168225Y-137403989D01*
X138272629Y-137656043D01*
X138424201Y-137882886D01*
X138617114Y-138075799D01*
X138843957Y-138227371D01*
X139096011Y-138331775D01*
X139363589Y-138385000D01*
X139636411Y-138385000D01*
X139903989Y-138331775D01*
X140156043Y-138227371D01*
X140382886Y-138075799D01*
X140575799Y-137882886D01*
X140727371Y-137656043D01*
X140831775Y-137403989D01*
X140885000Y-137136411D01*
X140885000Y-136863589D01*
X140831775Y-136596011D01*
X140727371Y-136343957D01*
X140575799Y-136117114D01*
X140382886Y-135924201D01*
X140156043Y-135772629D01*
X139903989Y-135668225D01*
X139636411Y-135615000D01*
X139363589Y-135615000D01*
X139096011Y-135668225D01*
X138843957Y-135772629D01*
X138617114Y-135924201D01*
X138424201Y-136117114D01*
X138272629Y-136343957D01*
X138168225Y-136596011D01*
X138115000Y-136863589D01*
X116844709Y-136863589D01*
X116885000Y-136661033D01*
X116885000Y-136338967D01*
X116822168Y-136023088D01*
X116698918Y-135725537D01*
X116519987Y-135457748D01*
X116292252Y-135230013D01*
X116085000Y-135091532D01*
X116085000Y-133595867D01*
X116095868Y-133585000D01*
X131636715Y-133585000D01*
X131759744Y-133667205D01*
X131948102Y-133745226D01*
X132148061Y-133785000D01*
X132351939Y-133785000D01*
X132551898Y-133745226D01*
X132740256Y-133667205D01*
X132909774Y-133553937D01*
X133050770Y-133412941D01*
X133082795Y-133490256D01*
X133196063Y-133659774D01*
X133340226Y-133803937D01*
X133509744Y-133917205D01*
X133698102Y-133995226D01*
X133898061Y-134035000D01*
X134101939Y-134035000D01*
X134301898Y-133995226D01*
X134490256Y-133917205D01*
X134613285Y-133835000D01*
X141054133Y-133835000D01*
X141765000Y-134545868D01*
X141765000Y-135034736D01*
X141725537Y-135051082D01*
X141457748Y-135230013D01*
X141230013Y-135457748D01*
X141051082Y-135725537D01*
X140927832Y-136023088D01*
X140865000Y-136338967D01*
X140865000Y-136661033D01*
X140927832Y-136976912D01*
X141051082Y-137274463D01*
X141230013Y-137542252D01*
X141457748Y-137769987D01*
X141725537Y-137948918D01*
X141765001Y-137965265D01*
X141765001Y-137986714D01*
X141682795Y-138109744D01*
X141604774Y-138298102D01*
X141565000Y-138498061D01*
X141565000Y-138701939D01*
X141604774Y-138901898D01*
X141682795Y-139090256D01*
X141796063Y-139259774D01*
X141940226Y-139403937D01*
X142109744Y-139517205D01*
X142298102Y-139595226D01*
X142498061Y-139635000D01*
X142701939Y-139635000D01*
X142901898Y-139595226D01*
X143090256Y-139517205D01*
X143259774Y-139403937D01*
X143403937Y-139259774D01*
X143517205Y-139090256D01*
X143595226Y-138901898D01*
X143635000Y-138701939D01*
X143635000Y-138498061D01*
X143595226Y-138298102D01*
X143517205Y-138109744D01*
X143435000Y-137986715D01*
X143435000Y-137841651D01*
X143542252Y-137769987D01*
X143676826Y-137635413D01*
X146044192Y-137635413D01*
X146139956Y-137899814D01*
X146429571Y-138040704D01*
X146741108Y-138122384D01*
X147062595Y-138141718D01*
X147381675Y-138097961D01*
X147686088Y-137992795D01*
X147860044Y-137899814D01*
X147955808Y-137635413D01*
X147000000Y-136679605D01*
X146044192Y-137635413D01*
X143676826Y-137635413D01*
X143769987Y-137542252D01*
X143948918Y-137274463D01*
X144072168Y-136976912D01*
X144135000Y-136661033D01*
X144135000Y-136562595D01*
X145358282Y-136562595D01*
X145402039Y-136881675D01*
X145507205Y-137186088D01*
X145600186Y-137360044D01*
X145864587Y-137455808D01*
X146820395Y-136500000D01*
X147179605Y-136500000D01*
X148135413Y-137455808D01*
X148399814Y-137360044D01*
X148540704Y-137070429D01*
X148622384Y-136758892D01*
X148641718Y-136437405D01*
X148597961Y-136118325D01*
X148492795Y-135813912D01*
X148399814Y-135639956D01*
X148135413Y-135544192D01*
X147179605Y-136500000D01*
X146820395Y-136500000D01*
X145864587Y-135544192D01*
X145600186Y-135639956D01*
X145459296Y-135929571D01*
X145377616Y-136241108D01*
X145358282Y-136562595D01*
X144135000Y-136562595D01*
X144135000Y-136338967D01*
X144072168Y-136023088D01*
X143948918Y-135725537D01*
X143769987Y-135457748D01*
X143676826Y-135364587D01*
X146044192Y-135364587D01*
X147000000Y-136320395D01*
X147955808Y-135364587D01*
X147860044Y-135100186D01*
X147570429Y-134959296D01*
X147258892Y-134877616D01*
X146937405Y-134858282D01*
X146618325Y-134902039D01*
X146313912Y-135007205D01*
X146139956Y-135100186D01*
X146044192Y-135364587D01*
X143676826Y-135364587D01*
X143542252Y-135230013D01*
X143435000Y-135158349D01*
X143435000Y-134241007D01*
X143439039Y-134199999D01*
X143435000Y-134158991D01*
X143435000Y-134158981D01*
X143422918Y-134036311D01*
X143375172Y-133878913D01*
X143297636Y-133733854D01*
X143193291Y-133606709D01*
X143161428Y-133580560D01*
X142019446Y-132438579D01*
X141993291Y-132406709D01*
X141866146Y-132302364D01*
X141721087Y-132224828D01*
X141563689Y-132177082D01*
X141441019Y-132165000D01*
X141441018Y-132165000D01*
X141400000Y-132160960D01*
X141358982Y-132165000D01*
X140249388Y-132165000D01*
X140382886Y-132075799D01*
X140575799Y-131882886D01*
X140727371Y-131656043D01*
X140831775Y-131403989D01*
X140885000Y-131136411D01*
X140885000Y-130863589D01*
X140831775Y-130596011D01*
X140727371Y-130343957D01*
X140575799Y-130117114D01*
X140382886Y-129924201D01*
X140156043Y-129772629D01*
X139903989Y-129668225D01*
X139636411Y-129615000D01*
X139363589Y-129615000D01*
X139096011Y-129668225D01*
X138843957Y-129772629D01*
X138617114Y-129924201D01*
X138424201Y-130117114D01*
X138272629Y-130343957D01*
X138168225Y-130596011D01*
X138115000Y-130863589D01*
X138115000Y-131136411D01*
X138168225Y-131403989D01*
X138272629Y-131656043D01*
X138424201Y-131882886D01*
X138617114Y-132075799D01*
X138750612Y-132165000D01*
X134613285Y-132165000D01*
X134490256Y-132082795D01*
X134301898Y-132004774D01*
X134101939Y-131965000D01*
X133898061Y-131965000D01*
X133698102Y-132004774D01*
X133509744Y-132082795D01*
X133340226Y-132196063D01*
X133199230Y-132337059D01*
X133167205Y-132259744D01*
X133053937Y-132090226D01*
X133034421Y-132070710D01*
X137841988Y-127263144D01*
X137948284Y-127133623D01*
X138053676Y-126936447D01*
X138118577Y-126722499D01*
X138140491Y-126500000D01*
X138118577Y-126277501D01*
X138053676Y-126063554D01*
X137948284Y-125866378D01*
X137806449Y-125693551D01*
X137633622Y-125551716D01*
X137436446Y-125446324D01*
X137222499Y-125381423D01*
X137000000Y-125359509D01*
X136777501Y-125381423D01*
X136563553Y-125446324D01*
X136366377Y-125551716D01*
X136236856Y-125658012D01*
X131529869Y-130365000D01*
X128885000Y-130365000D01*
X128885000Y-129677750D01*
X128890491Y-129621998D01*
X128868577Y-129399499D01*
X128803676Y-129185551D01*
X128698284Y-128988375D01*
X128556449Y-128815549D01*
X128513141Y-128780007D01*
X123583134Y-123850000D01*
X123971928Y-123850000D01*
X123984188Y-123974482D01*
X124020498Y-124094180D01*
X124079463Y-124204494D01*
X124158815Y-124301185D01*
X124255506Y-124380537D01*
X124365820Y-124439502D01*
X124485518Y-124475812D01*
X124610000Y-124488072D01*
X125174250Y-124485000D01*
X125333000Y-124326250D01*
X125333000Y-123127000D01*
X124133750Y-123127000D01*
X123975000Y-123285750D01*
X123971928Y-123850000D01*
X123583134Y-123850000D01*
X122969998Y-123236865D01*
X122934451Y-123193551D01*
X122761625Y-123051716D01*
X122564449Y-122946324D01*
X122350501Y-122881423D01*
X122183754Y-122865000D01*
X122183753Y-122865000D01*
X122128002Y-122859509D01*
X122072251Y-122865000D01*
X121944248Y-122865000D01*
X121777501Y-122881423D01*
X121563553Y-122946324D01*
X121366377Y-123051716D01*
X121193551Y-123193551D01*
X121051716Y-123366377D01*
X120946324Y-123563553D01*
X120881423Y-123777501D01*
X120859509Y-124000000D01*
X120881423Y-124222499D01*
X120946324Y-124436447D01*
X121051716Y-124633623D01*
X121193551Y-124806449D01*
X121366377Y-124948284D01*
X121563553Y-125053676D01*
X121582205Y-125059334D01*
X125687870Y-129165000D01*
X116345868Y-129165000D01*
X113907359Y-126726492D01*
X114132886Y-126575799D01*
X114325799Y-126382886D01*
X114477371Y-126156043D01*
X114581775Y-125903989D01*
X114635000Y-125636411D01*
X114635000Y-125363589D01*
X114581775Y-125096011D01*
X114477371Y-124843957D01*
X114325799Y-124617114D01*
X114132886Y-124424201D01*
X113906043Y-124272629D01*
X113653989Y-124168225D01*
X113386411Y-124115000D01*
X113113589Y-124115000D01*
X112846011Y-124168225D01*
X112593957Y-124272629D01*
X112367114Y-124424201D01*
X112174201Y-124617114D01*
X112023508Y-124842641D01*
X110835000Y-123654133D01*
X110835000Y-122150000D01*
X123971928Y-122150000D01*
X123975000Y-122714250D01*
X124133750Y-122873000D01*
X125333000Y-122873000D01*
X125333000Y-121673750D01*
X125587000Y-121673750D01*
X125587000Y-122873000D01*
X125607000Y-122873000D01*
X125607000Y-123127000D01*
X125587000Y-123127000D01*
X125587000Y-124326250D01*
X125745750Y-124485000D01*
X126310000Y-124488072D01*
X126434482Y-124475812D01*
X126554180Y-124439502D01*
X126664494Y-124380537D01*
X126761185Y-124301185D01*
X126840537Y-124204494D01*
X126899502Y-124094180D01*
X126921513Y-124021620D01*
X127053368Y-124153475D01*
X127296589Y-124315990D01*
X127566842Y-124427932D01*
X127853740Y-124485000D01*
X128146260Y-124485000D01*
X128433158Y-124427932D01*
X128703411Y-124315990D01*
X128946632Y-124153475D01*
X129153475Y-123946632D01*
X129270000Y-123772240D01*
X129386525Y-123946632D01*
X129593368Y-124153475D01*
X129836589Y-124315990D01*
X130106842Y-124427932D01*
X130393740Y-124485000D01*
X130686260Y-124485000D01*
X130973158Y-124427932D01*
X131243411Y-124315990D01*
X131486632Y-124153475D01*
X131693475Y-123946632D01*
X131810000Y-123772240D01*
X131926525Y-123946632D01*
X132133368Y-124153475D01*
X132376589Y-124315990D01*
X132646842Y-124427932D01*
X132933740Y-124485000D01*
X133226260Y-124485000D01*
X133513158Y-124427932D01*
X133783411Y-124315990D01*
X134026632Y-124153475D01*
X134233475Y-123946632D01*
X134395990Y-123703411D01*
X134507932Y-123433158D01*
X134565000Y-123146260D01*
X134565000Y-122853740D01*
X134507932Y-122566842D01*
X134395990Y-122296589D01*
X134233475Y-122053368D01*
X134026632Y-121846525D01*
X133783411Y-121684010D01*
X133513158Y-121572068D01*
X133226260Y-121515000D01*
X132933740Y-121515000D01*
X132646842Y-121572068D01*
X132376589Y-121684010D01*
X132133368Y-121846525D01*
X131926525Y-122053368D01*
X131810000Y-122227760D01*
X131693475Y-122053368D01*
X131486632Y-121846525D01*
X131243411Y-121684010D01*
X130973158Y-121572068D01*
X130686260Y-121515000D01*
X130393740Y-121515000D01*
X130106842Y-121572068D01*
X129836589Y-121684010D01*
X129593368Y-121846525D01*
X129386525Y-122053368D01*
X129270000Y-122227760D01*
X129153475Y-122053368D01*
X128946632Y-121846525D01*
X128703411Y-121684010D01*
X128433158Y-121572068D01*
X128146260Y-121515000D01*
X127853740Y-121515000D01*
X127566842Y-121572068D01*
X127296589Y-121684010D01*
X127053368Y-121846525D01*
X126921513Y-121978380D01*
X126899502Y-121905820D01*
X126840537Y-121795506D01*
X126761185Y-121698815D01*
X126664494Y-121619463D01*
X126554180Y-121560498D01*
X126434482Y-121524188D01*
X126310000Y-121511928D01*
X125745750Y-121515000D01*
X125587000Y-121673750D01*
X125333000Y-121673750D01*
X125174250Y-121515000D01*
X124610000Y-121511928D01*
X124485518Y-121524188D01*
X124365820Y-121560498D01*
X124255506Y-121619463D01*
X124158815Y-121698815D01*
X124079463Y-121795506D01*
X124020498Y-121905820D01*
X123984188Y-122025518D01*
X123971928Y-122150000D01*
X110835000Y-122150000D01*
X110835000Y-111471665D01*
X111105050Y-111875824D01*
X111624176Y-112394950D01*
X112234604Y-112802824D01*
X112912874Y-113083773D01*
X113632923Y-113227000D01*
X114367077Y-113227000D01*
X115087126Y-113083773D01*
X115765396Y-112802824D01*
X116375824Y-112394950D01*
X116894950Y-111875824D01*
X116975641Y-111755061D01*
X133108000Y-111755061D01*
X133108000Y-111958939D01*
X133147774Y-112158898D01*
X133225795Y-112347256D01*
X133339063Y-112516774D01*
X133483226Y-112660937D01*
X133652744Y-112774205D01*
X133841102Y-112852226D01*
X133986225Y-112881093D01*
X136166559Y-115061427D01*
X136192709Y-115093291D01*
X136319854Y-115197636D01*
X136464913Y-115275172D01*
X136622311Y-115322918D01*
X136744981Y-115335000D01*
X136744991Y-115335000D01*
X136785999Y-115339039D01*
X136827007Y-115335000D01*
X148404133Y-115335000D01*
X150165001Y-117095870D01*
X150165000Y-129886715D01*
X150082795Y-130009744D01*
X150004774Y-130198102D01*
X149965000Y-130398061D01*
X149965000Y-130601939D01*
X150004774Y-130801898D01*
X150082795Y-130990256D01*
X150196063Y-131159774D01*
X150340226Y-131303937D01*
X150509744Y-131417205D01*
X150698102Y-131495226D01*
X150898061Y-131535000D01*
X151101939Y-131535000D01*
X151301898Y-131495226D01*
X151490256Y-131417205D01*
X151659774Y-131303937D01*
X151803937Y-131159774D01*
X151917205Y-130990256D01*
X151995226Y-130801898D01*
X152035000Y-130601939D01*
X152035000Y-130398061D01*
X151995226Y-130198102D01*
X151917205Y-130009744D01*
X151835000Y-129886715D01*
X151835000Y-116791018D01*
X151839040Y-116750000D01*
X151822918Y-116586312D01*
X151775172Y-116428913D01*
X151697636Y-116283854D01*
X151593291Y-116156709D01*
X151561432Y-116130563D01*
X149369446Y-113938579D01*
X149343291Y-113906709D01*
X149216146Y-113802364D01*
X149071087Y-113724828D01*
X148913689Y-113677082D01*
X148791019Y-113665000D01*
X148791018Y-113665000D01*
X148750000Y-113660960D01*
X148708982Y-113665000D01*
X137131868Y-113665000D01*
X135167093Y-111700225D01*
X135138226Y-111555102D01*
X135060205Y-111366744D01*
X134946937Y-111197226D01*
X134802774Y-111053063D01*
X134633256Y-110939795D01*
X134444898Y-110861774D01*
X134244939Y-110822000D01*
X134041061Y-110822000D01*
X133841102Y-110861774D01*
X133652744Y-110939795D01*
X133483226Y-111053063D01*
X133339063Y-111197226D01*
X133225795Y-111366744D01*
X133147774Y-111555102D01*
X133108000Y-111755061D01*
X116975641Y-111755061D01*
X117302824Y-111265396D01*
X117583773Y-110587126D01*
X117727000Y-109867077D01*
X117727000Y-109132923D01*
X140273000Y-109132923D01*
X140273000Y-109867077D01*
X140416227Y-110587126D01*
X140697176Y-111265396D01*
X141105050Y-111875824D01*
X141624176Y-112394950D01*
X142234604Y-112802824D01*
X142912874Y-113083773D01*
X143632923Y-113227000D01*
X144367077Y-113227000D01*
X145087126Y-113083773D01*
X145765396Y-112802824D01*
X146375824Y-112394950D01*
X146894950Y-111875824D01*
X147302824Y-111265396D01*
X147583773Y-110587126D01*
X147727000Y-109867077D01*
X147727000Y-109132923D01*
X147583773Y-108412874D01*
X147302824Y-107734604D01*
X146894950Y-107124176D01*
X146375824Y-106605050D01*
X145765396Y-106197176D01*
X145087126Y-105916227D01*
X144367077Y-105773000D01*
X143632923Y-105773000D01*
X142912874Y-105916227D01*
X142234604Y-106197176D01*
X141624176Y-106605050D01*
X141105050Y-107124176D01*
X140697176Y-107734604D01*
X140416227Y-108412874D01*
X140273000Y-109132923D01*
X117727000Y-109132923D01*
X117583773Y-108412874D01*
X117302824Y-107734604D01*
X116894950Y-107124176D01*
X116375824Y-106605050D01*
X115765396Y-106197176D01*
X115087126Y-105916227D01*
X114367077Y-105773000D01*
X113632923Y-105773000D01*
X112912874Y-105916227D01*
X112234604Y-106197176D01*
X111624176Y-106605050D01*
X111105050Y-107124176D01*
X110835000Y-107528335D01*
X110835000Y-94853740D01*
X139935000Y-94853740D01*
X139935000Y-95146260D01*
X139992068Y-95433158D01*
X140104010Y-95703411D01*
X140266525Y-95946632D01*
X140473368Y-96153475D01*
X140716589Y-96315990D01*
X140986842Y-96427932D01*
X141273740Y-96485000D01*
X141566260Y-96485000D01*
X141853158Y-96427932D01*
X142123411Y-96315990D01*
X142366632Y-96153475D01*
X142573475Y-95946632D01*
X142695195Y-95764466D01*
X142764822Y-95881355D01*
X142959731Y-96097588D01*
X143193080Y-96271641D01*
X143455901Y-96396825D01*
X143603110Y-96441476D01*
X143833000Y-96320155D01*
X143833000Y-95127000D01*
X143813000Y-95127000D01*
X143813000Y-94873000D01*
X143833000Y-94873000D01*
X143833000Y-93679845D01*
X144087000Y-93679845D01*
X144087000Y-94873000D01*
X144107000Y-94873000D01*
X144107000Y-95127000D01*
X144087000Y-95127000D01*
X144087000Y-96320155D01*
X144316890Y-96441476D01*
X144464099Y-96396825D01*
X144726920Y-96271641D01*
X144960269Y-96097588D01*
X145036034Y-96013534D01*
X145060498Y-96094180D01*
X145119463Y-96204494D01*
X145198815Y-96301185D01*
X145295506Y-96380537D01*
X145405820Y-96439502D01*
X145525518Y-96475812D01*
X145650000Y-96488072D01*
X147350000Y-96488072D01*
X147474482Y-96475812D01*
X147594180Y-96439502D01*
X147704494Y-96380537D01*
X147801185Y-96301185D01*
X147880537Y-96204494D01*
X147939502Y-96094180D01*
X147975812Y-95974482D01*
X147988072Y-95850000D01*
X147988072Y-94150000D01*
X147975812Y-94025518D01*
X147939502Y-93905820D01*
X147880537Y-93795506D01*
X147801185Y-93698815D01*
X147704494Y-93619463D01*
X147594180Y-93560498D01*
X147474482Y-93524188D01*
X147350000Y-93511928D01*
X145650000Y-93511928D01*
X145525518Y-93524188D01*
X145405820Y-93560498D01*
X145295506Y-93619463D01*
X145198815Y-93698815D01*
X145119463Y-93795506D01*
X145060498Y-93905820D01*
X145036034Y-93986466D01*
X144960269Y-93902412D01*
X144726920Y-93728359D01*
X144464099Y-93603175D01*
X144316890Y-93558524D01*
X144087000Y-93679845D01*
X143833000Y-93679845D01*
X143603110Y-93558524D01*
X143455901Y-93603175D01*
X143193080Y-93728359D01*
X142959731Y-93902412D01*
X142764822Y-94118645D01*
X142695195Y-94235534D01*
X142573475Y-94053368D01*
X142366632Y-93846525D01*
X142123411Y-93684010D01*
X141853158Y-93572068D01*
X141566260Y-93515000D01*
X141273740Y-93515000D01*
X140986842Y-93572068D01*
X140716589Y-93684010D01*
X140473368Y-93846525D01*
X140266525Y-94053368D01*
X140104010Y-94296589D01*
X139992068Y-94566842D01*
X139935000Y-94853740D01*
X110835000Y-94853740D01*
X110835000Y-85845867D01*
X115061428Y-81619440D01*
X115093291Y-81593291D01*
X115197636Y-81466146D01*
X115275172Y-81321087D01*
X115322918Y-81163689D01*
X115326729Y-81124999D01*
X115339040Y-81000001D01*
X115335000Y-80958982D01*
X115335000Y-78192702D01*
X143186903Y-78192702D01*
X143258486Y-78436671D01*
X143513996Y-78557571D01*
X143788184Y-78626300D01*
X144070512Y-78640217D01*
X144350130Y-78598787D01*
X144616292Y-78503603D01*
X144741514Y-78436671D01*
X144813097Y-78192702D01*
X144000000Y-77379605D01*
X143186903Y-78192702D01*
X115335000Y-78192702D01*
X115335000Y-78113285D01*
X115417205Y-77990256D01*
X115495226Y-77801898D01*
X115535000Y-77601939D01*
X115535000Y-77398061D01*
X115509630Y-77270512D01*
X142559783Y-77270512D01*
X142601213Y-77550130D01*
X142696397Y-77816292D01*
X142763329Y-77941514D01*
X143007298Y-78013097D01*
X143820395Y-77200000D01*
X144179605Y-77200000D01*
X144992702Y-78013097D01*
X145236671Y-77941514D01*
X145357571Y-77686004D01*
X145426300Y-77411816D01*
X145440217Y-77129488D01*
X145398787Y-76849870D01*
X145303603Y-76583708D01*
X145236671Y-76458486D01*
X144992702Y-76386903D01*
X144179605Y-77200000D01*
X143820395Y-77200000D01*
X143007298Y-76386903D01*
X142763329Y-76458486D01*
X142642429Y-76713996D01*
X142573700Y-76988184D01*
X142559783Y-77270512D01*
X115509630Y-77270512D01*
X115495226Y-77198102D01*
X115417205Y-77009744D01*
X115303937Y-76840226D01*
X115159774Y-76696063D01*
X114990256Y-76582795D01*
X114801898Y-76504774D01*
X114601939Y-76465000D01*
X114398061Y-76465000D01*
X114198102Y-76504774D01*
X114009744Y-76582795D01*
X113840226Y-76696063D01*
X113696063Y-76840226D01*
X113582795Y-77009744D01*
X113504774Y-77198102D01*
X113465000Y-77398061D01*
X113465000Y-77601939D01*
X113504774Y-77801898D01*
X113582795Y-77990256D01*
X113665001Y-78113286D01*
X113665000Y-80654132D01*
X113175000Y-81144132D01*
X113175000Y-72961127D01*
X119342789Y-72961127D01*
X119343207Y-73020944D01*
X119342789Y-73080761D01*
X119343689Y-73089933D01*
X119404889Y-73672222D01*
X119416921Y-73730832D01*
X119428127Y-73789580D01*
X119430791Y-73798402D01*
X119603928Y-74357715D01*
X119627098Y-74412833D01*
X119649516Y-74468322D01*
X119653843Y-74476458D01*
X119932319Y-74991490D01*
X119965757Y-75041064D01*
X119998524Y-75091138D01*
X120004348Y-75098279D01*
X120377558Y-75549412D01*
X120420029Y-75591588D01*
X120461857Y-75634301D01*
X120468957Y-75640175D01*
X120922686Y-76010227D01*
X120972494Y-76043320D01*
X121021868Y-76077127D01*
X121029974Y-76081510D01*
X121546939Y-76356384D01*
X121602251Y-76379182D01*
X121657225Y-76402744D01*
X121666028Y-76405469D01*
X122226536Y-76574696D01*
X122285224Y-76586316D01*
X122343727Y-76598752D01*
X122352892Y-76599715D01*
X122935594Y-76656850D01*
X122935598Y-76656850D01*
X122967581Y-76660000D01*
X135032419Y-76660000D01*
X135034713Y-76659774D01*
X135046488Y-76659692D01*
X135076309Y-76656558D01*
X135106292Y-76656558D01*
X135115457Y-76655595D01*
X135697305Y-76590330D01*
X135755808Y-76577894D01*
X135814496Y-76566274D01*
X135823299Y-76563549D01*
X136381390Y-76386512D01*
X136436398Y-76362935D01*
X136491678Y-76340151D01*
X136499784Y-76335768D01*
X137012859Y-76053702D01*
X137062228Y-76019898D01*
X137112040Y-75986804D01*
X137119141Y-75980930D01*
X137567657Y-75604580D01*
X137609485Y-75561866D01*
X137651957Y-75519690D01*
X137657781Y-75512549D01*
X138024656Y-75056249D01*
X138057416Y-75006186D01*
X138090861Y-74956602D01*
X138095187Y-74948466D01*
X138366446Y-74429595D01*
X138388842Y-74374163D01*
X138412036Y-74318987D01*
X138414699Y-74310165D01*
X138580009Y-73748489D01*
X138591217Y-73689737D01*
X138603247Y-73631133D01*
X138604146Y-73621961D01*
X138657211Y-73038873D01*
X138656793Y-72979055D01*
X138657211Y-72919238D01*
X138656311Y-72910067D01*
X138595110Y-72327777D01*
X138583084Y-72269191D01*
X138571873Y-72210420D01*
X138569210Y-72201598D01*
X138524965Y-72058665D01*
X142565000Y-72058665D01*
X142565000Y-72341335D01*
X142620147Y-72618574D01*
X142728320Y-72879727D01*
X142885363Y-73114759D01*
X143085241Y-73314637D01*
X143287827Y-73450000D01*
X143085241Y-73585363D01*
X142885363Y-73785241D01*
X142728320Y-74020273D01*
X142620147Y-74281426D01*
X142565000Y-74558665D01*
X142565000Y-74841335D01*
X142620147Y-75118574D01*
X142728320Y-75379727D01*
X142885363Y-75614759D01*
X143085241Y-75814637D01*
X143285869Y-75948692D01*
X143258486Y-75963329D01*
X143186903Y-76207298D01*
X144000000Y-77020395D01*
X144813097Y-76207298D01*
X144741514Y-75963329D01*
X144712659Y-75949676D01*
X144914759Y-75814637D01*
X145114637Y-75614759D01*
X145271680Y-75379727D01*
X145379853Y-75118574D01*
X145435000Y-74841335D01*
X145435000Y-74558665D01*
X145379853Y-74281426D01*
X145271680Y-74020273D01*
X145114637Y-73785241D01*
X144914759Y-73585363D01*
X144712173Y-73450000D01*
X144914759Y-73314637D01*
X145114637Y-73114759D01*
X145271680Y-72879727D01*
X145379853Y-72618574D01*
X145435000Y-72341335D01*
X145435000Y-72058665D01*
X145379853Y-71781426D01*
X145271680Y-71520273D01*
X145191317Y-71400000D01*
X145761928Y-71400000D01*
X145761928Y-73000000D01*
X145774188Y-73124482D01*
X145810498Y-73244180D01*
X145869463Y-73354494D01*
X145948815Y-73451185D01*
X146045506Y-73530537D01*
X146155820Y-73589502D01*
X146251943Y-73618661D01*
X146085363Y-73785241D01*
X145928320Y-74020273D01*
X145820147Y-74281426D01*
X145765000Y-74558665D01*
X145765000Y-74841335D01*
X145820147Y-75118574D01*
X145928320Y-75379727D01*
X146085363Y-75614759D01*
X146285241Y-75814637D01*
X146487827Y-75950000D01*
X146285241Y-76085363D01*
X146085363Y-76285241D01*
X145928320Y-76520273D01*
X145820147Y-76781426D01*
X145765000Y-77058665D01*
X145765000Y-77341335D01*
X145820147Y-77618574D01*
X145928320Y-77879727D01*
X146085363Y-78114759D01*
X146285241Y-78314637D01*
X146520273Y-78471680D01*
X146781426Y-78579853D01*
X147058665Y-78635000D01*
X147341335Y-78635000D01*
X147618574Y-78579853D01*
X147879727Y-78471680D01*
X148114759Y-78314637D01*
X148314637Y-78114759D01*
X148471680Y-77879727D01*
X148579853Y-77618574D01*
X148635000Y-77341335D01*
X148635000Y-77058665D01*
X148579853Y-76781426D01*
X148471680Y-76520273D01*
X148314637Y-76285241D01*
X148114759Y-76085363D01*
X147912173Y-75950000D01*
X148114759Y-75814637D01*
X148314637Y-75614759D01*
X148471680Y-75379727D01*
X148505131Y-75298967D01*
X150555000Y-75298967D01*
X150555000Y-75621033D01*
X150617832Y-75936912D01*
X150741082Y-76234463D01*
X150920013Y-76502252D01*
X151147748Y-76729987D01*
X151415537Y-76908918D01*
X151713088Y-77032168D01*
X152028967Y-77095000D01*
X152351033Y-77095000D01*
X152666912Y-77032168D01*
X152964463Y-76908918D01*
X153232252Y-76729987D01*
X153459987Y-76502252D01*
X153638918Y-76234463D01*
X153762168Y-75936912D01*
X153825000Y-75621033D01*
X153825000Y-75298967D01*
X156905000Y-75298967D01*
X156905000Y-75621033D01*
X156967832Y-75936912D01*
X157091082Y-76234463D01*
X157270013Y-76502252D01*
X157497748Y-76729987D01*
X157765537Y-76908918D01*
X158063088Y-77032168D01*
X158378967Y-77095000D01*
X158701033Y-77095000D01*
X159016912Y-77032168D01*
X159314463Y-76908918D01*
X159582252Y-76729987D01*
X159809987Y-76502252D01*
X159988918Y-76234463D01*
X160112168Y-75936912D01*
X160175000Y-75621033D01*
X160175000Y-75298967D01*
X160112168Y-74983088D01*
X159988918Y-74685537D01*
X159809987Y-74417748D01*
X159582252Y-74190013D01*
X159314463Y-74011082D01*
X159016912Y-73887832D01*
X158701033Y-73825000D01*
X158378967Y-73825000D01*
X158063088Y-73887832D01*
X157765537Y-74011082D01*
X157497748Y-74190013D01*
X157270013Y-74417748D01*
X157091082Y-74685537D01*
X156967832Y-74983088D01*
X156905000Y-75298967D01*
X153825000Y-75298967D01*
X153762168Y-74983088D01*
X153638918Y-74685537D01*
X153459987Y-74417748D01*
X153232252Y-74190013D01*
X152964463Y-74011082D01*
X152666912Y-73887832D01*
X152351033Y-73825000D01*
X152028967Y-73825000D01*
X151713088Y-73887832D01*
X151415537Y-74011082D01*
X151147748Y-74190013D01*
X150920013Y-74417748D01*
X150741082Y-74685537D01*
X150617832Y-74983088D01*
X150555000Y-75298967D01*
X148505131Y-75298967D01*
X148579853Y-75118574D01*
X148635000Y-74841335D01*
X148635000Y-74558665D01*
X148579853Y-74281426D01*
X148471680Y-74020273D01*
X148314637Y-73785241D01*
X148148057Y-73618661D01*
X148244180Y-73589502D01*
X148354494Y-73530537D01*
X148451185Y-73451185D01*
X148530537Y-73354494D01*
X148589502Y-73244180D01*
X148625812Y-73124482D01*
X148638072Y-73000000D01*
X148638072Y-71400000D01*
X148625812Y-71275518D01*
X148589502Y-71155820D01*
X148530537Y-71045506D01*
X148451185Y-70948815D01*
X148354494Y-70869463D01*
X148244180Y-70810498D01*
X148124482Y-70774188D01*
X148000000Y-70761928D01*
X146400000Y-70761928D01*
X146275518Y-70774188D01*
X146155820Y-70810498D01*
X146045506Y-70869463D01*
X145948815Y-70948815D01*
X145869463Y-71045506D01*
X145810498Y-71155820D01*
X145774188Y-71275518D01*
X145761928Y-71400000D01*
X145191317Y-71400000D01*
X145114637Y-71285241D01*
X144914759Y-71085363D01*
X144679727Y-70928320D01*
X144418574Y-70820147D01*
X144141335Y-70765000D01*
X143858665Y-70765000D01*
X143581426Y-70820147D01*
X143320273Y-70928320D01*
X143085241Y-71085363D01*
X142885363Y-71285241D01*
X142728320Y-71520273D01*
X142620147Y-71781426D01*
X142565000Y-72058665D01*
X138524965Y-72058665D01*
X138396072Y-71642285D01*
X138372902Y-71587167D01*
X138350484Y-71531678D01*
X138346157Y-71523542D01*
X138067681Y-71008510D01*
X138034243Y-70958936D01*
X138001476Y-70908862D01*
X137995652Y-70901721D01*
X137622442Y-70450588D01*
X137579990Y-70408431D01*
X137538144Y-70365699D01*
X137531043Y-70359825D01*
X137358335Y-70218967D01*
X150555000Y-70218967D01*
X150555000Y-70541033D01*
X150617832Y-70856912D01*
X150741082Y-71154463D01*
X150920013Y-71422252D01*
X151147748Y-71649987D01*
X151415537Y-71828918D01*
X151713088Y-71952168D01*
X152028967Y-72015000D01*
X152351033Y-72015000D01*
X152666912Y-71952168D01*
X152964463Y-71828918D01*
X153232252Y-71649987D01*
X153459987Y-71422252D01*
X153638918Y-71154463D01*
X153762168Y-70856912D01*
X153825000Y-70541033D01*
X153825000Y-70218967D01*
X156905000Y-70218967D01*
X156905000Y-70541033D01*
X156967832Y-70856912D01*
X157091082Y-71154463D01*
X157270013Y-71422252D01*
X157497748Y-71649987D01*
X157765537Y-71828918D01*
X158063088Y-71952168D01*
X158378967Y-72015000D01*
X158701033Y-72015000D01*
X159016912Y-71952168D01*
X159314463Y-71828918D01*
X159582252Y-71649987D01*
X159809987Y-71422252D01*
X159988918Y-71154463D01*
X160112168Y-70856912D01*
X160175000Y-70541033D01*
X160175000Y-70218967D01*
X160112168Y-69903088D01*
X159988918Y-69605537D01*
X159809987Y-69337748D01*
X159582252Y-69110013D01*
X159314463Y-68931082D01*
X159016912Y-68807832D01*
X158701033Y-68745000D01*
X158378967Y-68745000D01*
X158063088Y-68807832D01*
X157765537Y-68931082D01*
X157497748Y-69110013D01*
X157270013Y-69337748D01*
X157091082Y-69605537D01*
X156967832Y-69903088D01*
X156905000Y-70218967D01*
X153825000Y-70218967D01*
X153762168Y-69903088D01*
X153638918Y-69605537D01*
X153459987Y-69337748D01*
X153232252Y-69110013D01*
X152964463Y-68931082D01*
X152666912Y-68807832D01*
X152351033Y-68745000D01*
X152028967Y-68745000D01*
X151713088Y-68807832D01*
X151415537Y-68931082D01*
X151147748Y-69110013D01*
X150920013Y-69337748D01*
X150741082Y-69605537D01*
X150617832Y-69903088D01*
X150555000Y-70218967D01*
X137358335Y-70218967D01*
X137077315Y-69989773D01*
X137027504Y-69956679D01*
X136978132Y-69922873D01*
X136970026Y-69918490D01*
X136453062Y-69643616D01*
X136397735Y-69620812D01*
X136342775Y-69597256D01*
X136333971Y-69594531D01*
X135773464Y-69425304D01*
X135714769Y-69413682D01*
X135656273Y-69401248D01*
X135647108Y-69400285D01*
X135064405Y-69343150D01*
X135064402Y-69343150D01*
X135032419Y-69340000D01*
X122967581Y-69340000D01*
X122965287Y-69340226D01*
X122953512Y-69340308D01*
X122923691Y-69343442D01*
X122893708Y-69343442D01*
X122884543Y-69344405D01*
X122302695Y-69409670D01*
X122244192Y-69422106D01*
X122185504Y-69433726D01*
X122176701Y-69436451D01*
X121618610Y-69613488D01*
X121563602Y-69637065D01*
X121508322Y-69659849D01*
X121500216Y-69664232D01*
X120987141Y-69946298D01*
X120937795Y-69980086D01*
X120887960Y-70013196D01*
X120880859Y-70019070D01*
X120432342Y-70395420D01*
X120390479Y-70438170D01*
X120348043Y-70480310D01*
X120342219Y-70487451D01*
X119975344Y-70943751D01*
X119942596Y-70993796D01*
X119909139Y-71043397D01*
X119904813Y-71051534D01*
X119633554Y-71570404D01*
X119611158Y-71625836D01*
X119587964Y-71681012D01*
X119585301Y-71689834D01*
X119419991Y-72251511D01*
X119408790Y-72310230D01*
X119396753Y-72368867D01*
X119395854Y-72378038D01*
X119342789Y-72961127D01*
X113175000Y-72961127D01*
X113175000Y-70965107D01*
X113193475Y-70946632D01*
X113310000Y-70772240D01*
X113426525Y-70946632D01*
X113633368Y-71153475D01*
X113876589Y-71315990D01*
X114146842Y-71427932D01*
X114433740Y-71485000D01*
X114726260Y-71485000D01*
X115013158Y-71427932D01*
X115283411Y-71315990D01*
X115526632Y-71153475D01*
X115733475Y-70946632D01*
X115895990Y-70703411D01*
X116007932Y-70433158D01*
X116065000Y-70146260D01*
X116065000Y-69853740D01*
X116007932Y-69566842D01*
X115895990Y-69296589D01*
X115733475Y-69053368D01*
X115526632Y-68846525D01*
X115283411Y-68684010D01*
X115013158Y-68572068D01*
X114726260Y-68515000D01*
X114433740Y-68515000D01*
X114146842Y-68572068D01*
X113876589Y-68684010D01*
X113633368Y-68846525D01*
X113426525Y-69053368D01*
X113310000Y-69227760D01*
X113193475Y-69053368D01*
X112986632Y-68846525D01*
X112743411Y-68684010D01*
X112473158Y-68572068D01*
X112186260Y-68515000D01*
X111893740Y-68515000D01*
X111606842Y-68572068D01*
X111336589Y-68684010D01*
X111093368Y-68846525D01*
X110886525Y-69053368D01*
X110764805Y-69235534D01*
X110695178Y-69118645D01*
X110500269Y-68902412D01*
X110266920Y-68728359D01*
X110004099Y-68603175D01*
X109856890Y-68558524D01*
X109627000Y-68679845D01*
X109627000Y-69873000D01*
X109647000Y-69873000D01*
X109647000Y-70127000D01*
X109627000Y-70127000D01*
X109627000Y-71320155D01*
X109856890Y-71441476D01*
X110004099Y-71396825D01*
X110266920Y-71271641D01*
X110500269Y-71097588D01*
X110695178Y-70881355D01*
X110764805Y-70764466D01*
X110886525Y-70946632D01*
X110905001Y-70965108D01*
X110905000Y-76265751D01*
X110905001Y-76265761D01*
X110905000Y-78984248D01*
X110905000Y-80989868D01*
X107835000Y-84059869D01*
X107835000Y-71201338D01*
X107906632Y-71153475D01*
X108113475Y-70946632D01*
X108235195Y-70764466D01*
X108304822Y-70881355D01*
X108499731Y-71097588D01*
X108733080Y-71271641D01*
X108995901Y-71396825D01*
X109143110Y-71441476D01*
X109373000Y-71320155D01*
X109373000Y-70127000D01*
X109353000Y-70127000D01*
X109353000Y-69873000D01*
X109373000Y-69873000D01*
X109373000Y-68679845D01*
X109143110Y-68558524D01*
X108995901Y-68603175D01*
X108733080Y-68728359D01*
X108499731Y-68902412D01*
X108304822Y-69118645D01*
X108235195Y-69235534D01*
X108113475Y-69053368D01*
X107906632Y-68846525D01*
X107663411Y-68684010D01*
X107393158Y-68572068D01*
X107106260Y-68515000D01*
X106813740Y-68515000D01*
X106526842Y-68572068D01*
X106256589Y-68684010D01*
X106013368Y-68846525D01*
X105806525Y-69053368D01*
X105690000Y-69227760D01*
X105573475Y-69053368D01*
X105366632Y-68846525D01*
X105123411Y-68684010D01*
X104853158Y-68572068D01*
X104566260Y-68515000D01*
X104273740Y-68515000D01*
X103986842Y-68572068D01*
X103716589Y-68684010D01*
X103473368Y-68846525D01*
X103341513Y-68978380D01*
X103319502Y-68905820D01*
X103260537Y-68795506D01*
X103181185Y-68698815D01*
X103084494Y-68619463D01*
X102974180Y-68560498D01*
X102854482Y-68524188D01*
X102730000Y-68511928D01*
X101030000Y-68511928D01*
X100905518Y-68524188D01*
X100785820Y-68560498D01*
X100675506Y-68619463D01*
X100578815Y-68698815D01*
X100499463Y-68795506D01*
X100440498Y-68905820D01*
X100404188Y-69025518D01*
X100391928Y-69150000D01*
X97095925Y-69150000D01*
X97266638Y-68792095D01*
X97716626Y-68165870D01*
X98270403Y-67629223D01*
X98910451Y-67199129D01*
X99616553Y-66889171D01*
X100371457Y-66707935D01*
X101024207Y-66660000D01*
X156970608Y-66660000D01*
X157768083Y-66731173D01*
G37*
%TD.AperFunction*%
%TD*%
M02*
