%TF.GenerationSoftware,KiCad,Pcbnew,(5.1.7)-1*%
%TF.CreationDate,2020-10-27T19:53:13+01:00*%
%TF.ProjectId,Spytag,53707974-6167-42e6-9b69-6361645f7063,rev?*%
%TF.SameCoordinates,Original*%
%TF.FileFunction,Soldermask,Bot*%
%TF.FilePolarity,Negative*%
%FSLAX46Y46*%
G04 Gerber Fmt 4.6, Leading zero omitted, Abs format (unit mm)*
G04 Created by KiCad (PCBNEW (5.1.7)-1) date 2020-10-27 19:53:13*
%MOMM*%
%LPD*%
G01*
G04 APERTURE LIST*
%ADD10C,1.600000*%
%ADD11C,2.100000*%
%ADD12C,1.700000*%
%ADD13C,3.300000*%
%ADD14O,1.800000X1.800000*%
G04 APERTURE END LIST*
D10*
%TO.C,TP1*%
X139500000Y-131000000D03*
%TD*%
%TO.C,TP2*%
X139500000Y-137000000D03*
%TD*%
%TO.C,TP3*%
X139500000Y-141000000D03*
%TD*%
D11*
%TO.C,BT1*%
X152190000Y-75460000D03*
X158540000Y-75460000D03*
X158540000Y-70380000D03*
X152190000Y-70380000D03*
%TD*%
%TO.C,SW3*%
G36*
G01*
X146400000Y-71350000D02*
X148000000Y-71350000D01*
G75*
G02*
X148050000Y-71400000I0J-50000D01*
G01*
X148050000Y-73000000D01*
G75*
G02*
X148000000Y-73050000I-50000J0D01*
G01*
X146400000Y-73050000D01*
G75*
G02*
X146350000Y-73000000I0J50000D01*
G01*
X146350000Y-71400000D01*
G75*
G02*
X146400000Y-71350000I50000J0D01*
G01*
G37*
D12*
X147200000Y-74700000D03*
X147200000Y-77200000D03*
X144000000Y-72200000D03*
X144000000Y-74700000D03*
X144000000Y-77200000D03*
%TD*%
D13*
%TO.C,H1*%
X144000000Y-109500000D03*
%TD*%
%TO.C,H2*%
X114000000Y-109500000D03*
%TD*%
%TO.C,J1*%
G36*
G01*
X102730000Y-70900000D02*
X101030000Y-70900000D01*
G75*
G02*
X100980000Y-70850000I0J50000D01*
G01*
X100980000Y-69150000D01*
G75*
G02*
X101030000Y-69100000I50000J0D01*
G01*
X102730000Y-69100000D01*
G75*
G02*
X102780000Y-69150000I0J-50000D01*
G01*
X102780000Y-70850000D01*
G75*
G02*
X102730000Y-70900000I-50000J0D01*
G01*
G37*
D14*
X104420000Y-70000000D03*
X106960000Y-70000000D03*
X109500000Y-70000000D03*
X112040000Y-70000000D03*
X114580000Y-70000000D03*
%TD*%
%TO.C,J2*%
G36*
G01*
X126310000Y-123900000D02*
X124610000Y-123900000D01*
G75*
G02*
X124560000Y-123850000I0J50000D01*
G01*
X124560000Y-122150000D01*
G75*
G02*
X124610000Y-122100000I50000J0D01*
G01*
X126310000Y-122100000D01*
G75*
G02*
X126360000Y-122150000I0J-50000D01*
G01*
X126360000Y-123850000D01*
G75*
G02*
X126310000Y-123900000I-50000J0D01*
G01*
G37*
X128000000Y-123000000D03*
X130540000Y-123000000D03*
X133080000Y-123000000D03*
%TD*%
D11*
%TO.C,SW1*%
X110750000Y-136500000D03*
X115250000Y-136500000D03*
X110750000Y-143000000D03*
X115250000Y-143000000D03*
%TD*%
%TO.C,SW2*%
X142500000Y-136500000D03*
X147000000Y-136500000D03*
X142500000Y-143000000D03*
X147000000Y-143000000D03*
%TD*%
D10*
%TO.C,TP4*%
X113250000Y-125500000D03*
%TD*%
%TO.C,TP5*%
X113250000Y-131500000D03*
%TD*%
%TO.C,J3*%
G36*
G01*
X145650000Y-94100000D02*
X147350000Y-94100000D01*
G75*
G02*
X147400000Y-94150000I0J-50000D01*
G01*
X147400000Y-95850000D01*
G75*
G02*
X147350000Y-95900000I-50000J0D01*
G01*
X145650000Y-95900000D01*
G75*
G02*
X145600000Y-95850000I0J50000D01*
G01*
X145600000Y-94150000D01*
G75*
G02*
X145650000Y-94100000I50000J0D01*
G01*
G37*
D14*
X143960000Y-95000000D03*
X141420000Y-95000000D03*
%TD*%
M02*
