M48
; DRILL file {KiCad (5.1.7)-1} date 10/27/20 19:53:19
; FORMAT={-:-/ absolute / inch / decimal}
; #@! TF.CreationDate,2020-10-27T19:53:19+01:00
; #@! TF.GenerationSoftware,Kicad,Pcbnew,(5.1.7)-1
FMAT,2
INCH
T1C0.0157
T2C0.0276
T3C0.0315
T4C0.0394
T5C0.0433
T6C0.0787
T7C0.1260
%
G90
G05
T1
X3.9862Y-3.8091
X3.9862Y-4.2815
X3.9862Y-4.5965
X3.9862Y-4.9114
X3.9862Y-5.2264
X3.9862Y-5.5413
X4.2913Y-5.1378
X4.3307Y-5.1378
X4.3543Y-5.4882
X4.3701Y-5.0
X4.3701Y-5.1378
X4.5079Y-3.0512
X4.5276Y-5.8268
X4.6457Y-4.9803
X4.7461Y-5.0217
X4.8031Y-4.8819
X4.8543Y-4.1614
X4.9409Y-4.498
X4.9803Y-5.1181
X5.1181Y-4.1614
X5.1181Y-4.1614
X5.2067Y-4.498
X5.2067Y-5.2264
X5.2756Y-5.2362
X5.2812Y-4.4038
X5.3248Y-5.0492
X5.3937Y-4.9803
X5.6142Y-5.4567
X5.6496Y-5.8268
X5.7874Y-5.5039
X5.9449Y-5.1378
X6.1045Y-3.3071
X6.1095Y-3.622
X6.1146Y-3.937
X6.1196Y-4.252
X6.1246Y-4.5669
X6.1297Y-4.8819
X6.1347Y-5.1969
X6.1398Y-5.5118
T2
X4.4587Y-5.1772
X4.4587Y-4.9409
X5.4921Y-5.3937
X5.4921Y-5.1575
X5.4921Y-5.5512
T3
X5.6693Y-2.8425
X5.6693Y-2.9409
X5.6693Y-3.0394
X5.7953Y-2.8425
X5.7953Y-2.9409
X5.7953Y-3.0394
T4
X5.9917Y-2.7709
X6.2417Y-2.7709
X4.9394Y-4.8425
X5.0394Y-4.8425
X5.1394Y-4.8425
X5.2394Y-4.8425
X5.5677Y-3.7402
X5.6677Y-3.7402
X5.7677Y-3.7402
X4.011Y-2.7559
X4.111Y-2.7559
X4.211Y-2.7559
X4.311Y-2.7559
X4.411Y-2.7559
X4.511Y-2.7559
T5
X5.6102Y-5.374
X5.6102Y-5.6299
X5.7874Y-5.374
X5.7874Y-5.6299
X4.3602Y-5.374
X4.3602Y-5.6299
X4.5374Y-5.374
X4.5374Y-5.6299
T6
X5.9917Y-2.9709
X6.2417Y-2.9709
T7
X4.4882Y-4.311
X5.6693Y-4.311
T0
M30
