%TF.GenerationSoftware,KiCad,Pcbnew,(5.1.7)-1*%
%TF.CreationDate,2020-10-27T19:53:13+01:00*%
%TF.ProjectId,Spytag,53707974-6167-42e6-9b69-6361645f7063,rev?*%
%TF.SameCoordinates,Original*%
%TF.FileFunction,Legend,Top*%
%TF.FilePolarity,Positive*%
%FSLAX46Y46*%
G04 Gerber Fmt 4.6, Leading zero omitted, Abs format (unit mm)*
G04 Created by KiCad (PCBNEW (5.1.7)-1) date 2020-10-27 19:53:13*
%MOMM*%
%LPD*%
G01*
G04 APERTURE LIST*
%ADD10C,0.120000*%
%ADD11C,0.300000*%
%ADD12C,0.500000*%
%ADD13C,0.100000*%
%ADD14C,0.152400*%
%ADD15C,0.150000*%
%ADD16C,0.400000*%
G04 APERTURE END LIST*
D10*
X140500000Y-105000000D02*
X140500000Y-94000000D01*
X147500000Y-105000000D02*
X140500000Y-105000000D01*
X147500000Y-94000000D02*
X147500000Y-105000000D01*
X140500000Y-94000000D02*
X147500000Y-94000000D01*
D11*
X98714285Y-82261904D02*
X98714285Y-77261904D01*
X101571428Y-82261904D01*
X101571428Y-77261904D01*
X106095238Y-82261904D02*
X106095238Y-79642857D01*
X105857142Y-79166666D01*
X105380952Y-78928571D01*
X104428571Y-78928571D01*
X103952380Y-79166666D01*
X106095238Y-82023809D02*
X105619047Y-82261904D01*
X104428571Y-82261904D01*
X103952380Y-82023809D01*
X103714285Y-81547619D01*
X103714285Y-81071428D01*
X103952380Y-80595238D01*
X104428571Y-80357142D01*
X105619047Y-80357142D01*
X106095238Y-80119047D01*
X110619047Y-82261904D02*
X110619047Y-79642857D01*
X110380952Y-79166666D01*
X109904761Y-78928571D01*
X108952380Y-78928571D01*
X108476190Y-79166666D01*
X110619047Y-82023809D02*
X110142857Y-82261904D01*
X108952380Y-82261904D01*
X108476190Y-82023809D01*
X108238095Y-81547619D01*
X108238095Y-81071428D01*
X108476190Y-80595238D01*
X108952380Y-80357142D01*
X110142857Y-80357142D01*
X110619047Y-80119047D01*
X113000000Y-82261904D02*
X113000000Y-78928571D01*
X113000000Y-79404761D02*
X113238095Y-79166666D01*
X113714285Y-78928571D01*
X114428571Y-78928571D01*
X114904761Y-79166666D01*
X115142857Y-79642857D01*
X115142857Y-82261904D01*
X115142857Y-79642857D02*
X115380952Y-79166666D01*
X115857142Y-78928571D01*
X116571428Y-78928571D01*
X117047619Y-79166666D01*
X117285714Y-79642857D01*
X117285714Y-82261904D01*
X144857142Y-133892857D02*
X145071428Y-133964285D01*
X145142857Y-134035714D01*
X145214285Y-134178571D01*
X145214285Y-134392857D01*
X145142857Y-134535714D01*
X145071428Y-134607142D01*
X144928571Y-134678571D01*
X144357142Y-134678571D01*
X144357142Y-133178571D01*
X144857142Y-133178571D01*
X145000000Y-133250000D01*
X145071428Y-133321428D01*
X145142857Y-133464285D01*
X145142857Y-133607142D01*
X145071428Y-133750000D01*
X145000000Y-133821428D01*
X144857142Y-133892857D01*
X144357142Y-133892857D01*
X112642857Y-134250000D02*
X113357142Y-134250000D01*
X112500000Y-134678571D02*
X113000000Y-133178571D01*
X113500000Y-134678571D01*
X143814285Y-80850000D02*
X144528571Y-80850000D01*
X143671428Y-81278571D02*
X144171428Y-79778571D01*
X144671428Y-81278571D01*
X145100000Y-80850000D02*
X145814285Y-80850000D01*
X144957142Y-81278571D02*
X145457142Y-79778571D01*
X145957142Y-81278571D01*
X146457142Y-81278571D02*
X146457142Y-79778571D01*
X147314285Y-81278571D01*
X147314285Y-79778571D01*
X144242857Y-67978571D02*
X144242857Y-69192857D01*
X144314285Y-69335714D01*
X144385714Y-69407142D01*
X144528571Y-69478571D01*
X144814285Y-69478571D01*
X144957142Y-69407142D01*
X145028571Y-69335714D01*
X145100000Y-69192857D01*
X145100000Y-67978571D01*
X145814285Y-69478571D02*
X145814285Y-67978571D01*
X146314285Y-67978571D02*
X147171428Y-67978571D01*
X146742857Y-69478571D02*
X146742857Y-67978571D01*
D12*
X150000000Y-78000000D02*
X161000000Y-78000000D01*
D13*
X124585714Y-120620000D02*
X124513333Y-120583809D01*
X124404761Y-120583809D01*
X124296190Y-120620000D01*
X124223809Y-120692380D01*
X124187619Y-120764761D01*
X124151428Y-120909523D01*
X124151428Y-121018095D01*
X124187619Y-121162857D01*
X124223809Y-121235238D01*
X124296190Y-121307619D01*
X124404761Y-121343809D01*
X124477142Y-121343809D01*
X124585714Y-121307619D01*
X124621904Y-121271428D01*
X124621904Y-121018095D01*
X124477142Y-121018095D01*
X124947619Y-121343809D02*
X124947619Y-120583809D01*
X125381904Y-121343809D01*
X125381904Y-120583809D01*
X125743809Y-121343809D02*
X125743809Y-120583809D01*
X125924761Y-120583809D01*
X126033333Y-120620000D01*
X126105714Y-120692380D01*
X126141904Y-120764761D01*
X126178095Y-120909523D01*
X126178095Y-121018095D01*
X126141904Y-121162857D01*
X126105714Y-121235238D01*
X126033333Y-121307619D01*
X125924761Y-121343809D01*
X125743809Y-121343809D01*
X127010476Y-120583809D02*
X127480952Y-120583809D01*
X127227619Y-120873333D01*
X127336190Y-120873333D01*
X127408571Y-120909523D01*
X127444761Y-120945714D01*
X127480952Y-121018095D01*
X127480952Y-121199047D01*
X127444761Y-121271428D01*
X127408571Y-121307619D01*
X127336190Y-121343809D01*
X127119047Y-121343809D01*
X127046666Y-121307619D01*
X127010476Y-121271428D01*
X127698095Y-120583809D02*
X127951428Y-121343809D01*
X128204761Y-120583809D01*
X128385714Y-120583809D02*
X128856190Y-120583809D01*
X128602857Y-120873333D01*
X128711428Y-120873333D01*
X128783809Y-120909523D01*
X128820000Y-120945714D01*
X128856190Y-121018095D01*
X128856190Y-121199047D01*
X128820000Y-121271428D01*
X128783809Y-121307619D01*
X128711428Y-121343809D01*
X128494285Y-121343809D01*
X128421904Y-121307619D01*
X128385714Y-121271428D01*
X129724761Y-121307619D02*
X129833333Y-121343809D01*
X130014285Y-121343809D01*
X130086666Y-121307619D01*
X130122857Y-121271428D01*
X130159047Y-121199047D01*
X130159047Y-121126666D01*
X130122857Y-121054285D01*
X130086666Y-121018095D01*
X130014285Y-120981904D01*
X129869523Y-120945714D01*
X129797142Y-120909523D01*
X129760952Y-120873333D01*
X129724761Y-120800952D01*
X129724761Y-120728571D01*
X129760952Y-120656190D01*
X129797142Y-120620000D01*
X129869523Y-120583809D01*
X130050476Y-120583809D01*
X130159047Y-120620000D01*
X130919047Y-121271428D02*
X130882857Y-121307619D01*
X130774285Y-121343809D01*
X130701904Y-121343809D01*
X130593333Y-121307619D01*
X130520952Y-121235238D01*
X130484761Y-121162857D01*
X130448571Y-121018095D01*
X130448571Y-120909523D01*
X130484761Y-120764761D01*
X130520952Y-120692380D01*
X130593333Y-120620000D01*
X130701904Y-120583809D01*
X130774285Y-120583809D01*
X130882857Y-120620000D01*
X130919047Y-120656190D01*
X131606666Y-121343809D02*
X131244761Y-121343809D01*
X131244761Y-120583809D01*
X132402857Y-121307619D02*
X132511428Y-121343809D01*
X132692380Y-121343809D01*
X132764761Y-121307619D01*
X132800952Y-121271428D01*
X132837142Y-121199047D01*
X132837142Y-121126666D01*
X132800952Y-121054285D01*
X132764761Y-121018095D01*
X132692380Y-120981904D01*
X132547619Y-120945714D01*
X132475238Y-120909523D01*
X132439047Y-120873333D01*
X132402857Y-120800952D01*
X132402857Y-120728571D01*
X132439047Y-120656190D01*
X132475238Y-120620000D01*
X132547619Y-120583809D01*
X132728571Y-120583809D01*
X132837142Y-120620000D01*
X133162857Y-121343809D02*
X133162857Y-120583809D01*
X133343809Y-120583809D01*
X133452380Y-120620000D01*
X133524761Y-120692380D01*
X133560952Y-120764761D01*
X133597142Y-120909523D01*
X133597142Y-121018095D01*
X133560952Y-121162857D01*
X133524761Y-121235238D01*
X133452380Y-121307619D01*
X133343809Y-121343809D01*
X133162857Y-121343809D01*
X133886666Y-121126666D02*
X134248571Y-121126666D01*
X133814285Y-121343809D02*
X134067619Y-120583809D01*
X134320952Y-121343809D01*
D11*
X101053571Y-74642857D02*
X101053571Y-73785714D01*
X102553571Y-74214285D02*
X101053571Y-74214285D01*
X101053571Y-73428571D02*
X102553571Y-72428571D01*
X101053571Y-72428571D02*
X102553571Y-73428571D01*
X105103571Y-73750000D02*
X104389285Y-74250000D01*
X105103571Y-74607142D02*
X103603571Y-74607142D01*
X103603571Y-74035714D01*
X103675000Y-73892857D01*
X103746428Y-73821428D01*
X103889285Y-73750000D01*
X104103571Y-73750000D01*
X104246428Y-73821428D01*
X104317857Y-73892857D01*
X104389285Y-74035714D01*
X104389285Y-74607142D01*
X103603571Y-73250000D02*
X105103571Y-72250000D01*
X103603571Y-72250000D02*
X105103571Y-73250000D01*
X107653571Y-75000000D02*
X106153571Y-75000000D01*
X106153571Y-74000000D02*
X106153571Y-73714285D01*
X106225000Y-73571428D01*
X106367857Y-73428571D01*
X106653571Y-73357142D01*
X107153571Y-73357142D01*
X107439285Y-73428571D01*
X107582142Y-73571428D01*
X107653571Y-73714285D01*
X107653571Y-74000000D01*
X107582142Y-74142857D01*
X107439285Y-74285714D01*
X107153571Y-74357142D01*
X106653571Y-74357142D01*
X106367857Y-74285714D01*
X106225000Y-74142857D01*
X106153571Y-74000000D01*
X106153571Y-72428571D02*
X106153571Y-72285714D01*
X106225000Y-72142857D01*
X106296428Y-72071428D01*
X106439285Y-72000000D01*
X106725000Y-71928571D01*
X107082142Y-71928571D01*
X107367857Y-72000000D01*
X107510714Y-72071428D01*
X107582142Y-72142857D01*
X107653571Y-72285714D01*
X107653571Y-72428571D01*
X107582142Y-72571428D01*
X107510714Y-72642857D01*
X107367857Y-72714285D01*
X107082142Y-72785714D01*
X106725000Y-72785714D01*
X106439285Y-72714285D01*
X106296428Y-72642857D01*
X106225000Y-72571428D01*
X106153571Y-72428571D01*
X108775000Y-74642857D02*
X108703571Y-74785714D01*
X108703571Y-75000000D01*
X108775000Y-75214285D01*
X108917857Y-75357142D01*
X109060714Y-75428571D01*
X109346428Y-75500000D01*
X109560714Y-75500000D01*
X109846428Y-75428571D01*
X109989285Y-75357142D01*
X110132142Y-75214285D01*
X110203571Y-75000000D01*
X110203571Y-74857142D01*
X110132142Y-74642857D01*
X110060714Y-74571428D01*
X109560714Y-74571428D01*
X109560714Y-74857142D01*
X110203571Y-73928571D02*
X108703571Y-73928571D01*
X110203571Y-73071428D01*
X108703571Y-73071428D01*
X110203571Y-72357142D02*
X108703571Y-72357142D01*
X108703571Y-72000000D01*
X108775000Y-71785714D01*
X108917857Y-71642857D01*
X109060714Y-71571428D01*
X109346428Y-71500000D01*
X109560714Y-71500000D01*
X109846428Y-71571428D01*
X109989285Y-71642857D01*
X110132142Y-71785714D01*
X110203571Y-72000000D01*
X110203571Y-72357142D01*
X111253571Y-75357142D02*
X111253571Y-74428571D01*
X111825000Y-74928571D01*
X111825000Y-74714285D01*
X111896428Y-74571428D01*
X111967857Y-74500000D01*
X112110714Y-74428571D01*
X112467857Y-74428571D01*
X112610714Y-74500000D01*
X112682142Y-74571428D01*
X112753571Y-74714285D01*
X112753571Y-75142857D01*
X112682142Y-75285714D01*
X112610714Y-75357142D01*
X111253571Y-74000000D02*
X112753571Y-73500000D01*
X111253571Y-73000000D01*
X111253571Y-72642857D02*
X111253571Y-71714285D01*
X111825000Y-72214285D01*
X111825000Y-72000000D01*
X111896428Y-71857142D01*
X111967857Y-71785714D01*
X112110714Y-71714285D01*
X112467857Y-71714285D01*
X112610714Y-71785714D01*
X112682142Y-71857142D01*
X112753571Y-72000000D01*
X112753571Y-72428571D01*
X112682142Y-72571428D01*
X112610714Y-72642857D01*
X115303571Y-74321428D02*
X114589285Y-74821428D01*
X115303571Y-75178571D02*
X113803571Y-75178571D01*
X113803571Y-74607142D01*
X113875000Y-74464285D01*
X113946428Y-74392857D01*
X114089285Y-74321428D01*
X114303571Y-74321428D01*
X114446428Y-74392857D01*
X114517857Y-74464285D01*
X114589285Y-74607142D01*
X114589285Y-75178571D01*
X115232142Y-73750000D02*
X115303571Y-73535714D01*
X115303571Y-73178571D01*
X115232142Y-73035714D01*
X115160714Y-72964285D01*
X115017857Y-72892857D01*
X114875000Y-72892857D01*
X114732142Y-72964285D01*
X114660714Y-73035714D01*
X114589285Y-73178571D01*
X114517857Y-73464285D01*
X114446428Y-73607142D01*
X114375000Y-73678571D01*
X114232142Y-73750000D01*
X114089285Y-73750000D01*
X113946428Y-73678571D01*
X113875000Y-73607142D01*
X113803571Y-73464285D01*
X113803571Y-73107142D01*
X113875000Y-72892857D01*
X113803571Y-72464285D02*
X113803571Y-71607142D01*
X115303571Y-72035714D02*
X113803571Y-72035714D01*
D12*
X108000000Y-102000000D02*
X97000000Y-102000000D01*
D13*
G36*
X137500000Y-101500000D02*
G01*
X120000000Y-101500000D01*
X120000000Y-93000000D01*
X137500000Y-93000000D01*
X137500000Y-101500000D01*
G37*
X137500000Y-101500000D02*
X120000000Y-101500000D01*
X120000000Y-93000000D01*
X137500000Y-93000000D01*
X137500000Y-101500000D01*
D11*
X111023809Y-99761904D02*
X111023809Y-94761904D01*
X113880952Y-99761904D01*
X113880952Y-94761904D01*
X116261904Y-99761904D02*
X116261904Y-96428571D01*
X116261904Y-97380952D02*
X116500000Y-96904761D01*
X116738095Y-96666666D01*
X117214285Y-96428571D01*
X117690476Y-96428571D01*
D13*
G36*
X148000000Y-91000000D02*
G01*
X98000000Y-91000000D01*
X98000000Y-83250000D01*
X148000000Y-83250000D01*
X148000000Y-91000000D01*
G37*
X148000000Y-91000000D02*
X98000000Y-91000000D01*
X98000000Y-83250000D01*
X148000000Y-83250000D01*
X148000000Y-91000000D01*
D11*
X125285714Y-118607142D02*
X125500000Y-118678571D01*
X125857142Y-118678571D01*
X126000000Y-118607142D01*
X126071428Y-118535714D01*
X126142857Y-118392857D01*
X126142857Y-118250000D01*
X126071428Y-118107142D01*
X126000000Y-118035714D01*
X125857142Y-117964285D01*
X125571428Y-117892857D01*
X125428571Y-117821428D01*
X125357142Y-117750000D01*
X125285714Y-117607142D01*
X125285714Y-117464285D01*
X125357142Y-117321428D01*
X125428571Y-117250000D01*
X125571428Y-117178571D01*
X125928571Y-117178571D01*
X126142857Y-117250000D01*
X126571428Y-117178571D02*
X127428571Y-117178571D01*
X127000000Y-118678571D02*
X127000000Y-117178571D01*
X127857142Y-118250000D02*
X128571428Y-118250000D01*
X127714285Y-118678571D02*
X128214285Y-117178571D01*
X128714285Y-118678571D01*
X129000000Y-117178571D02*
X129857142Y-117178571D01*
X129428571Y-118678571D02*
X129428571Y-117178571D01*
X130357142Y-117178571D02*
X130357142Y-118392857D01*
X130428571Y-118535714D01*
X130500000Y-118607142D01*
X130642857Y-118678571D01*
X130928571Y-118678571D01*
X131071428Y-118607142D01*
X131142857Y-118535714D01*
X131214285Y-118392857D01*
X131214285Y-117178571D01*
X131857142Y-118607142D02*
X132071428Y-118678571D01*
X132428571Y-118678571D01*
X132571428Y-118607142D01*
X132642857Y-118535714D01*
X132714285Y-118392857D01*
X132714285Y-118250000D01*
X132642857Y-118107142D01*
X132571428Y-118035714D01*
X132428571Y-117964285D01*
X132142857Y-117892857D01*
X132000000Y-117821428D01*
X131928571Y-117750000D01*
X131857142Y-117607142D01*
X131857142Y-117464285D01*
X131928571Y-117321428D01*
X132000000Y-117250000D01*
X132142857Y-117178571D01*
X132500000Y-117178571D01*
X132714285Y-117250000D01*
D12*
X136750000Y-120000000D02*
X136750000Y-105000000D01*
X121000000Y-120000000D02*
X121000000Y-105000000D01*
D11*
X153178571Y-146990571D02*
X152678571Y-146276285D01*
X152321428Y-146990571D02*
X152321428Y-145490571D01*
X152892857Y-145490571D01*
X153035714Y-145562000D01*
X153107142Y-145633428D01*
X153178571Y-145776285D01*
X153178571Y-145990571D01*
X153107142Y-146133428D01*
X153035714Y-146204857D01*
X152892857Y-146276285D01*
X152321428Y-146276285D01*
X153750000Y-146562000D02*
X154464285Y-146562000D01*
X153607142Y-146990571D02*
X154107142Y-145490571D01*
X154607142Y-146990571D01*
X155107142Y-146990571D02*
X155107142Y-145490571D01*
X155464285Y-145490571D01*
X155678571Y-145562000D01*
X155821428Y-145704857D01*
X155892857Y-145847714D01*
X155964285Y-146133428D01*
X155964285Y-146347714D01*
X155892857Y-146633428D01*
X155821428Y-146776285D01*
X155678571Y-146919142D01*
X155464285Y-146990571D01*
X155107142Y-146990571D01*
X156535714Y-146562000D02*
X157250000Y-146562000D01*
X156392857Y-146990571D02*
X156892857Y-145490571D01*
X157392857Y-146990571D01*
X158750000Y-146990571D02*
X158250000Y-146276285D01*
X157892857Y-146990571D02*
X157892857Y-145490571D01*
X158464285Y-145490571D01*
X158607142Y-145562000D01*
X158678571Y-145633428D01*
X158750000Y-145776285D01*
X158750000Y-145990571D01*
X158678571Y-146133428D01*
X158607142Y-146204857D01*
X158464285Y-146276285D01*
X157892857Y-146276285D01*
X98887142Y-146919142D02*
X99101428Y-146990571D01*
X99458571Y-146990571D01*
X99601428Y-146919142D01*
X99672857Y-146847714D01*
X99744285Y-146704857D01*
X99744285Y-146562000D01*
X99672857Y-146419142D01*
X99601428Y-146347714D01*
X99458571Y-146276285D01*
X99172857Y-146204857D01*
X99030000Y-146133428D01*
X98958571Y-146062000D01*
X98887142Y-145919142D01*
X98887142Y-145776285D01*
X98958571Y-145633428D01*
X99030000Y-145562000D01*
X99172857Y-145490571D01*
X99530000Y-145490571D01*
X99744285Y-145562000D01*
X101244285Y-146847714D02*
X101172857Y-146919142D01*
X100958571Y-146990571D01*
X100815714Y-146990571D01*
X100601428Y-146919142D01*
X100458571Y-146776285D01*
X100387142Y-146633428D01*
X100315714Y-146347714D01*
X100315714Y-146133428D01*
X100387142Y-145847714D01*
X100458571Y-145704857D01*
X100601428Y-145562000D01*
X100815714Y-145490571D01*
X100958571Y-145490571D01*
X101172857Y-145562000D01*
X101244285Y-145633428D01*
X102172857Y-145490571D02*
X102458571Y-145490571D01*
X102601428Y-145562000D01*
X102744285Y-145704857D01*
X102815714Y-145990571D01*
X102815714Y-146490571D01*
X102744285Y-146776285D01*
X102601428Y-146919142D01*
X102458571Y-146990571D01*
X102172857Y-146990571D01*
X102030000Y-146919142D01*
X101887142Y-146776285D01*
X101815714Y-146490571D01*
X101815714Y-145990571D01*
X101887142Y-145704857D01*
X102030000Y-145562000D01*
X102172857Y-145490571D01*
X104315714Y-146990571D02*
X103815714Y-146276285D01*
X103458571Y-146990571D02*
X103458571Y-145490571D01*
X104030000Y-145490571D01*
X104172857Y-145562000D01*
X104244285Y-145633428D01*
X104315714Y-145776285D01*
X104315714Y-145990571D01*
X104244285Y-146133428D01*
X104172857Y-146204857D01*
X104030000Y-146276285D01*
X103458571Y-146276285D01*
X104958571Y-146204857D02*
X105458571Y-146204857D01*
X105672857Y-146990571D02*
X104958571Y-146990571D01*
X104958571Y-145490571D01*
X105672857Y-145490571D01*
D12*
X150000000Y-78000000D02*
X150000000Y-147000000D01*
X108000000Y-147000000D02*
X108000000Y-92000000D01*
D11*
X142535714Y-146990571D02*
X142535714Y-145490571D01*
X143107142Y-145490571D01*
X143250000Y-145562000D01*
X143321428Y-145633428D01*
X143392857Y-145776285D01*
X143392857Y-145990571D01*
X143321428Y-146133428D01*
X143250000Y-146204857D01*
X143107142Y-146276285D01*
X142535714Y-146276285D01*
X144321428Y-145490571D02*
X144607142Y-145490571D01*
X144750000Y-145562000D01*
X144892857Y-145704857D01*
X144964285Y-145990571D01*
X144964285Y-146490571D01*
X144892857Y-146776285D01*
X144750000Y-146919142D01*
X144607142Y-146990571D01*
X144321428Y-146990571D01*
X144178571Y-146919142D01*
X144035714Y-146776285D01*
X143964285Y-146490571D01*
X143964285Y-145990571D01*
X144035714Y-145704857D01*
X144178571Y-145562000D01*
X144321428Y-145490571D01*
X145535714Y-146919142D02*
X145750000Y-146990571D01*
X146107142Y-146990571D01*
X146250000Y-146919142D01*
X146321428Y-146847714D01*
X146392857Y-146704857D01*
X146392857Y-146562000D01*
X146321428Y-146419142D01*
X146250000Y-146347714D01*
X146107142Y-146276285D01*
X145821428Y-146204857D01*
X145678571Y-146133428D01*
X145607142Y-146062000D01*
X145535714Y-145919142D01*
X145535714Y-145776285D01*
X145607142Y-145633428D01*
X145678571Y-145562000D01*
X145821428Y-145490571D01*
X146178571Y-145490571D01*
X146392857Y-145562000D01*
X146821428Y-145490571D02*
X147678571Y-145490571D01*
X147250000Y-146990571D02*
X147250000Y-145490571D01*
X109071428Y-145490571D02*
X110071428Y-145490571D01*
X109071428Y-146990571D01*
X110071428Y-146990571D01*
X110928571Y-145490571D02*
X111214285Y-145490571D01*
X111357142Y-145562000D01*
X111500000Y-145704857D01*
X111571428Y-145990571D01*
X111571428Y-146490571D01*
X111500000Y-146776285D01*
X111357142Y-146919142D01*
X111214285Y-146990571D01*
X110928571Y-146990571D01*
X110785714Y-146919142D01*
X110642857Y-146776285D01*
X110571428Y-146490571D01*
X110571428Y-145990571D01*
X110642857Y-145704857D01*
X110785714Y-145562000D01*
X110928571Y-145490571D01*
X112214285Y-146990571D02*
X112214285Y-145490571D01*
X112714285Y-146562000D01*
X113214285Y-145490571D01*
X113214285Y-146990571D01*
X114428571Y-146204857D02*
X114642857Y-146276285D01*
X114714285Y-146347714D01*
X114785714Y-146490571D01*
X114785714Y-146704857D01*
X114714285Y-146847714D01*
X114642857Y-146919142D01*
X114500000Y-146990571D01*
X113928571Y-146990571D01*
X113928571Y-145490571D01*
X114428571Y-145490571D01*
X114571428Y-145562000D01*
X114642857Y-145633428D01*
X114714285Y-145776285D01*
X114714285Y-145919142D01*
X114642857Y-146062000D01*
X114571428Y-146133428D01*
X114428571Y-146204857D01*
X113928571Y-146204857D01*
X115428571Y-146990571D02*
X115428571Y-145490571D01*
X116142857Y-146204857D02*
X116642857Y-146204857D01*
X116857142Y-146990571D02*
X116142857Y-146990571D01*
X116142857Y-145490571D01*
X116857142Y-145490571D01*
D14*
%TO.C,U1*%
X137016000Y-128141000D02*
X137016000Y-127379000D01*
X137016000Y-127379000D02*
X121014000Y-127379000D01*
X121014000Y-127379000D02*
X121014000Y-128141000D01*
D10*
%TO.C,TP1*%
X140450000Y-131000000D02*
G75*
G03*
X140450000Y-131000000I-950000J0D01*
G01*
%TO.C,TP2*%
X140450000Y-137000000D02*
G75*
G03*
X140450000Y-137000000I-950000J0D01*
G01*
%TO.C,TP3*%
X140450000Y-141000000D02*
G75*
G03*
X140450000Y-141000000I-950000J0D01*
G01*
D11*
%TO.C,BT1*%
X152190000Y-71650000D02*
X152190000Y-74190000D01*
X158540000Y-71650000D02*
X158540000Y-74190000D01*
D10*
%TO.C,C1*%
X125764580Y-106246000D02*
X125483420Y-106246000D01*
X125764580Y-105226000D02*
X125483420Y-105226000D01*
%TO.C,C2*%
X132368580Y-105226000D02*
X132087420Y-105226000D01*
X132368580Y-106246000D02*
X132087420Y-106246000D01*
%TO.C,C3*%
X159510000Y-139109420D02*
X159510000Y-139390580D01*
X158490000Y-139109420D02*
X158490000Y-139390580D01*
%TO.C,C4*%
X158490000Y-131109420D02*
X158490000Y-131390580D01*
X159510000Y-131109420D02*
X159510000Y-131390580D01*
%TO.C,C5*%
X158490000Y-123109420D02*
X158490000Y-123390580D01*
X159510000Y-123109420D02*
X159510000Y-123390580D01*
%TO.C,C6*%
X159510000Y-115109420D02*
X159510000Y-115390580D01*
X158490000Y-115109420D02*
X158490000Y-115390580D01*
%TO.C,C7*%
X158490000Y-107109420D02*
X158490000Y-107390580D01*
X159510000Y-107109420D02*
X159510000Y-107390580D01*
%TO.C,C8*%
X158490000Y-99109420D02*
X158490000Y-99390580D01*
X159510000Y-99109420D02*
X159510000Y-99390580D01*
%TO.C,C9*%
X159510000Y-91109420D02*
X159510000Y-91390580D01*
X158490000Y-91109420D02*
X158490000Y-91390580D01*
%TO.C,C10*%
X158490000Y-83109420D02*
X158490000Y-83390580D01*
X159510000Y-83109420D02*
X159510000Y-83390580D01*
%TO.C,C11*%
X99510000Y-139859420D02*
X99510000Y-140140580D01*
X98490000Y-139859420D02*
X98490000Y-140140580D01*
%TO.C,C12*%
X99510000Y-131859420D02*
X99510000Y-132140580D01*
X98490000Y-131859420D02*
X98490000Y-132140580D01*
%TO.C,C13*%
X99510000Y-123859420D02*
X99510000Y-124140580D01*
X98490000Y-123859420D02*
X98490000Y-124140580D01*
%TO.C,C14*%
X98490000Y-115859420D02*
X98490000Y-116140580D01*
X99510000Y-115859420D02*
X99510000Y-116140580D01*
%TO.C,C15*%
X99260000Y-107834420D02*
X99260000Y-108115580D01*
X98240000Y-107834420D02*
X98240000Y-108115580D01*
%TO.C,C16*%
X98240000Y-95834420D02*
X98240000Y-96115580D01*
X99260000Y-95834420D02*
X99260000Y-96115580D01*
%TO.C,C17*%
X120490000Y-124359420D02*
X120490000Y-124640580D01*
X121510000Y-124359420D02*
X121510000Y-124640580D01*
%TO.C,C18*%
X146540580Y-92710000D02*
X146259420Y-92710000D01*
X146540580Y-91690000D02*
X146259420Y-91690000D01*
%TO.C,C19*%
X142234420Y-91690000D02*
X142515580Y-91690000D01*
X142234420Y-92710000D02*
X142515580Y-92710000D01*
%TO.C,D1*%
X122822000Y-115442000D02*
X123972000Y-115442000D01*
X122822000Y-108142000D02*
X122822000Y-115442000D01*
X128322000Y-108142000D02*
X128322000Y-115442000D01*
%TO.C,D2*%
X135078000Y-108142000D02*
X135078000Y-115442000D01*
X129578000Y-108142000D02*
X129578000Y-115442000D01*
X129578000Y-115442000D02*
X130728000Y-115442000D01*
%TO.C,D3*%
X152084000Y-143866000D02*
X153234000Y-143866000D01*
X152084000Y-136566000D02*
X152084000Y-143866000D01*
X157584000Y-136566000D02*
X157584000Y-143866000D01*
%TO.C,D4*%
X157584000Y-128438000D02*
X157584000Y-135738000D01*
X152084000Y-128438000D02*
X152084000Y-135738000D01*
X152084000Y-135738000D02*
X153234000Y-135738000D01*
%TO.C,D5*%
X157584000Y-120310000D02*
X157584000Y-127610000D01*
X152084000Y-120310000D02*
X152084000Y-127610000D01*
X152084000Y-127610000D02*
X153234000Y-127610000D01*
%TO.C,D6*%
X152084000Y-119482000D02*
X153234000Y-119482000D01*
X152084000Y-112182000D02*
X152084000Y-119482000D01*
X157584000Y-112182000D02*
X157584000Y-119482000D01*
%TO.C,D7*%
X157584000Y-104054000D02*
X157584000Y-111354000D01*
X152084000Y-104054000D02*
X152084000Y-111354000D01*
X152084000Y-111354000D02*
X153234000Y-111354000D01*
%TO.C,D8*%
X152084000Y-103226000D02*
X153234000Y-103226000D01*
X152084000Y-95926000D02*
X152084000Y-103226000D01*
X157584000Y-95926000D02*
X157584000Y-103226000D01*
%TO.C,D9*%
X157584000Y-87798000D02*
X157584000Y-95098000D01*
X152084000Y-87798000D02*
X152084000Y-95098000D01*
X152084000Y-95098000D02*
X153234000Y-95098000D01*
%TO.C,D10*%
X152084000Y-86970000D02*
X153234000Y-86970000D01*
X152084000Y-79670000D02*
X152084000Y-86970000D01*
X157584000Y-79670000D02*
X157584000Y-86970000D01*
%TO.C,D11*%
X106062000Y-136566000D02*
X106062000Y-143866000D01*
X100562000Y-136566000D02*
X100562000Y-143866000D01*
X100562000Y-143866000D02*
X101712000Y-143866000D01*
%TO.C,D12*%
X100562000Y-135748000D02*
X101712000Y-135748000D01*
X100562000Y-128448000D02*
X100562000Y-135748000D01*
X106062000Y-128448000D02*
X106062000Y-135748000D01*
%TO.C,D13*%
X106062000Y-120330000D02*
X106062000Y-127630000D01*
X100562000Y-120330000D02*
X100562000Y-127630000D01*
X100562000Y-127630000D02*
X101712000Y-127630000D01*
%TO.C,D14*%
X100562000Y-119512000D02*
X101712000Y-119512000D01*
X100562000Y-112212000D02*
X100562000Y-119512000D01*
X106062000Y-112212000D02*
X106062000Y-119512000D01*
%TO.C,D15*%
X106062000Y-104094000D02*
X106062000Y-111394000D01*
X100562000Y-104094000D02*
X100562000Y-111394000D01*
X100562000Y-111394000D02*
X101712000Y-111394000D01*
%TO.C,D16*%
X100546000Y-99650000D02*
X101696000Y-99650000D01*
X100546000Y-92350000D02*
X100546000Y-99650000D01*
X106046000Y-92350000D02*
X106046000Y-99650000D01*
%TO.C,R1*%
X143772500Y-128762742D02*
X143772500Y-129237258D01*
X142727500Y-128762742D02*
X142727500Y-129237258D01*
%TO.C,R2*%
X142272500Y-128762742D02*
X142272500Y-129237258D01*
X141227500Y-128762742D02*
X141227500Y-129237258D01*
%TO.C,R3*%
X117477500Y-128762742D02*
X117477500Y-129237258D01*
X118522500Y-128762742D02*
X118522500Y-129237258D01*
%TO.C,R4*%
X117022500Y-128762742D02*
X117022500Y-129237258D01*
X115977500Y-128762742D02*
X115977500Y-129237258D01*
%TO.C,R5*%
X114477500Y-128762742D02*
X114477500Y-129237258D01*
X115522500Y-128762742D02*
X115522500Y-129237258D01*
%TO.C,SW3*%
X147450000Y-70350000D02*
X147450000Y-71200000D01*
X147450000Y-73200000D02*
X147450000Y-73730000D01*
X147450000Y-75670000D02*
X147450000Y-76230000D01*
X147450000Y-78170000D02*
X147450000Y-79050000D01*
X147450000Y-79050000D02*
X143750000Y-79050000D01*
X143750000Y-79050000D02*
X143750000Y-78180000D01*
X143750000Y-76220000D02*
X143750000Y-75670000D01*
X143750000Y-73730000D02*
X143750000Y-73170000D01*
X143750000Y-71230000D02*
X143750000Y-70350000D01*
X143750000Y-70350000D02*
X147450000Y-70350000D01*
X146750000Y-70050000D02*
X147750000Y-70050000D01*
X147750000Y-70050000D02*
X147750000Y-71050000D01*
%TO.C,J1*%
X115910000Y-71330000D02*
X115910000Y-68670000D01*
X103150000Y-71330000D02*
X115910000Y-71330000D01*
X103150000Y-68670000D02*
X115910000Y-68670000D01*
X103150000Y-71330000D02*
X103150000Y-68670000D01*
X101880000Y-71330000D02*
X100550000Y-71330000D01*
X100550000Y-71330000D02*
X100550000Y-70000000D01*
%TO.C,J2*%
X134410000Y-124330000D02*
X134410000Y-121670000D01*
X126730000Y-124330000D02*
X134410000Y-124330000D01*
X126730000Y-121670000D02*
X134410000Y-121670000D01*
X126730000Y-124330000D02*
X126730000Y-121670000D01*
X125460000Y-124330000D02*
X124130000Y-124330000D01*
X124130000Y-124330000D02*
X124130000Y-123000000D01*
%TO.C,SW1*%
X109750000Y-137500000D02*
X109750000Y-142000000D01*
X113750000Y-136250000D02*
X112250000Y-136250000D01*
X116250000Y-142000000D02*
X116250000Y-137500000D01*
X112250000Y-143250000D02*
X113750000Y-143250000D01*
%TO.C,SW2*%
X145500000Y-136250000D02*
X144000000Y-136250000D01*
X141500000Y-137500000D02*
X141500000Y-142000000D01*
X144000000Y-143250000D02*
X145500000Y-143250000D01*
X148000000Y-142000000D02*
X148000000Y-137500000D01*
%TO.C,TP4*%
X114200000Y-125500000D02*
G75*
G03*
X114200000Y-125500000I-950000J0D01*
G01*
%TO.C,TP5*%
X114200000Y-131500000D02*
G75*
G03*
X114200000Y-131500000I-950000J0D01*
G01*
%TO.C,J3*%
X147830000Y-95000000D02*
X147830000Y-96330000D01*
X147830000Y-96330000D02*
X146500000Y-96330000D01*
X145230000Y-96330000D02*
X140090000Y-96330000D01*
X140090000Y-93670000D02*
X140090000Y-96330000D01*
X145230000Y-93670000D02*
X140090000Y-93670000D01*
X145230000Y-93670000D02*
X145230000Y-96330000D01*
%TO.C,U1*%
D15*
X128488095Y-135702380D02*
X128488095Y-136511904D01*
X128535714Y-136607142D01*
X128583333Y-136654761D01*
X128678571Y-136702380D01*
X128869047Y-136702380D01*
X128964285Y-136654761D01*
X129011904Y-136607142D01*
X129059523Y-136511904D01*
X129059523Y-135702380D01*
X130059523Y-136702380D02*
X129488095Y-136702380D01*
X129773809Y-136702380D02*
X129773809Y-135702380D01*
X129678571Y-135845238D01*
X129583333Y-135940476D01*
X129488095Y-135988095D01*
%TO.C,BT1*%
D16*
X148888095Y-70522857D02*
X150411904Y-70522857D01*
X149650000Y-71284761D02*
X149650000Y-69760952D01*
%TO.C,C1*%
D15*
X125457333Y-107523142D02*
X125409714Y-107570761D01*
X125266857Y-107618380D01*
X125171619Y-107618380D01*
X125028761Y-107570761D01*
X124933523Y-107475523D01*
X124885904Y-107380285D01*
X124838285Y-107189809D01*
X124838285Y-107046952D01*
X124885904Y-106856476D01*
X124933523Y-106761238D01*
X125028761Y-106666000D01*
X125171619Y-106618380D01*
X125266857Y-106618380D01*
X125409714Y-106666000D01*
X125457333Y-106713619D01*
X126409714Y-107618380D02*
X125838285Y-107618380D01*
X126124000Y-107618380D02*
X126124000Y-106618380D01*
X126028761Y-106761238D01*
X125933523Y-106856476D01*
X125838285Y-106904095D01*
%TO.C,C2*%
X132061333Y-107523142D02*
X132013714Y-107570761D01*
X131870857Y-107618380D01*
X131775619Y-107618380D01*
X131632761Y-107570761D01*
X131537523Y-107475523D01*
X131489904Y-107380285D01*
X131442285Y-107189809D01*
X131442285Y-107046952D01*
X131489904Y-106856476D01*
X131537523Y-106761238D01*
X131632761Y-106666000D01*
X131775619Y-106618380D01*
X131870857Y-106618380D01*
X132013714Y-106666000D01*
X132061333Y-106713619D01*
X132442285Y-106713619D02*
X132489904Y-106666000D01*
X132585142Y-106618380D01*
X132823238Y-106618380D01*
X132918476Y-106666000D01*
X132966095Y-106713619D01*
X133013714Y-106808857D01*
X133013714Y-106904095D01*
X132966095Y-107046952D01*
X132394666Y-107618380D01*
X133013714Y-107618380D01*
%TO.C,C3*%
X158833333Y-141857142D02*
X158785714Y-141904761D01*
X158642857Y-141952380D01*
X158547619Y-141952380D01*
X158404761Y-141904761D01*
X158309523Y-141809523D01*
X158261904Y-141714285D01*
X158214285Y-141523809D01*
X158214285Y-141380952D01*
X158261904Y-141190476D01*
X158309523Y-141095238D01*
X158404761Y-141000000D01*
X158547619Y-140952380D01*
X158642857Y-140952380D01*
X158785714Y-141000000D01*
X158833333Y-141047619D01*
X159166666Y-140952380D02*
X159785714Y-140952380D01*
X159452380Y-141333333D01*
X159595238Y-141333333D01*
X159690476Y-141380952D01*
X159738095Y-141428571D01*
X159785714Y-141523809D01*
X159785714Y-141761904D01*
X159738095Y-141857142D01*
X159690476Y-141904761D01*
X159595238Y-141952380D01*
X159309523Y-141952380D01*
X159214285Y-141904761D01*
X159166666Y-141857142D01*
%TO.C,C4*%
X158833333Y-133857142D02*
X158785714Y-133904761D01*
X158642857Y-133952380D01*
X158547619Y-133952380D01*
X158404761Y-133904761D01*
X158309523Y-133809523D01*
X158261904Y-133714285D01*
X158214285Y-133523809D01*
X158214285Y-133380952D01*
X158261904Y-133190476D01*
X158309523Y-133095238D01*
X158404761Y-133000000D01*
X158547619Y-132952380D01*
X158642857Y-132952380D01*
X158785714Y-133000000D01*
X158833333Y-133047619D01*
X159690476Y-133285714D02*
X159690476Y-133952380D01*
X159452380Y-132904761D02*
X159214285Y-133619047D01*
X159833333Y-133619047D01*
%TO.C,C5*%
X158833333Y-125857142D02*
X158785714Y-125904761D01*
X158642857Y-125952380D01*
X158547619Y-125952380D01*
X158404761Y-125904761D01*
X158309523Y-125809523D01*
X158261904Y-125714285D01*
X158214285Y-125523809D01*
X158214285Y-125380952D01*
X158261904Y-125190476D01*
X158309523Y-125095238D01*
X158404761Y-125000000D01*
X158547619Y-124952380D01*
X158642857Y-124952380D01*
X158785714Y-125000000D01*
X158833333Y-125047619D01*
X159738095Y-124952380D02*
X159261904Y-124952380D01*
X159214285Y-125428571D01*
X159261904Y-125380952D01*
X159357142Y-125333333D01*
X159595238Y-125333333D01*
X159690476Y-125380952D01*
X159738095Y-125428571D01*
X159785714Y-125523809D01*
X159785714Y-125761904D01*
X159738095Y-125857142D01*
X159690476Y-125904761D01*
X159595238Y-125952380D01*
X159357142Y-125952380D01*
X159261904Y-125904761D01*
X159214285Y-125857142D01*
%TO.C,C6*%
X158833333Y-117857142D02*
X158785714Y-117904761D01*
X158642857Y-117952380D01*
X158547619Y-117952380D01*
X158404761Y-117904761D01*
X158309523Y-117809523D01*
X158261904Y-117714285D01*
X158214285Y-117523809D01*
X158214285Y-117380952D01*
X158261904Y-117190476D01*
X158309523Y-117095238D01*
X158404761Y-117000000D01*
X158547619Y-116952380D01*
X158642857Y-116952380D01*
X158785714Y-117000000D01*
X158833333Y-117047619D01*
X159690476Y-116952380D02*
X159500000Y-116952380D01*
X159404761Y-117000000D01*
X159357142Y-117047619D01*
X159261904Y-117190476D01*
X159214285Y-117380952D01*
X159214285Y-117761904D01*
X159261904Y-117857142D01*
X159309523Y-117904761D01*
X159404761Y-117952380D01*
X159595238Y-117952380D01*
X159690476Y-117904761D01*
X159738095Y-117857142D01*
X159785714Y-117761904D01*
X159785714Y-117523809D01*
X159738095Y-117428571D01*
X159690476Y-117380952D01*
X159595238Y-117333333D01*
X159404761Y-117333333D01*
X159309523Y-117380952D01*
X159261904Y-117428571D01*
X159214285Y-117523809D01*
%TO.C,C7*%
X158833333Y-109857142D02*
X158785714Y-109904761D01*
X158642857Y-109952380D01*
X158547619Y-109952380D01*
X158404761Y-109904761D01*
X158309523Y-109809523D01*
X158261904Y-109714285D01*
X158214285Y-109523809D01*
X158214285Y-109380952D01*
X158261904Y-109190476D01*
X158309523Y-109095238D01*
X158404761Y-109000000D01*
X158547619Y-108952380D01*
X158642857Y-108952380D01*
X158785714Y-109000000D01*
X158833333Y-109047619D01*
X159166666Y-108952380D02*
X159833333Y-108952380D01*
X159404761Y-109952380D01*
%TO.C,C8*%
X158833333Y-101857142D02*
X158785714Y-101904761D01*
X158642857Y-101952380D01*
X158547619Y-101952380D01*
X158404761Y-101904761D01*
X158309523Y-101809523D01*
X158261904Y-101714285D01*
X158214285Y-101523809D01*
X158214285Y-101380952D01*
X158261904Y-101190476D01*
X158309523Y-101095238D01*
X158404761Y-101000000D01*
X158547619Y-100952380D01*
X158642857Y-100952380D01*
X158785714Y-101000000D01*
X158833333Y-101047619D01*
X159404761Y-101380952D02*
X159309523Y-101333333D01*
X159261904Y-101285714D01*
X159214285Y-101190476D01*
X159214285Y-101142857D01*
X159261904Y-101047619D01*
X159309523Y-101000000D01*
X159404761Y-100952380D01*
X159595238Y-100952380D01*
X159690476Y-101000000D01*
X159738095Y-101047619D01*
X159785714Y-101142857D01*
X159785714Y-101190476D01*
X159738095Y-101285714D01*
X159690476Y-101333333D01*
X159595238Y-101380952D01*
X159404761Y-101380952D01*
X159309523Y-101428571D01*
X159261904Y-101476190D01*
X159214285Y-101571428D01*
X159214285Y-101761904D01*
X159261904Y-101857142D01*
X159309523Y-101904761D01*
X159404761Y-101952380D01*
X159595238Y-101952380D01*
X159690476Y-101904761D01*
X159738095Y-101857142D01*
X159785714Y-101761904D01*
X159785714Y-101571428D01*
X159738095Y-101476190D01*
X159690476Y-101428571D01*
X159595238Y-101380952D01*
%TO.C,C9*%
X158833333Y-93857142D02*
X158785714Y-93904761D01*
X158642857Y-93952380D01*
X158547619Y-93952380D01*
X158404761Y-93904761D01*
X158309523Y-93809523D01*
X158261904Y-93714285D01*
X158214285Y-93523809D01*
X158214285Y-93380952D01*
X158261904Y-93190476D01*
X158309523Y-93095238D01*
X158404761Y-93000000D01*
X158547619Y-92952380D01*
X158642857Y-92952380D01*
X158785714Y-93000000D01*
X158833333Y-93047619D01*
X159309523Y-93952380D02*
X159500000Y-93952380D01*
X159595238Y-93904761D01*
X159642857Y-93857142D01*
X159738095Y-93714285D01*
X159785714Y-93523809D01*
X159785714Y-93142857D01*
X159738095Y-93047619D01*
X159690476Y-93000000D01*
X159595238Y-92952380D01*
X159404761Y-92952380D01*
X159309523Y-93000000D01*
X159261904Y-93047619D01*
X159214285Y-93142857D01*
X159214285Y-93380952D01*
X159261904Y-93476190D01*
X159309523Y-93523809D01*
X159404761Y-93571428D01*
X159595238Y-93571428D01*
X159690476Y-93523809D01*
X159738095Y-93476190D01*
X159785714Y-93380952D01*
%TO.C,C10*%
X158607142Y-85857142D02*
X158559523Y-85904761D01*
X158416666Y-85952380D01*
X158321428Y-85952380D01*
X158178571Y-85904761D01*
X158083333Y-85809523D01*
X158035714Y-85714285D01*
X157988095Y-85523809D01*
X157988095Y-85380952D01*
X158035714Y-85190476D01*
X158083333Y-85095238D01*
X158178571Y-85000000D01*
X158321428Y-84952380D01*
X158416666Y-84952380D01*
X158559523Y-85000000D01*
X158607142Y-85047619D01*
X159559523Y-85952380D02*
X158988095Y-85952380D01*
X159273809Y-85952380D02*
X159273809Y-84952380D01*
X159178571Y-85095238D01*
X159083333Y-85190476D01*
X158988095Y-85238095D01*
X160178571Y-84952380D02*
X160273809Y-84952380D01*
X160369047Y-85000000D01*
X160416666Y-85047619D01*
X160464285Y-85142857D01*
X160511904Y-85333333D01*
X160511904Y-85571428D01*
X160464285Y-85761904D01*
X160416666Y-85857142D01*
X160369047Y-85904761D01*
X160273809Y-85952380D01*
X160178571Y-85952380D01*
X160083333Y-85904761D01*
X160035714Y-85857142D01*
X159988095Y-85761904D01*
X159940476Y-85571428D01*
X159940476Y-85333333D01*
X159988095Y-85142857D01*
X160035714Y-85047619D01*
X160083333Y-85000000D01*
X160178571Y-84952380D01*
%TO.C,C11*%
X98357142Y-142607142D02*
X98309523Y-142654761D01*
X98166666Y-142702380D01*
X98071428Y-142702380D01*
X97928571Y-142654761D01*
X97833333Y-142559523D01*
X97785714Y-142464285D01*
X97738095Y-142273809D01*
X97738095Y-142130952D01*
X97785714Y-141940476D01*
X97833333Y-141845238D01*
X97928571Y-141750000D01*
X98071428Y-141702380D01*
X98166666Y-141702380D01*
X98309523Y-141750000D01*
X98357142Y-141797619D01*
X99309523Y-142702380D02*
X98738095Y-142702380D01*
X99023809Y-142702380D02*
X99023809Y-141702380D01*
X98928571Y-141845238D01*
X98833333Y-141940476D01*
X98738095Y-141988095D01*
X100261904Y-142702380D02*
X99690476Y-142702380D01*
X99976190Y-142702380D02*
X99976190Y-141702380D01*
X99880952Y-141845238D01*
X99785714Y-141940476D01*
X99690476Y-141988095D01*
%TO.C,C12*%
X98107142Y-134607142D02*
X98059523Y-134654761D01*
X97916666Y-134702380D01*
X97821428Y-134702380D01*
X97678571Y-134654761D01*
X97583333Y-134559523D01*
X97535714Y-134464285D01*
X97488095Y-134273809D01*
X97488095Y-134130952D01*
X97535714Y-133940476D01*
X97583333Y-133845238D01*
X97678571Y-133750000D01*
X97821428Y-133702380D01*
X97916666Y-133702380D01*
X98059523Y-133750000D01*
X98107142Y-133797619D01*
X99059523Y-134702380D02*
X98488095Y-134702380D01*
X98773809Y-134702380D02*
X98773809Y-133702380D01*
X98678571Y-133845238D01*
X98583333Y-133940476D01*
X98488095Y-133988095D01*
X99440476Y-133797619D02*
X99488095Y-133750000D01*
X99583333Y-133702380D01*
X99821428Y-133702380D01*
X99916666Y-133750000D01*
X99964285Y-133797619D01*
X100011904Y-133892857D01*
X100011904Y-133988095D01*
X99964285Y-134130952D01*
X99392857Y-134702380D01*
X100011904Y-134702380D01*
%TO.C,C13*%
X98107142Y-126607142D02*
X98059523Y-126654761D01*
X97916666Y-126702380D01*
X97821428Y-126702380D01*
X97678571Y-126654761D01*
X97583333Y-126559523D01*
X97535714Y-126464285D01*
X97488095Y-126273809D01*
X97488095Y-126130952D01*
X97535714Y-125940476D01*
X97583333Y-125845238D01*
X97678571Y-125750000D01*
X97821428Y-125702380D01*
X97916666Y-125702380D01*
X98059523Y-125750000D01*
X98107142Y-125797619D01*
X99059523Y-126702380D02*
X98488095Y-126702380D01*
X98773809Y-126702380D02*
X98773809Y-125702380D01*
X98678571Y-125845238D01*
X98583333Y-125940476D01*
X98488095Y-125988095D01*
X99392857Y-125702380D02*
X100011904Y-125702380D01*
X99678571Y-126083333D01*
X99821428Y-126083333D01*
X99916666Y-126130952D01*
X99964285Y-126178571D01*
X100011904Y-126273809D01*
X100011904Y-126511904D01*
X99964285Y-126607142D01*
X99916666Y-126654761D01*
X99821428Y-126702380D01*
X99535714Y-126702380D01*
X99440476Y-126654761D01*
X99392857Y-126607142D01*
%TO.C,C14*%
X98107142Y-118607142D02*
X98059523Y-118654761D01*
X97916666Y-118702380D01*
X97821428Y-118702380D01*
X97678571Y-118654761D01*
X97583333Y-118559523D01*
X97535714Y-118464285D01*
X97488095Y-118273809D01*
X97488095Y-118130952D01*
X97535714Y-117940476D01*
X97583333Y-117845238D01*
X97678571Y-117750000D01*
X97821428Y-117702380D01*
X97916666Y-117702380D01*
X98059523Y-117750000D01*
X98107142Y-117797619D01*
X99059523Y-118702380D02*
X98488095Y-118702380D01*
X98773809Y-118702380D02*
X98773809Y-117702380D01*
X98678571Y-117845238D01*
X98583333Y-117940476D01*
X98488095Y-117988095D01*
X99916666Y-118035714D02*
X99916666Y-118702380D01*
X99678571Y-117654761D02*
X99440476Y-118369047D01*
X100059523Y-118369047D01*
%TO.C,C15*%
X98107142Y-110607142D02*
X98059523Y-110654761D01*
X97916666Y-110702380D01*
X97821428Y-110702380D01*
X97678571Y-110654761D01*
X97583333Y-110559523D01*
X97535714Y-110464285D01*
X97488095Y-110273809D01*
X97488095Y-110130952D01*
X97535714Y-109940476D01*
X97583333Y-109845238D01*
X97678571Y-109750000D01*
X97821428Y-109702380D01*
X97916666Y-109702380D01*
X98059523Y-109750000D01*
X98107142Y-109797619D01*
X99059523Y-110702380D02*
X98488095Y-110702380D01*
X98773809Y-110702380D02*
X98773809Y-109702380D01*
X98678571Y-109845238D01*
X98583333Y-109940476D01*
X98488095Y-109988095D01*
X99964285Y-109702380D02*
X99488095Y-109702380D01*
X99440476Y-110178571D01*
X99488095Y-110130952D01*
X99583333Y-110083333D01*
X99821428Y-110083333D01*
X99916666Y-110130952D01*
X99964285Y-110178571D01*
X100011904Y-110273809D01*
X100011904Y-110511904D01*
X99964285Y-110607142D01*
X99916666Y-110654761D01*
X99821428Y-110702380D01*
X99583333Y-110702380D01*
X99488095Y-110654761D01*
X99440476Y-110607142D01*
%TO.C,C16*%
X98107142Y-98857142D02*
X98059523Y-98904761D01*
X97916666Y-98952380D01*
X97821428Y-98952380D01*
X97678571Y-98904761D01*
X97583333Y-98809523D01*
X97535714Y-98714285D01*
X97488095Y-98523809D01*
X97488095Y-98380952D01*
X97535714Y-98190476D01*
X97583333Y-98095238D01*
X97678571Y-98000000D01*
X97821428Y-97952380D01*
X97916666Y-97952380D01*
X98059523Y-98000000D01*
X98107142Y-98047619D01*
X99059523Y-98952380D02*
X98488095Y-98952380D01*
X98773809Y-98952380D02*
X98773809Y-97952380D01*
X98678571Y-98095238D01*
X98583333Y-98190476D01*
X98488095Y-98238095D01*
X99916666Y-97952380D02*
X99726190Y-97952380D01*
X99630952Y-98000000D01*
X99583333Y-98047619D01*
X99488095Y-98190476D01*
X99440476Y-98380952D01*
X99440476Y-98761904D01*
X99488095Y-98857142D01*
X99535714Y-98904761D01*
X99630952Y-98952380D01*
X99821428Y-98952380D01*
X99916666Y-98904761D01*
X99964285Y-98857142D01*
X100011904Y-98761904D01*
X100011904Y-98523809D01*
X99964285Y-98428571D01*
X99916666Y-98380952D01*
X99821428Y-98333333D01*
X99630952Y-98333333D01*
X99535714Y-98380952D01*
X99488095Y-98428571D01*
X99440476Y-98523809D01*
%TO.C,C17*%
X119857142Y-122607142D02*
X119809523Y-122654761D01*
X119666666Y-122702380D01*
X119571428Y-122702380D01*
X119428571Y-122654761D01*
X119333333Y-122559523D01*
X119285714Y-122464285D01*
X119238095Y-122273809D01*
X119238095Y-122130952D01*
X119285714Y-121940476D01*
X119333333Y-121845238D01*
X119428571Y-121750000D01*
X119571428Y-121702380D01*
X119666666Y-121702380D01*
X119809523Y-121750000D01*
X119857142Y-121797619D01*
X120809523Y-122702380D02*
X120238095Y-122702380D01*
X120523809Y-122702380D02*
X120523809Y-121702380D01*
X120428571Y-121845238D01*
X120333333Y-121940476D01*
X120238095Y-121988095D01*
X121142857Y-121702380D02*
X121809523Y-121702380D01*
X121380952Y-122702380D01*
%TO.C,C18*%
X149157142Y-92842857D02*
X149204761Y-92890476D01*
X149252380Y-93033333D01*
X149252380Y-93128571D01*
X149204761Y-93271428D01*
X149109523Y-93366666D01*
X149014285Y-93414285D01*
X148823809Y-93461904D01*
X148680952Y-93461904D01*
X148490476Y-93414285D01*
X148395238Y-93366666D01*
X148300000Y-93271428D01*
X148252380Y-93128571D01*
X148252380Y-93033333D01*
X148300000Y-92890476D01*
X148347619Y-92842857D01*
X149252380Y-91890476D02*
X149252380Y-92461904D01*
X149252380Y-92176190D02*
X148252380Y-92176190D01*
X148395238Y-92271428D01*
X148490476Y-92366666D01*
X148538095Y-92461904D01*
X148680952Y-91319047D02*
X148633333Y-91414285D01*
X148585714Y-91461904D01*
X148490476Y-91509523D01*
X148442857Y-91509523D01*
X148347619Y-91461904D01*
X148300000Y-91414285D01*
X148252380Y-91319047D01*
X148252380Y-91128571D01*
X148300000Y-91033333D01*
X148347619Y-90985714D01*
X148442857Y-90938095D01*
X148490476Y-90938095D01*
X148585714Y-90985714D01*
X148633333Y-91033333D01*
X148680952Y-91128571D01*
X148680952Y-91319047D01*
X148728571Y-91414285D01*
X148776190Y-91461904D01*
X148871428Y-91509523D01*
X149061904Y-91509523D01*
X149157142Y-91461904D01*
X149204761Y-91414285D01*
X149252380Y-91319047D01*
X149252380Y-91128571D01*
X149204761Y-91033333D01*
X149157142Y-90985714D01*
X149061904Y-90938095D01*
X148871428Y-90938095D01*
X148776190Y-90985714D01*
X148728571Y-91033333D01*
X148680952Y-91128571D01*
%TO.C,C19*%
X138757142Y-92557142D02*
X138709523Y-92604761D01*
X138566666Y-92652380D01*
X138471428Y-92652380D01*
X138328571Y-92604761D01*
X138233333Y-92509523D01*
X138185714Y-92414285D01*
X138138095Y-92223809D01*
X138138095Y-92080952D01*
X138185714Y-91890476D01*
X138233333Y-91795238D01*
X138328571Y-91700000D01*
X138471428Y-91652380D01*
X138566666Y-91652380D01*
X138709523Y-91700000D01*
X138757142Y-91747619D01*
X139709523Y-92652380D02*
X139138095Y-92652380D01*
X139423809Y-92652380D02*
X139423809Y-91652380D01*
X139328571Y-91795238D01*
X139233333Y-91890476D01*
X139138095Y-91938095D01*
X140185714Y-92652380D02*
X140376190Y-92652380D01*
X140471428Y-92604761D01*
X140519047Y-92557142D01*
X140614285Y-92414285D01*
X140661904Y-92223809D01*
X140661904Y-91842857D01*
X140614285Y-91747619D01*
X140566666Y-91700000D01*
X140471428Y-91652380D01*
X140280952Y-91652380D01*
X140185714Y-91700000D01*
X140138095Y-91747619D01*
X140090476Y-91842857D01*
X140090476Y-92080952D01*
X140138095Y-92176190D01*
X140185714Y-92223809D01*
X140280952Y-92271428D01*
X140471428Y-92271428D01*
X140566666Y-92223809D01*
X140614285Y-92176190D01*
X140661904Y-92080952D01*
%TO.C,D1*%
X124761904Y-112202380D02*
X124761904Y-111202380D01*
X125000000Y-111202380D01*
X125142857Y-111250000D01*
X125238095Y-111345238D01*
X125285714Y-111440476D01*
X125333333Y-111630952D01*
X125333333Y-111773809D01*
X125285714Y-111964285D01*
X125238095Y-112059523D01*
X125142857Y-112154761D01*
X125000000Y-112202380D01*
X124761904Y-112202380D01*
X126285714Y-112202380D02*
X125714285Y-112202380D01*
X126000000Y-112202380D02*
X126000000Y-111202380D01*
X125904761Y-111345238D01*
X125809523Y-111440476D01*
X125714285Y-111488095D01*
%TO.C,D2*%
X131511904Y-111952380D02*
X131511904Y-110952380D01*
X131750000Y-110952380D01*
X131892857Y-111000000D01*
X131988095Y-111095238D01*
X132035714Y-111190476D01*
X132083333Y-111380952D01*
X132083333Y-111523809D01*
X132035714Y-111714285D01*
X131988095Y-111809523D01*
X131892857Y-111904761D01*
X131750000Y-111952380D01*
X131511904Y-111952380D01*
X132464285Y-111047619D02*
X132511904Y-111000000D01*
X132607142Y-110952380D01*
X132845238Y-110952380D01*
X132940476Y-111000000D01*
X132988095Y-111047619D01*
X133035714Y-111142857D01*
X133035714Y-111238095D01*
X132988095Y-111380952D01*
X132416666Y-111952380D01*
X133035714Y-111952380D01*
%TO.C,D3*%
X154261904Y-140702380D02*
X154261904Y-139702380D01*
X154500000Y-139702380D01*
X154642857Y-139750000D01*
X154738095Y-139845238D01*
X154785714Y-139940476D01*
X154833333Y-140130952D01*
X154833333Y-140273809D01*
X154785714Y-140464285D01*
X154738095Y-140559523D01*
X154642857Y-140654761D01*
X154500000Y-140702380D01*
X154261904Y-140702380D01*
X155166666Y-139702380D02*
X155785714Y-139702380D01*
X155452380Y-140083333D01*
X155595238Y-140083333D01*
X155690476Y-140130952D01*
X155738095Y-140178571D01*
X155785714Y-140273809D01*
X155785714Y-140511904D01*
X155738095Y-140607142D01*
X155690476Y-140654761D01*
X155595238Y-140702380D01*
X155309523Y-140702380D01*
X155214285Y-140654761D01*
X155166666Y-140607142D01*
%TO.C,D4*%
X154011904Y-132452380D02*
X154011904Y-131452380D01*
X154250000Y-131452380D01*
X154392857Y-131500000D01*
X154488095Y-131595238D01*
X154535714Y-131690476D01*
X154583333Y-131880952D01*
X154583333Y-132023809D01*
X154535714Y-132214285D01*
X154488095Y-132309523D01*
X154392857Y-132404761D01*
X154250000Y-132452380D01*
X154011904Y-132452380D01*
X155440476Y-131785714D02*
X155440476Y-132452380D01*
X155202380Y-131404761D02*
X154964285Y-132119047D01*
X155583333Y-132119047D01*
%TO.C,D5*%
X154261904Y-124452380D02*
X154261904Y-123452380D01*
X154500000Y-123452380D01*
X154642857Y-123500000D01*
X154738095Y-123595238D01*
X154785714Y-123690476D01*
X154833333Y-123880952D01*
X154833333Y-124023809D01*
X154785714Y-124214285D01*
X154738095Y-124309523D01*
X154642857Y-124404761D01*
X154500000Y-124452380D01*
X154261904Y-124452380D01*
X155738095Y-123452380D02*
X155261904Y-123452380D01*
X155214285Y-123928571D01*
X155261904Y-123880952D01*
X155357142Y-123833333D01*
X155595238Y-123833333D01*
X155690476Y-123880952D01*
X155738095Y-123928571D01*
X155785714Y-124023809D01*
X155785714Y-124261904D01*
X155738095Y-124357142D01*
X155690476Y-124404761D01*
X155595238Y-124452380D01*
X155357142Y-124452380D01*
X155261904Y-124404761D01*
X155214285Y-124357142D01*
%TO.C,D6*%
X154011904Y-116284380D02*
X154011904Y-115284380D01*
X154250000Y-115284380D01*
X154392857Y-115332000D01*
X154488095Y-115427238D01*
X154535714Y-115522476D01*
X154583333Y-115712952D01*
X154583333Y-115855809D01*
X154535714Y-116046285D01*
X154488095Y-116141523D01*
X154392857Y-116236761D01*
X154250000Y-116284380D01*
X154011904Y-116284380D01*
X155440476Y-115284380D02*
X155250000Y-115284380D01*
X155154761Y-115332000D01*
X155107142Y-115379619D01*
X155011904Y-115522476D01*
X154964285Y-115712952D01*
X154964285Y-116093904D01*
X155011904Y-116189142D01*
X155059523Y-116236761D01*
X155154761Y-116284380D01*
X155345238Y-116284380D01*
X155440476Y-116236761D01*
X155488095Y-116189142D01*
X155535714Y-116093904D01*
X155535714Y-115855809D01*
X155488095Y-115760571D01*
X155440476Y-115712952D01*
X155345238Y-115665333D01*
X155154761Y-115665333D01*
X155059523Y-115712952D01*
X155011904Y-115760571D01*
X154964285Y-115855809D01*
%TO.C,D7*%
X154011904Y-108202380D02*
X154011904Y-107202380D01*
X154250000Y-107202380D01*
X154392857Y-107250000D01*
X154488095Y-107345238D01*
X154535714Y-107440476D01*
X154583333Y-107630952D01*
X154583333Y-107773809D01*
X154535714Y-107964285D01*
X154488095Y-108059523D01*
X154392857Y-108154761D01*
X154250000Y-108202380D01*
X154011904Y-108202380D01*
X154916666Y-107202380D02*
X155583333Y-107202380D01*
X155154761Y-108202380D01*
%TO.C,D8*%
X154011904Y-99952380D02*
X154011904Y-98952380D01*
X154250000Y-98952380D01*
X154392857Y-99000000D01*
X154488095Y-99095238D01*
X154535714Y-99190476D01*
X154583333Y-99380952D01*
X154583333Y-99523809D01*
X154535714Y-99714285D01*
X154488095Y-99809523D01*
X154392857Y-99904761D01*
X154250000Y-99952380D01*
X154011904Y-99952380D01*
X155154761Y-99380952D02*
X155059523Y-99333333D01*
X155011904Y-99285714D01*
X154964285Y-99190476D01*
X154964285Y-99142857D01*
X155011904Y-99047619D01*
X155059523Y-99000000D01*
X155154761Y-98952380D01*
X155345238Y-98952380D01*
X155440476Y-99000000D01*
X155488095Y-99047619D01*
X155535714Y-99142857D01*
X155535714Y-99190476D01*
X155488095Y-99285714D01*
X155440476Y-99333333D01*
X155345238Y-99380952D01*
X155154761Y-99380952D01*
X155059523Y-99428571D01*
X155011904Y-99476190D01*
X154964285Y-99571428D01*
X154964285Y-99761904D01*
X155011904Y-99857142D01*
X155059523Y-99904761D01*
X155154761Y-99952380D01*
X155345238Y-99952380D01*
X155440476Y-99904761D01*
X155488095Y-99857142D01*
X155535714Y-99761904D01*
X155535714Y-99571428D01*
X155488095Y-99476190D01*
X155440476Y-99428571D01*
X155345238Y-99380952D01*
%TO.C,D9*%
X154011904Y-91952380D02*
X154011904Y-90952380D01*
X154250000Y-90952380D01*
X154392857Y-91000000D01*
X154488095Y-91095238D01*
X154535714Y-91190476D01*
X154583333Y-91380952D01*
X154583333Y-91523809D01*
X154535714Y-91714285D01*
X154488095Y-91809523D01*
X154392857Y-91904761D01*
X154250000Y-91952380D01*
X154011904Y-91952380D01*
X155059523Y-91952380D02*
X155250000Y-91952380D01*
X155345238Y-91904761D01*
X155392857Y-91857142D01*
X155488095Y-91714285D01*
X155535714Y-91523809D01*
X155535714Y-91142857D01*
X155488095Y-91047619D01*
X155440476Y-91000000D01*
X155345238Y-90952380D01*
X155154761Y-90952380D01*
X155059523Y-91000000D01*
X155011904Y-91047619D01*
X154964285Y-91142857D01*
X154964285Y-91380952D01*
X155011904Y-91476190D01*
X155059523Y-91523809D01*
X155154761Y-91571428D01*
X155345238Y-91571428D01*
X155440476Y-91523809D01*
X155488095Y-91476190D01*
X155535714Y-91380952D01*
%TO.C,D10*%
X153535714Y-83772380D02*
X153535714Y-82772380D01*
X153773809Y-82772380D01*
X153916666Y-82820000D01*
X154011904Y-82915238D01*
X154059523Y-83010476D01*
X154107142Y-83200952D01*
X154107142Y-83343809D01*
X154059523Y-83534285D01*
X154011904Y-83629523D01*
X153916666Y-83724761D01*
X153773809Y-83772380D01*
X153535714Y-83772380D01*
X155059523Y-83772380D02*
X154488095Y-83772380D01*
X154773809Y-83772380D02*
X154773809Y-82772380D01*
X154678571Y-82915238D01*
X154583333Y-83010476D01*
X154488095Y-83058095D01*
X155678571Y-82772380D02*
X155773809Y-82772380D01*
X155869047Y-82820000D01*
X155916666Y-82867619D01*
X155964285Y-82962857D01*
X156011904Y-83153333D01*
X156011904Y-83391428D01*
X155964285Y-83581904D01*
X155916666Y-83677142D01*
X155869047Y-83724761D01*
X155773809Y-83772380D01*
X155678571Y-83772380D01*
X155583333Y-83724761D01*
X155535714Y-83677142D01*
X155488095Y-83581904D01*
X155440476Y-83391428D01*
X155440476Y-83153333D01*
X155488095Y-82962857D01*
X155535714Y-82867619D01*
X155583333Y-82820000D01*
X155678571Y-82772380D01*
%TO.C,D11*%
X102285714Y-140702380D02*
X102285714Y-139702380D01*
X102523809Y-139702380D01*
X102666666Y-139750000D01*
X102761904Y-139845238D01*
X102809523Y-139940476D01*
X102857142Y-140130952D01*
X102857142Y-140273809D01*
X102809523Y-140464285D01*
X102761904Y-140559523D01*
X102666666Y-140654761D01*
X102523809Y-140702380D01*
X102285714Y-140702380D01*
X103809523Y-140702380D02*
X103238095Y-140702380D01*
X103523809Y-140702380D02*
X103523809Y-139702380D01*
X103428571Y-139845238D01*
X103333333Y-139940476D01*
X103238095Y-139988095D01*
X104761904Y-140702380D02*
X104190476Y-140702380D01*
X104476190Y-140702380D02*
X104476190Y-139702380D01*
X104380952Y-139845238D01*
X104285714Y-139940476D01*
X104190476Y-139988095D01*
%TO.C,D12*%
X102035714Y-132550380D02*
X102035714Y-131550380D01*
X102273809Y-131550380D01*
X102416666Y-131598000D01*
X102511904Y-131693238D01*
X102559523Y-131788476D01*
X102607142Y-131978952D01*
X102607142Y-132121809D01*
X102559523Y-132312285D01*
X102511904Y-132407523D01*
X102416666Y-132502761D01*
X102273809Y-132550380D01*
X102035714Y-132550380D01*
X103559523Y-132550380D02*
X102988095Y-132550380D01*
X103273809Y-132550380D02*
X103273809Y-131550380D01*
X103178571Y-131693238D01*
X103083333Y-131788476D01*
X102988095Y-131836095D01*
X103940476Y-131645619D02*
X103988095Y-131598000D01*
X104083333Y-131550380D01*
X104321428Y-131550380D01*
X104416666Y-131598000D01*
X104464285Y-131645619D01*
X104511904Y-131740857D01*
X104511904Y-131836095D01*
X104464285Y-131978952D01*
X103892857Y-132550380D01*
X104511904Y-132550380D01*
%TO.C,D13*%
X102035714Y-124452380D02*
X102035714Y-123452380D01*
X102273809Y-123452380D01*
X102416666Y-123500000D01*
X102511904Y-123595238D01*
X102559523Y-123690476D01*
X102607142Y-123880952D01*
X102607142Y-124023809D01*
X102559523Y-124214285D01*
X102511904Y-124309523D01*
X102416666Y-124404761D01*
X102273809Y-124452380D01*
X102035714Y-124452380D01*
X103559523Y-124452380D02*
X102988095Y-124452380D01*
X103273809Y-124452380D02*
X103273809Y-123452380D01*
X103178571Y-123595238D01*
X103083333Y-123690476D01*
X102988095Y-123738095D01*
X103892857Y-123452380D02*
X104511904Y-123452380D01*
X104178571Y-123833333D01*
X104321428Y-123833333D01*
X104416666Y-123880952D01*
X104464285Y-123928571D01*
X104511904Y-124023809D01*
X104511904Y-124261904D01*
X104464285Y-124357142D01*
X104416666Y-124404761D01*
X104321428Y-124452380D01*
X104035714Y-124452380D01*
X103940476Y-124404761D01*
X103892857Y-124357142D01*
%TO.C,D14*%
X102035714Y-116202380D02*
X102035714Y-115202380D01*
X102273809Y-115202380D01*
X102416666Y-115250000D01*
X102511904Y-115345238D01*
X102559523Y-115440476D01*
X102607142Y-115630952D01*
X102607142Y-115773809D01*
X102559523Y-115964285D01*
X102511904Y-116059523D01*
X102416666Y-116154761D01*
X102273809Y-116202380D01*
X102035714Y-116202380D01*
X103559523Y-116202380D02*
X102988095Y-116202380D01*
X103273809Y-116202380D02*
X103273809Y-115202380D01*
X103178571Y-115345238D01*
X103083333Y-115440476D01*
X102988095Y-115488095D01*
X104416666Y-115535714D02*
X104416666Y-116202380D01*
X104178571Y-115154761D02*
X103940476Y-115869047D01*
X104559523Y-115869047D01*
%TO.C,D15*%
X102035714Y-108202380D02*
X102035714Y-107202380D01*
X102273809Y-107202380D01*
X102416666Y-107250000D01*
X102511904Y-107345238D01*
X102559523Y-107440476D01*
X102607142Y-107630952D01*
X102607142Y-107773809D01*
X102559523Y-107964285D01*
X102511904Y-108059523D01*
X102416666Y-108154761D01*
X102273809Y-108202380D01*
X102035714Y-108202380D01*
X103559523Y-108202380D02*
X102988095Y-108202380D01*
X103273809Y-108202380D02*
X103273809Y-107202380D01*
X103178571Y-107345238D01*
X103083333Y-107440476D01*
X102988095Y-107488095D01*
X104464285Y-107202380D02*
X103988095Y-107202380D01*
X103940476Y-107678571D01*
X103988095Y-107630952D01*
X104083333Y-107583333D01*
X104321428Y-107583333D01*
X104416666Y-107630952D01*
X104464285Y-107678571D01*
X104511904Y-107773809D01*
X104511904Y-108011904D01*
X104464285Y-108107142D01*
X104416666Y-108154761D01*
X104321428Y-108202380D01*
X104083333Y-108202380D01*
X103988095Y-108154761D01*
X103940476Y-108107142D01*
%TO.C,D16*%
X102035714Y-96452380D02*
X102035714Y-95452380D01*
X102273809Y-95452380D01*
X102416666Y-95500000D01*
X102511904Y-95595238D01*
X102559523Y-95690476D01*
X102607142Y-95880952D01*
X102607142Y-96023809D01*
X102559523Y-96214285D01*
X102511904Y-96309523D01*
X102416666Y-96404761D01*
X102273809Y-96452380D01*
X102035714Y-96452380D01*
X103559523Y-96452380D02*
X102988095Y-96452380D01*
X103273809Y-96452380D02*
X103273809Y-95452380D01*
X103178571Y-95595238D01*
X103083333Y-95690476D01*
X102988095Y-95738095D01*
X104416666Y-95452380D02*
X104226190Y-95452380D01*
X104130952Y-95500000D01*
X104083333Y-95547619D01*
X103988095Y-95690476D01*
X103940476Y-95880952D01*
X103940476Y-96261904D01*
X103988095Y-96357142D01*
X104035714Y-96404761D01*
X104130952Y-96452380D01*
X104321428Y-96452380D01*
X104416666Y-96404761D01*
X104464285Y-96357142D01*
X104511904Y-96261904D01*
X104511904Y-96023809D01*
X104464285Y-95928571D01*
X104416666Y-95880952D01*
X104321428Y-95833333D01*
X104130952Y-95833333D01*
X104035714Y-95880952D01*
X103988095Y-95928571D01*
X103940476Y-96023809D01*
%TO.C,R1*%
X143333333Y-127202380D02*
X143000000Y-126726190D01*
X142761904Y-127202380D02*
X142761904Y-126202380D01*
X143142857Y-126202380D01*
X143238095Y-126250000D01*
X143285714Y-126297619D01*
X143333333Y-126392857D01*
X143333333Y-126535714D01*
X143285714Y-126630952D01*
X143238095Y-126678571D01*
X143142857Y-126726190D01*
X142761904Y-126726190D01*
X144285714Y-127202380D02*
X143714285Y-127202380D01*
X144000000Y-127202380D02*
X144000000Y-126202380D01*
X143904761Y-126345238D01*
X143809523Y-126440476D01*
X143714285Y-126488095D01*
%TO.C,R2*%
X141333333Y-127202380D02*
X141000000Y-126726190D01*
X140761904Y-127202380D02*
X140761904Y-126202380D01*
X141142857Y-126202380D01*
X141238095Y-126250000D01*
X141285714Y-126297619D01*
X141333333Y-126392857D01*
X141333333Y-126535714D01*
X141285714Y-126630952D01*
X141238095Y-126678571D01*
X141142857Y-126726190D01*
X140761904Y-126726190D01*
X141714285Y-126297619D02*
X141761904Y-126250000D01*
X141857142Y-126202380D01*
X142095238Y-126202380D01*
X142190476Y-126250000D01*
X142238095Y-126297619D01*
X142285714Y-126392857D01*
X142285714Y-126488095D01*
X142238095Y-126630952D01*
X141666666Y-127202380D01*
X142285714Y-127202380D01*
%TO.C,R3*%
X118333333Y-127202380D02*
X118000000Y-126726190D01*
X117761904Y-127202380D02*
X117761904Y-126202380D01*
X118142857Y-126202380D01*
X118238095Y-126250000D01*
X118285714Y-126297619D01*
X118333333Y-126392857D01*
X118333333Y-126535714D01*
X118285714Y-126630952D01*
X118238095Y-126678571D01*
X118142857Y-126726190D01*
X117761904Y-126726190D01*
X118666666Y-126202380D02*
X119285714Y-126202380D01*
X118952380Y-126583333D01*
X119095238Y-126583333D01*
X119190476Y-126630952D01*
X119238095Y-126678571D01*
X119285714Y-126773809D01*
X119285714Y-127011904D01*
X119238095Y-127107142D01*
X119190476Y-127154761D01*
X119095238Y-127202380D01*
X118809523Y-127202380D01*
X118714285Y-127154761D01*
X118666666Y-127107142D01*
%TO.C,R4*%
X116333333Y-127202380D02*
X116000000Y-126726190D01*
X115761904Y-127202380D02*
X115761904Y-126202380D01*
X116142857Y-126202380D01*
X116238095Y-126250000D01*
X116285714Y-126297619D01*
X116333333Y-126392857D01*
X116333333Y-126535714D01*
X116285714Y-126630952D01*
X116238095Y-126678571D01*
X116142857Y-126726190D01*
X115761904Y-126726190D01*
X117190476Y-126535714D02*
X117190476Y-127202380D01*
X116952380Y-126154761D02*
X116714285Y-126869047D01*
X117333333Y-126869047D01*
%TO.C,R5*%
X114333333Y-127202380D02*
X114000000Y-126726190D01*
X113761904Y-127202380D02*
X113761904Y-126202380D01*
X114142857Y-126202380D01*
X114238095Y-126250000D01*
X114285714Y-126297619D01*
X114333333Y-126392857D01*
X114333333Y-126535714D01*
X114285714Y-126630952D01*
X114238095Y-126678571D01*
X114142857Y-126726190D01*
X113761904Y-126726190D01*
X115238095Y-126202380D02*
X114761904Y-126202380D01*
X114714285Y-126678571D01*
X114761904Y-126630952D01*
X114857142Y-126583333D01*
X115095238Y-126583333D01*
X115190476Y-126630952D01*
X115238095Y-126678571D01*
X115285714Y-126773809D01*
X115285714Y-127011904D01*
X115238095Y-127107142D01*
X115190476Y-127154761D01*
X115095238Y-127202380D01*
X114857142Y-127202380D01*
X114761904Y-127154761D01*
X114714285Y-127107142D01*
%TO.C,SW3*%
X146004761Y-76333333D02*
X146052380Y-76190476D01*
X146052380Y-75952380D01*
X146004761Y-75857142D01*
X145957142Y-75809523D01*
X145861904Y-75761904D01*
X145766666Y-75761904D01*
X145671428Y-75809523D01*
X145623809Y-75857142D01*
X145576190Y-75952380D01*
X145528571Y-76142857D01*
X145480952Y-76238095D01*
X145433333Y-76285714D01*
X145338095Y-76333333D01*
X145242857Y-76333333D01*
X145147619Y-76285714D01*
X145100000Y-76238095D01*
X145052380Y-76142857D01*
X145052380Y-75904761D01*
X145100000Y-75761904D01*
X145052380Y-75428571D02*
X146052380Y-75190476D01*
X145338095Y-75000000D01*
X146052380Y-74809523D01*
X145052380Y-74571428D01*
X145052380Y-74285714D02*
X145052380Y-73666666D01*
X145433333Y-74000000D01*
X145433333Y-73857142D01*
X145480952Y-73761904D01*
X145528571Y-73714285D01*
X145623809Y-73666666D01*
X145861904Y-73666666D01*
X145957142Y-73714285D01*
X146004761Y-73761904D01*
X146052380Y-73857142D01*
X146052380Y-74142857D01*
X146004761Y-74238095D01*
X145957142Y-74285714D01*
%TO.C,J1*%
X98666666Y-69452380D02*
X98666666Y-70166666D01*
X98619047Y-70309523D01*
X98523809Y-70404761D01*
X98380952Y-70452380D01*
X98285714Y-70452380D01*
X99666666Y-70452380D02*
X99095238Y-70452380D01*
X99380952Y-70452380D02*
X99380952Y-69452380D01*
X99285714Y-69595238D01*
X99190476Y-69690476D01*
X99095238Y-69738095D01*
%TO.C,J2*%
X122416666Y-122202380D02*
X122416666Y-122916666D01*
X122369047Y-123059523D01*
X122273809Y-123154761D01*
X122130952Y-123202380D01*
X122035714Y-123202380D01*
X122845238Y-122297619D02*
X122892857Y-122250000D01*
X122988095Y-122202380D01*
X123226190Y-122202380D01*
X123321428Y-122250000D01*
X123369047Y-122297619D01*
X123416666Y-122392857D01*
X123416666Y-122488095D01*
X123369047Y-122630952D01*
X122797619Y-123202380D01*
X123416666Y-123202380D01*
%TO.C,SW1*%
X111416666Y-140154761D02*
X111559523Y-140202380D01*
X111797619Y-140202380D01*
X111892857Y-140154761D01*
X111940476Y-140107142D01*
X111988095Y-140011904D01*
X111988095Y-139916666D01*
X111940476Y-139821428D01*
X111892857Y-139773809D01*
X111797619Y-139726190D01*
X111607142Y-139678571D01*
X111511904Y-139630952D01*
X111464285Y-139583333D01*
X111416666Y-139488095D01*
X111416666Y-139392857D01*
X111464285Y-139297619D01*
X111511904Y-139250000D01*
X111607142Y-139202380D01*
X111845238Y-139202380D01*
X111988095Y-139250000D01*
X112321428Y-139202380D02*
X112559523Y-140202380D01*
X112750000Y-139488095D01*
X112940476Y-140202380D01*
X113178571Y-139202380D01*
X114083333Y-140202380D02*
X113511904Y-140202380D01*
X113797619Y-140202380D02*
X113797619Y-139202380D01*
X113702380Y-139345238D01*
X113607142Y-139440476D01*
X113511904Y-139488095D01*
%TO.C,SW2*%
X143416666Y-139904761D02*
X143559523Y-139952380D01*
X143797619Y-139952380D01*
X143892857Y-139904761D01*
X143940476Y-139857142D01*
X143988095Y-139761904D01*
X143988095Y-139666666D01*
X143940476Y-139571428D01*
X143892857Y-139523809D01*
X143797619Y-139476190D01*
X143607142Y-139428571D01*
X143511904Y-139380952D01*
X143464285Y-139333333D01*
X143416666Y-139238095D01*
X143416666Y-139142857D01*
X143464285Y-139047619D01*
X143511904Y-139000000D01*
X143607142Y-138952380D01*
X143845238Y-138952380D01*
X143988095Y-139000000D01*
X144321428Y-138952380D02*
X144559523Y-139952380D01*
X144750000Y-139238095D01*
X144940476Y-139952380D01*
X145178571Y-138952380D01*
X145511904Y-139047619D02*
X145559523Y-139000000D01*
X145654761Y-138952380D01*
X145892857Y-138952380D01*
X145988095Y-139000000D01*
X146035714Y-139047619D01*
X146083333Y-139142857D01*
X146083333Y-139238095D01*
X146035714Y-139380952D01*
X145464285Y-139952380D01*
X146083333Y-139952380D01*
%TO.C,J3*%
X143466666Y-97052380D02*
X143466666Y-97766666D01*
X143419047Y-97909523D01*
X143323809Y-98004761D01*
X143180952Y-98052380D01*
X143085714Y-98052380D01*
X143847619Y-97052380D02*
X144466666Y-97052380D01*
X144133333Y-97433333D01*
X144276190Y-97433333D01*
X144371428Y-97480952D01*
X144419047Y-97528571D01*
X144466666Y-97623809D01*
X144466666Y-97861904D01*
X144419047Y-97957142D01*
X144371428Y-98004761D01*
X144276190Y-98052380D01*
X143990476Y-98052380D01*
X143895238Y-98004761D01*
X143847619Y-97957142D01*
%TD*%
M02*
